<?xml version="1.0" encoding="UTF-8" standalone="no"?>
<!-- Created with Inkscape (http://www.inkscape.org/) -->

<svg
   width="50"
   height="50"
   viewBox="0 0 13.229167 13.229167"
   version="1.1"
   id="svg25456"
   inkscape:version="1.1 (c68e22c387, 2021-05-23)"
   sodipodi:docname="armor.svg"
   xmlns:inkscape="http://www.inkscape.org/namespaces/inkscape"
   xmlns:sodipodi="http://sodipodi.sourceforge.net/DTD/sodipodi-0.dtd"
   xmlns="http://www.w3.org/2000/svg"
   xmlns:svg="http://www.w3.org/2000/svg">
  <sodipodi:namedview
     id="namedview25458"
     pagecolor="#ffffff"
     bordercolor="#666666"
     borderopacity="1.0"
     inkscape:pageshadow="2"
     inkscape:pageopacity="0.0"
     inkscape:pagecheckerboard="0"
     inkscape:document-units="mm"
     showgrid="false"
     units="px"
     inkscape:zoom="12.429181"
     inkscape:cx="34.31441"
     inkscape:cy="25.182674"
     inkscape:window-width="1920"
     inkscape:window-height="1018"
     inkscape:window-x="-6"
     inkscape:window-y="-6"
     inkscape:window-maximized="1"
     inkscape:current-layer="layer1" />
  <defs
     id="defs25453" />
  <g
     inkscape:label="Layer 1"
     inkscape:groupmode="layer"
     id="layer1">
    <path
       style="fill:#000000;stroke-width:0.0831009"
       d="M 5.9441107,12.429977 C 5.1089368,11.877464 3.7778764,10.606796 3.1478969,9.7606358 2.5047583,8.8967992 1.9672334,7.775634 1.7099417,6.7613577 1.5078025,5.9645016 1.5026267,5.8721458 1.523986,3.4432501 L 1.5459536,0.94481392 2.2523114,0.80252791 C 4.053178,0.43976896 4.7716888,0.36726266 6.5735639,0.36645896 8.351115,0.36567432 9.373146,0.47241561 11.185669,0.84817535 l 0.498606,0.10337293 0.02473,2.15726022 C 11.742391,6.0209614 11.60787,6.8749096 10.887851,8.3215411 10.12264,9.8589699 8.7947815,11.342318 7.188372,12.454226 L 6.5982177,12.862712 Z M 7.2309762,11.566229 C 9.0288375,10.219044 10.337706,8.3886919 10.836982,6.5235083 11.00349,5.9014717 11.016438,5.676785 10.99992,3.6960994 10.990038,2.5126794 10.969118,1.5315678 10.953401,1.5158511 10.876235,1.4386845 8.8105375,1.1379875 7.7610678,1.0511504 6.3906038,0.93775212 4.9405932,1.0257656 3.2168051,1.3269877 l -1.0475897,0.1830601 0.0011,2.0442109 c 0.00131,2.5161614 0.1084927,3.1641663 0.734649,4.4429567 0.4705564,0.9610075 1.0168088,1.7165645 1.8252775,2.5246596 0.4697431,0.469525 1.7194088,1.499334 1.8359362,1.512934 0.018789,0.0021 0.3179485,-0.208669 0.6648086,-0.46858 z M 5.7616114,10.679011 C 4.4928689,9.6230351 3.5599872,8.3094167 3.0683384,6.8865352 L 2.7955574,6.0970754 2.7669578,4.0523716 2.7383701,2.007669 3.2224762,1.9159169 C 3.8846261,1.7904132 4.884924,1.6689364 5.8048823,1.6023107 l 0.768684,-0.055675 v 4.8721271 c 0,2.6796686 -0.017277,4.8721252 -0.038399,4.8721252 -0.021122,0 -0.3692195,-0.275344 -0.7735586,-0.611876 z"
       id="path25472" />
  </g>
</svg>
