<?xml version="1.0" encoding="UTF-8" standalone="no"?>
<!-- Created with Inkscape (http://www.inkscape.org/) -->

<svg
   width="50"
   height="50"
   viewBox="0 0 13.229167 13.229167"
   version="1.1"
   id="svg25456"
   inkscape:version="1.1 (c68e22c387, 2021-05-23)"
   sodipodi:docname="MH.svg"
   xmlns:inkscape="http://www.inkscape.org/namespaces/inkscape"
   xmlns:sodipodi="http://sodipodi.sourceforge.net/DTD/sodipodi-0.dtd"
   xmlns="http://www.w3.org/2000/svg"
   xmlns:svg="http://www.w3.org/2000/svg">
  <sodipodi:namedview
     id="namedview25458"
     pagecolor="#ffffff"
     bordercolor="#666666"
     borderopacity="1.0"
     inkscape:pageshadow="2"
     inkscape:pageopacity="0.0"
     inkscape:pagecheckerboard="0"
     inkscape:document-units="mm"
     showgrid="false"
     units="px"
     inkscape:zoom="8.7887579"
     inkscape:cx="9.9559006"
     inkscape:cy="13.653806"
     inkscape:window-width="1920"
     inkscape:window-height="1018"
     inkscape:window-x="-6"
     inkscape:window-y="-6"
     inkscape:window-maximized="1"
     inkscape:current-layer="layer1" />
  <defs
     id="defs25453">
    <marker
       style="overflow:visible;"
       id="marker39222"
       refX="0.0"
       refY="0.0"
       orient="auto"
       inkscape:stockid="Arrow1Lend"
       inkscape:isstock="true">
      <path
         transform="scale(0.8) rotate(180) translate(12.5,0)"
         style="fill-rule:evenodd;fill:context-stroke;stroke:context-stroke;stroke-width:1.0pt;"
         d="M 0.0,0.0 L 5.0,-5.0 L -12.5,0.0 L 5.0,5.0 L 0.0,0.0 z "
         id="path39220" />
    </marker>
    <marker
       style="overflow:visible"
       id="marker38741"
       refX="0.0"
       refY="0.0"
       orient="auto"
       inkscape:stockid="Arrow1Lstart"
       inkscape:isstock="true">
      <path
         transform="scale(0.8) translate(12.5,0)"
         style="fill-rule:evenodd;fill:context-stroke;stroke:context-stroke;stroke-width:1.0pt"
         d="M 0.0,0.0 L 5.0,-5.0 L -12.5,0.0 L 5.0,5.0 L 0.0,0.0 z "
         id="path38739" />
    </marker>
    <marker
       style="overflow:visible"
       id="Arrow1Lstart"
       refX="0.0"
       refY="0.0"
       orient="auto"
       inkscape:stockid="Arrow1Lstart"
       inkscape:isstock="true">
      <path
         transform="scale(0.8) translate(12.5,0)"
         style="fill-rule:evenodd;fill:context-stroke;stroke:context-stroke;stroke-width:1.0pt"
         d="M 0.0,0.0 L 5.0,-5.0 L -12.5,0.0 L 5.0,5.0 L 0.0,0.0 z "
         id="path30209" />
    </marker>
    <marker
       style="overflow:visible;"
       id="Arrow1Lend"
       refX="0.0"
       refY="0.0"
       orient="auto"
       inkscape:stockid="Arrow1Lend"
       inkscape:isstock="true">
      <path
         transform="scale(0.8) rotate(180) translate(12.5,0)"
         style="fill-rule:evenodd;fill:context-stroke;stroke:context-stroke;stroke-width:1.0pt;"
         d="M 0.0,0.0 L 5.0,-5.0 L -12.5,0.0 L 5.0,5.0 L 0.0,0.0 z "
         id="path30212" />
    </marker>
    <clipPath
       clipPathUnits="userSpaceOnUse"
       id="clipPath29247">
      <rect
         style="fill:#000000;fill-opacity:1;stroke:#000000;stroke-width:0.264583"
         id="rect29249"
         width="83.570778"
         height="76.827309"
         x="-571.02686"
         y="-185.92691" />
    </clipPath>
    <clipPath
       clipPathUnits="userSpaceOnUse"
       id="clipPath29355">
      <rect
         style="fill:#000000;fill-opacity:1;stroke:#000000;stroke-width:0.264583"
         id="rect29357"
         width="60.329914"
         height="49.130947"
         x="-548.62891"
         y="-187.7332" />
    </clipPath>
    <clipPath
       clipPathUnits="userSpaceOnUse"
       id="clipPath37500">
      <rect
         style="fill:#838383;fill-opacity:1;stroke:#000000;stroke-width:0.259049"
         id="rect37502"
         width="30.590088"
         height="26.0105"
         x="-636.65887"
         y="-198.69133" />
    </clipPath>
    <clipPath
       clipPathUnits="userSpaceOnUse"
       id="clipPath47772">
      <rect
         style="fill:#e3dedb;fill-opacity:1;stroke:#241f1c;stroke-width:0.0499999;stroke-miterlimit:4;stroke-dasharray:none"
         id="rect47774"
         width="46.000053"
         height="44.675442"
         x="-495.40372"
         y="-10.596871"
         rx="0.49999899"
         ry="0.49999899" />
    </clipPath>
    <clipPath
       clipPathUnits="userSpaceOnUse"
       id="clipPath47772-7">
      <rect
         style="fill:#e3dedb;fill-opacity:1;stroke:#241f1c;stroke-width:0.0499999;stroke-miterlimit:4;stroke-dasharray:none"
         id="rect47774-8"
         width="46.000053"
         height="44.675442"
         x="-495.40372"
         y="-10.596871"
         rx="0.49999899"
         ry="0.49999899" />
    </clipPath>
    <clipPath
       clipPathUnits="userSpaceOnUse"
       id="clipPath48214">
      <path
         style="fill:none;stroke:#000000;stroke-width:0.264583px;stroke-linecap:butt;stroke-linejoin:miter;stroke-opacity:1"
         d="m -10.71729,9.3324712 8.3691198,0.090314 1.71597052,-0.5719903 0.0301047,-9.72383324 -3.07068412,-0.69240916 -10.2356139,0.5418854 0.873038,7.2251391 1.475132,2.7696369 z"
         id="path48216" />
    </clipPath>
    <clipPath
       clipPathUnits="userSpaceOnUse"
       id="clipPath48549">
      <rect
         style="fill:#e3dedb;fill-opacity:1;stroke:#241f1c;stroke-width:0.0499999;stroke-miterlimit:4;stroke-dasharray:none"
         id="rect48551"
         width="56.198395"
         height="51.600342"
         x="161.78326"
         y="-37.97649"
         rx="0.49999899"
         ry="0.49999899" />
    </clipPath>
    <clipPath
       clipPathUnits="userSpaceOnUse"
       id="clipPath49093">
      <rect
         style="fill:#e3dedb;fill-opacity:1;stroke:#241f1c;stroke-width:0.0499999;stroke-miterlimit:4;stroke-dasharray:none"
         id="rect49095"
         width="44.107224"
         height="46.321102"
         x="15.156537"
         y="-61.477638"
         rx="0.49999899"
         ry="0.49999899" />
    </clipPath>
    <clipPath
       clipPathUnits="userSpaceOnUse"
       id="clipPath49353">
      <path
         style="fill:none;stroke:#000000;stroke-width:0.264583px;stroke-linecap:butt;stroke-linejoin:miter;stroke-opacity:1"
         d="m -66.802434,7.4659773 5.689799,-0.06021 16.437191,-5.7199017 28.418881,-29.2618146 7.586396,-21.314159 -14.329859,-4.455504 -19.0262,-1.926704 -18.183267,10.115196 -17.340332,22.036675 -1.204193,18.6649423 3.251314,9.3926808 z"
         id="path49355" />
    </clipPath>
  </defs>
  <g
     inkscape:label="Layer 1"
     inkscape:groupmode="layer"
     id="layer1">
    <path
       style="fill:#000000;stroke-width:0.264583"
       d="m -74.792992,9.7879476 v -1.984375 l 4.828646,-0.02701 c 3.703269,-0.02071 4.61282,-0.08886 3.902604,-0.292386 -2.291119,-0.656566 -3.740847,-1.394944 -5.07697,-2.58581 -2.727227,-2.4307378 -4.063692,-6.2171634 -3.422565,-9.6966857 0.630423,-3.4214276 0.617798,-3.4064469 15.205894,-18.0423789 7.721231,-7.746549 13.988825,-13.82379 14.592599,-14.149405 1.582581,-0.853486 5.079738,-0.825919 6.800527,0.05361 2.576899,1.317099 3.984749,3.557293 4.139951,6.587562 0.178708,3.489223 0.103918,3.586036 -12.457742,16.125946 -11.676778,11.6565577 -11.651337,11.6360816 -12.902527,10.3848908 -0.297872,-0.2978706 -0.529167,-0.8819436 -0.529167,-1.336265 0,-0.7092288 1.339523,-2.156034 11.046354,-11.9310648 l 11.046354,-11.123964 v -1.82286 c 0,-1.747336 -0.04032,-1.863184 -0.973259,-2.79612 -0.827736,-0.827734 -1.187207,-0.991001 -2.404118,-1.091917 -0.965034,-0.08003 -1.681824,0.01182 -2.201741,0.282135 -1.29985,0.675811 -26.423685,26.1191514 -27.099788,27.4444202 -0.342573,0.6714993 -0.652324,1.863561 -0.72746,2.7995986 -0.10857,1.3525606 -0.01953,1.8720197 0.522883,3.05049238 1.28125,2.78370782 3.386016,4.18286152 6.307055,4.19265112 3.16259,0.01061 2.647816,0.4544166 21.753487,-18.7550133 15.892356,-15.978665 17.396854,-17.567053 18.216742,-19.232483 0.816641,-1.658832 0.893339,-2.021157 0.889537,-4.202172 -0.0035,-2.028379 -0.110652,-2.615384 -0.713285,-3.908867 -0.990407,-2.125789 -3.024666,-4.192822 -5.044551,-5.125823 -1.430785,-0.660892 -1.958107,-0.75992 -4.027586,-0.756357 -4.230115,0.0073 -3.150917,-0.861772 -20.911545,16.839596 -16.688722,16.633039 -16.312566,16.311358 -17.585329,15.038596 -0.310868,-0.310867 -0.529167,-0.881943 -0.529167,-1.384318 0,-0.778015 1.402093,-2.254885 15.544271,-16.373284 14.84794,-14.822972 15.633163,-15.561159 17.528646,-16.478627 9.064093,-4.387283 19.413672,2.086522 19.413672,12.143521 0,2.541372 -0.741783,5.199224 -2.006926,7.190919 -1.1524,1.81421 -35.56436,36.3624556 -37.137012,37.2840916 -0.652107,0.382159 -1.867147,0.908963 -2.700088,1.170673 -1.485914,0.466876 -1.104559,0.476292 20.247541,0.499973 l 21.761979,0.02413 v 1.984375 1.9843754 h -27.648958 -27.648958 z m 4.446268,-0.06615 -0.08064,-1.256771 h -1.058333 -1.058334 l -0.08064,1.256771 -0.08064,1.2567714 h 1.219619 1.219618 z m -1.656844,0.4813044 c -0.08372,-0.135467 -0.01282,-0.3324574 0.157557,-0.4377564 0.184638,-0.114112 0.239158,-0.07718 0.134959,0.09141 -0.09615,0.1555774 -0.02525,0.3431674 0.157557,0.4168674 0.237898,0.09591 0.242805,0.139941 0.01726,0.154889 -0.173313,0.01148 -0.383614,-0.08995 -0.467336,-0.225411 z m 8.468813,-0.2254604 c 0.196837,-0.468135 0.24457,-0.851156 0.106074,-0.851156 -0.138496,0 -0.26121,0.148828 -0.272699,0.330729 -0.01671,0.264583 -0.04758,0.264583 -0.15434,0 -0.07849,-0.194519 -0.614731,-0.330729 -1.302029,-0.330729 -1.107156,0 -1.166682,0.03824 -1.132545,0.727604 0.03089,0.6238454 0.05238,0.6427124 0.150694,0.132291 0.06306,-0.327421 0.225444,-0.595312 0.360844,-0.595312 0.135399,0 0.262395,0.267891 0.282212,0.595312 l 0.03603,0.5953134 0.114662,-0.5953134 c 0.06306,-0.327421 0.225444,-0.595312 0.360844,-0.595312 0.1354,0 0.258049,0.267891 0.272555,0.595312 0.02507,0.5658124 0.03564,0.5625344 0.213378,-0.06615 0.181503,-0.641996 0.191504,-0.644599 0.339897,-0.08846 0.08409,0.3151504 0.01784,0.7169864 -0.147233,0.8929684 -0.226208,0.241165 -0.212213,0.293381 0.05682,0.212011 0.196321,-0.05938 0.517995,-0.490979 0.714832,-0.9591154 z m 7.931711,0.3790194 c 0.271285,0.1041 0.39721,-0.0396 0.415592,-0.4742634 l 0.02637,-0.623621 0.211836,0.661459 c 0.210163,0.6562324 0.212045,0.6566064 0.23821,0.04725 0.0145,-0.337814 -0.143716,-0.784299 -0.351603,-0.992187 -0.47409,-0.474091 -0.680357,-0.479483 -0.680357,-0.017791 0,0.244158 -0.219077,0.318305 -0.680084,0.230177 -0.639647,-0.122274 -0.672552,-0.07683 -0.553406,0.764297 0.06967,0.4918634 0.137586,0.9325694 0.150918,0.9793444 0.01333,0.04677 0.206278,-0.097 0.42877,-0.319487 0.222493,-0.222493 0.57968,-0.337322 0.79375,-0.255174 z m -0.933698,-0.5843294 c 0,-0.226869 0.121005,-0.337703 0.268899,-0.2463 0.147895,0.0914 0.200399,0.277024 0.116677,0.41249 -0.226811,0.3669884 -0.385576,0.2985594 -0.385576,-0.16619 z m -11.90625,0.01562 c 0,-0.455115 -0.14444,-0.660194 -0.463021,-0.657408 -0.395696,0.0035 -0.405314,0.04134 -0.06615,0.260533 0.339169,0.219189 0.329551,0.257069 -0.06615,0.260533 -0.470222,0.0041 -0.607125,0.300918 -0.286631,0.6214114 0.401657,0.401658 0.881944,0.137498 0.881944,-0.4850694 z m 0.451713,-0.724519 c -0.06329,-0.329118 -0.117469,-0.122148 -0.120406,0.459936 -0.0029,0.5820834 0.04884,0.8513634 0.115066,0.5983974 0.06622,-0.2529654 0.06863,-0.7292154 0.0053,-1.0583334 z m 1.40037,0.724519 c 0,-0.515078 -0.131742,-0.657344 -0.595312,-0.642861 -0.568034,0.01775 -0.571065,0.02901 -0.06615,0.245986 0.452494,0.194442 0.462079,0.230084 0.06615,0.245986 -0.648118,0.02603 -0.584092,0.8123474 0.06615,0.8123474 0.388056,0 0.529167,-0.176389 0.529166,-0.6614584 z m 4.7625,0.2645834 c 0,-0.2182814 -0.148828,-0.3986984 -0.330729,-0.4009254 -0.220486,-0.0027 -0.198437,-0.08955 0.06615,-0.260533 0.339169,-0.219189 0.329551,-0.257069 -0.06615,-0.260533 -0.518033,-0.0045 -0.619359,0.397264 -0.17019,0.674865 0.204134,0.126161 0.184099,0.2498754 -0.06615,0.4084404 -0.279641,0.177189 -0.256647,0.228354 0.104044,0.231511 0.254662,0.0022 0.463021,-0.174543 0.463021,-0.392825 z m 4.101042,-0.3258924 c 0,-0.362371 -0.127546,-0.557057 -0.317254,-0.484257 -0.190053,0.07293 -0.258266,-0.03198 -0.170131,-0.261659 0.08092,-0.210871 0.02525,-0.3834 -0.123717,-0.3834 -0.148963,0 -0.3186,0.143274 -0.376971,0.318386 -0.05999,0.179975 -0.537501,0.30616 -1.098407,0.290261 -0.776348,-0.02201 -1.047555,0.09583 -1.246299,0.54151 -0.252676,0.5666164 -0.253414,0.5664814 -0.139107,-0.0254 0.0632,-0.327279 0.007,-0.661726 -0.124828,-0.74322 -0.131859,-0.08151 -0.239744,0.19934 -0.239744,0.624089 v 0.7722714 l 1.918229,-0.0213 c 1.816711,-0.02016 1.918229,-0.05337 1.918229,-0.6272934 z m -2.89645,0.216199 c -0.08519,-0.13784 -0.04211,-0.320318 0.09573,-0.405506 0.137839,-0.08519 0.320317,-0.04211 0.405507,0.09573 0.08519,0.13784 0.04211,0.320318 -0.09573,0.4055064 -0.13784,0.08519 -0.320318,0.04211 -0.405507,-0.09573 z m 1.176658,-0.15489 c 0,-0.218281 0.178594,-0.396875 0.396875,-0.396875 0.218282,0 0.396875,0.178594 0.396875,0.396875 0,0.2182814 -0.178593,0.3968754 -0.396875,0.3968754 -0.218281,0 -0.396875,-0.178594 -0.396875,-0.3968754 z m 6.121448,0.06615 c 0.03421,-0.565198 0.04157,-0.567217 0.145467,-0.03989 0.07937,0.4028154 0.318056,0.5613534 0.868726,0.5770124 0.417609,0.01188 0.817384,-0.129802 0.888387,-0.314833 0.196053,-0.5109064 -0.24464,-1.0473674 -0.71281,-0.8677124 -0.228307,0.08761 -0.473206,0.06528 -0.54422,-0.04962 -0.07101,-0.114903 -0.491546,-0.15572 -0.934515,-0.09071 -0.639468,0.09385 -0.805399,0.248296 -0.805399,0.749636 0,0.8654974 1.042084,0.8998884 1.094364,0.03612 z m -0.829781,-0.06615 c 0,-0.218281 0.119062,-0.396875 0.264583,-0.396875 0.145521,0 0.264584,0.178594 0.264584,0.396875 0,0.2182814 -0.119063,0.3968754 -0.264584,0.3968754 -0.145521,0 -0.264583,-0.178594 -0.264583,-0.3968754 z m 1.343805,-0.02204 c 0.0127,-0.308226 0.07539,-0.370919 0.159852,-0.159853 0.07643,0.190995 0.06703,0.4191984 -0.02089,0.5071194 -0.08792,0.08792 -0.150453,-0.06835 -0.138962,-0.3472664 z m 0.508278,0.02204 c 0,-0.218281 0.119063,-0.396875 0.264584,-0.396875 0.14552,0 0.264583,0.178594 0.264583,0.396875 0,0.2182814 -0.119063,0.3968754 -0.264583,0.3968754 -0.145521,0 -0.264584,-0.178594 -0.264584,-0.3968754 z"
       id="path49138"
       clip-path="url(#clipPath49353)"
       transform="matrix(0.17392134,0,0,0.17392134,14.813937,10.479112)" />
  </g>
</svg>
