<?xml version="1.0" encoding="UTF-8" standalone="no"?>
<!-- Created with Inkscape (http://www.inkscape.org/) -->

<svg
   width="50"
   height="50"
   viewBox="0 0 13.229167 13.229167"
   version="1.1"
   id="svg25456"
   inkscape:version="1.1 (c68e22c387, 2021-05-23)"
   sodipodi:docname="caliper.svg"
   xmlns:inkscape="http://www.inkscape.org/namespaces/inkscape"
   xmlns:sodipodi="http://sodipodi.sourceforge.net/DTD/sodipodi-0.dtd"
   xmlns="http://www.w3.org/2000/svg"
   xmlns:svg="http://www.w3.org/2000/svg">
  <sodipodi:namedview
     id="namedview25458"
     pagecolor="#ffffff"
     bordercolor="#666666"
     borderopacity="1.0"
     inkscape:pageshadow="2"
     inkscape:pageopacity="0.0"
     inkscape:pagecheckerboard="0"
     inkscape:document-units="mm"
     showgrid="false"
     units="px"
     inkscape:zoom="8.7887579"
     inkscape:cx="51.60001"
     inkscape:cy="27.421395"
     inkscape:window-width="1920"
     inkscape:window-height="1018"
     inkscape:window-x="-6"
     inkscape:window-y="-6"
     inkscape:window-maximized="1"
     inkscape:current-layer="layer1" />
  <defs
     id="defs25453" />
  <g
     inkscape:label="Layer 1"
     inkscape:groupmode="layer"
     id="layer1">
    <path
       style="fill:#000000;stroke-width:0.0564536"
       d="M 1.4963293,11.903084 C 1.2296907,11.73719 0.40695024,10.86047 0.36644015,10.699066 c -0.022111,-0.0881 -0.002731,-0.209687 0.0489481,-0.307151 0.0470507,-0.08873 0.79326215,-0.8671977 1.65824745,-1.7299281 l 1.5727005,-1.568601 0.1344779,0.1431454 c 0.073963,0.07873 0.1619953,0.1431453 0.195628,0.1431453 0.074633,0 2.85476,-2.7737753 2.85476,-2.8482367 0,-0.029121 -0.063253,-0.1189718 -0.140563,-0.1996656 L 6.5500764,4.1850585 6.8594291,3.8795487 7.1687815,3.5740387 7.0153066,3.4138454 6.8618314,3.2536519 7.8799353,2.2399387 c 0.9161891,-0.9122382 1.037157,-1.0137131 1.2084464,-1.0137131 0.1698802,0 0.2832101,0.092171 1.0541613,0.8573542 l 0.863817,0.8573543 0.932693,1.5575896 c 0.563298,0.9407022 0.932693,1.6153492 0.932693,1.7034276 0,0.1393346 -0.20225,1.2297415 -0.259792,1.4006345 -0.01808,0.053695 -0.569142,-0.459574 -1.604928,-1.4948645 L 9.4296322,4.5310818 9.1306945,4.8263055 C 8.9662791,4.9886788 8.8052288,5.1215295 8.772806,5.1215295 8.740381,5.1215295 8.6533324,5.0571055 8.57936,4.978366 L 8.4448647,4.8352023 6.706548,6.5728407 C 5.7504733,7.5285424 4.9682306,8.3379599 4.9682306,8.3715476 c 0,0.033585 0.064415,0.1215828 0.1431452,0.1955455 l 0.1431458,0.1344779 -1.568601,1.5727 C 2.82319,11.139257 2.0487199,11.883401 1.9648758,11.927924 1.7662442,12.03341 1.7001594,12.029898 1.4963293,11.903084 Z M 8.7545465,8.0179035 7.4969682,7.0754271 7.1155479,7.4674801 C 6.7534079,7.839716 6.7320491,7.8766539 6.6930024,8.1982554 6.6172021,8.822574 6.2424919,8.9844704 5.8110312,8.5793172 L 5.5855833,8.367616 7.0269897,6.9284437 8.4683957,5.4892716 10.046917,7.0670373 c 0.868187,0.8677707 1.567778,1.588508 1.554648,1.6016381 -0.03742,0.037415 -1.281543,0.2867247 -1.44395,0.2893514 C 10.055223,8.9596728 9.6395998,8.6811951 8.7545465,8.0179035 Z M 3.8982488,6.6244908 C 3.8064232,6.3829705 3.8744086,6.2401282 4.2658194,5.8521965 L 4.6280754,5.4931606 4.4762967,5.3347375 4.3245179,5.176315 4.6297683,4.8672251 4.9350184,4.5581353 5.0936748,4.7101379 5.2523316,4.8621404 5.5786435,4.5392331 5.9049558,4.2163256 6.0563309,4.374327 6.2077057,4.5323283 5.0826155,5.6563637 C 3.9590635,6.778862 3.957444,6.7801854 3.8982488,6.6244908 Z"
       id="path25669" />
  </g>
</svg>
