<?xml version="1.0" encoding="UTF-8" standalone="no"?>
<!-- Created with Inkscape (http://www.inkscape.org/) -->

<svg
   width="50"
   height="50"
   viewBox="0 0 13.229167 13.229167"
   version="1.1"
   id="svg25456"
   inkscape:version="1.1 (c68e22c387, 2021-05-23)"
   sodipodi:docname="MH.svg"
   xmlns:inkscape="http://www.inkscape.org/namespaces/inkscape"
   xmlns:sodipodi="http://sodipodi.sourceforge.net/DTD/sodipodi-0.dtd"
   xmlns="http://www.w3.org/2000/svg"
   xmlns:svg="http://www.w3.org/2000/svg">
  <sodipodi:namedview
     id="namedview25458"
     pagecolor="#ffffff"
     bordercolor="#666666"
     borderopacity="1.0"
     inkscape:pageshadow="2"
     inkscape:pageopacity="0.0"
     inkscape:pagecheckerboard="0"
     inkscape:document-units="mm"
     showgrid="false"
     units="px"
     inkscape:zoom="4.394379"
     inkscape:cx="86.132762"
     inkscape:cy="64.855581"
     inkscape:window-width="1920"
     inkscape:window-height="1018"
     inkscape:window-x="-6"
     inkscape:window-y="-6"
     inkscape:window-maximized="1"
     inkscape:current-layer="layer1" />
  <defs
     id="defs25453">
    <marker
       style="overflow:visible;"
       id="marker39222"
       refX="0.0"
       refY="0.0"
       orient="auto"
       inkscape:stockid="Arrow1Lend"
       inkscape:isstock="true">
      <path
         transform="scale(0.8) rotate(180) translate(12.5,0)"
         style="fill-rule:evenodd;fill:context-stroke;stroke:context-stroke;stroke-width:1.0pt;"
         d="M 0.0,0.0 L 5.0,-5.0 L -12.5,0.0 L 5.0,5.0 L 0.0,0.0 z "
         id="path39220" />
    </marker>
    <marker
       style="overflow:visible"
       id="marker38741"
       refX="0.0"
       refY="0.0"
       orient="auto"
       inkscape:stockid="Arrow1Lstart"
       inkscape:isstock="true">
      <path
         transform="scale(0.8) translate(12.5,0)"
         style="fill-rule:evenodd;fill:context-stroke;stroke:context-stroke;stroke-width:1.0pt"
         d="M 0.0,0.0 L 5.0,-5.0 L -12.5,0.0 L 5.0,5.0 L 0.0,0.0 z "
         id="path38739" />
    </marker>
    <marker
       style="overflow:visible"
       id="Arrow1Lstart"
       refX="0.0"
       refY="0.0"
       orient="auto"
       inkscape:stockid="Arrow1Lstart"
       inkscape:isstock="true">
      <path
         transform="scale(0.8) translate(12.5,0)"
         style="fill-rule:evenodd;fill:context-stroke;stroke:context-stroke;stroke-width:1.0pt"
         d="M 0.0,0.0 L 5.0,-5.0 L -12.5,0.0 L 5.0,5.0 L 0.0,0.0 z "
         id="path30209" />
    </marker>
    <marker
       style="overflow:visible;"
       id="Arrow1Lend"
       refX="0.0"
       refY="0.0"
       orient="auto"
       inkscape:stockid="Arrow1Lend"
       inkscape:isstock="true">
      <path
         transform="scale(0.8) rotate(180) translate(12.5,0)"
         style="fill-rule:evenodd;fill:context-stroke;stroke:context-stroke;stroke-width:1.0pt;"
         d="M 0.0,0.0 L 5.0,-5.0 L -12.5,0.0 L 5.0,5.0 L 0.0,0.0 z "
         id="path30212" />
    </marker>
    <clipPath
       clipPathUnits="userSpaceOnUse"
       id="clipPath29247">
      <rect
         style="fill:#000000;fill-opacity:1;stroke:#000000;stroke-width:0.264583"
         id="rect29249"
         width="83.570778"
         height="76.827309"
         x="-571.02686"
         y="-185.92691" />
    </clipPath>
    <clipPath
       clipPathUnits="userSpaceOnUse"
       id="clipPath29355">
      <rect
         style="fill:#000000;fill-opacity:1;stroke:#000000;stroke-width:0.264583"
         id="rect29357"
         width="60.329914"
         height="49.130947"
         x="-548.62891"
         y="-187.7332" />
    </clipPath>
    <clipPath
       clipPathUnits="userSpaceOnUse"
       id="clipPath37500">
      <rect
         style="fill:#838383;fill-opacity:1;stroke:#000000;stroke-width:0.259049"
         id="rect37502"
         width="30.590088"
         height="26.0105"
         x="-636.65887"
         y="-198.69133" />
    </clipPath>
    <clipPath
       clipPathUnits="userSpaceOnUse"
       id="clipPath47772">
      <rect
         style="fill:#e3dedb;fill-opacity:1;stroke:#241f1c;stroke-width:0.0499999;stroke-miterlimit:4;stroke-dasharray:none"
         id="rect47774"
         width="46.000053"
         height="44.675442"
         x="-495.40372"
         y="-10.596871"
         rx="0.49999899"
         ry="0.49999899" />
    </clipPath>
    <clipPath
       clipPathUnits="userSpaceOnUse"
       id="clipPath47772-7">
      <rect
         style="fill:#e3dedb;fill-opacity:1;stroke:#241f1c;stroke-width:0.0499999;stroke-miterlimit:4;stroke-dasharray:none"
         id="rect47774-8"
         width="46.000053"
         height="44.675442"
         x="-495.40372"
         y="-10.596871"
         rx="0.49999899"
         ry="0.49999899" />
    </clipPath>
    <clipPath
       clipPathUnits="userSpaceOnUse"
       id="clipPath48214">
      <path
         style="fill:none;stroke:#000000;stroke-width:0.264583px;stroke-linecap:butt;stroke-linejoin:miter;stroke-opacity:1"
         d="m -10.71729,9.3324712 8.3691198,0.090314 1.71597052,-0.5719903 0.0301047,-9.72383324 -3.07068412,-0.69240916 -10.2356139,0.5418854 0.873038,7.2251391 1.475132,2.7696369 z"
         id="path48216" />
    </clipPath>
    <clipPath
       clipPathUnits="userSpaceOnUse"
       id="clipPath48549">
      <rect
         style="fill:#e3dedb;fill-opacity:1;stroke:#241f1c;stroke-width:0.0499999;stroke-miterlimit:4;stroke-dasharray:none"
         id="rect48551"
         width="56.198395"
         height="51.600342"
         x="161.78326"
         y="-37.97649"
         rx="0.49999899"
         ry="0.49999899" />
    </clipPath>
  </defs>
  <g
     inkscape:label="Layer 1"
     inkscape:groupmode="layer"
     id="layer1">
    <path
       style="fill:#000000;stroke-width:0.264583"
       d="m 25.635133,151.74515 v -10.58333 h 7.12925 7.12926 l 0.0806,-1.25677 0.0806,-1.25677 h 2.38125 2.38125 l 0.0806,1.25677 c 0.0796,1.24051 0.0924,1.25677 0.99219,1.25677 h 0.91155 v -1.32292 -1.32292 h 2.38125 2.38125 v 1.32292 1.32292 h 0.92604 0.92604 v -1.32292 -1.32292 h 2.38125 2.38125 v 1.32292 1.32292 h 0.92604 0.92604 v -1.32292 -1.32292 h 2.38125 2.38125 v 1.32292 1.32292 h 0.92605 0.92604 v -1.32292 -1.32292 h 2.38125 2.38125 v 1.32292 1.32292 h 15.21354 15.213537 v -1.19063 -1.19062 h 4.36563 4.36562 v 1.19062 1.19063 h 1.05833 1.05834 v -1.19063 -1.19062 h 4.49791 4.49792 v 1.19062 c 0,1.18433 0.005,1.19063 0.92604,1.19063 0.92114,0 0.92604,-0.006 0.92604,-1.19063 v -1.19062 h 4.49792 4.49792 v 1.19062 c 0,1.18433 0.005,1.19063 0.92604,1.19063 0.92114,0 0.92604,-0.006 0.92604,-1.19063 v -1.19062 h 4.49792 4.49791 v 1.19062 1.19063 l 23.74636,-0.0168 c 13.06049,-0.009 23.50823,-0.11527 23.21719,-0.23565 -1.47902,-0.61176 -2.21874,-2.37866 -1.6079,-3.8406 0.82921,-1.98459 3.15817,-2.4962 4.68861,-1.02994 1.40459,1.34568 1.1583,3.62891 -0.50252,4.65867 -0.68691,0.4259 0.5667,0.44996 23.21868,0.44564 20.65612,-0.004 23.80443,-0.0546 22.92278,-0.36892 -1.25878,-0.44874 -2.49359,-1.57743 -2.98641,-2.72976 -0.30596,-0.7154 -0.36958,-3.78555 -0.36117,-17.42909 0.0114,-18.4161 -0.0661,-17.59678 1.80942,-19.14273 0.5309,-0.43761 1.52712,-0.90355 2.2806,-1.06664 0.91049,-0.19708 6.36715,-0.26288 17.08062,-0.20597 l 15.74271,0.0836 1.23119,0.72377 c 0.91406,0.53734 1.40816,1.07889 1.91823,2.10247 l 0.68704,1.37871 -0.002,16.02148 c -10e-4,10.46331 -0.0987,16.37166 -0.28177,17.03086 -0.34327,1.23617 -1.936,2.88256 -3.16882,3.27558 -0.74809,0.23849 -0.11085,0.29613 3.51821,0.31825 l 4.43188,0.027 v 10.58333 10.58333 H 153.29659 25.635133 Z m 12.16856,0.79375 c 1.34393,-3.77267 1.39863,-3.96875 1.10722,-3.96875 -0.1395,0 -0.7023,1.27992 -1.25066,2.84427 -0.54837,1.56435 -1.08125,2.94153 -1.18418,3.06038 -0.10293,0.11888 -0.64008,-1.10707 -1.19366,-2.7243 -0.92517,-2.70283 -1.29218,-3.42157 -1.59334,-3.12039 -0.0993,0.0993 0.50313,1.90873 1.90065,5.70888 0.63839,1.73591 1.08317,1.37428 2.21397,-1.80009 z m 4.61084,2.74982 c 0.82244,-0.3156 0.39836,-0.56587 -0.74118,-0.43744 -0.938,0.10573 -1.26678,0.0236 -1.7198,-0.42937 -1.05035,-1.05037 -0.75602,-1.35384 1.31302,-1.35384 h 1.87311 l -0.18188,-0.8599 c -0.33816,-1.59874 -1.56099,-2.39654 -2.89102,-1.88616 -0.63357,0.24313 -1.20248,1.51905 -1.20248,2.69685 0,1.80279 1.78812,2.94605 3.55023,2.26986 z m -3.02107,-3.08782 c 0,-0.65064 0.82764,-1.51408 1.45132,-1.51408 0.7585,0 1.4591,0.64428 1.4591,1.34181 0,0.44211 -0.19435,0.51027 -1.45521,0.51027 -1.00448,0 -1.45521,-0.10469 -1.45521,-0.338 z m 8.12703,2.81659 c 0.0671,-0.20447 -0.26252,-0.25887 -1.03845,-0.17142 -1.44586,0.16298 -2.18176,-0.52597 -2.18176,-2.04259 0,-1.37943 0.72891,-2.16233 1.96188,-2.10724 1.34113,0.0599 1.51611,0.0151 1.0688,-0.27401 -0.74545,-0.48175 -2.10678,-0.29852 -2.77939,0.3741 -1.19188,1.19187 -1.18576,2.82855 0.0151,4.02939 0.52439,0.52438 0.87154,0.63765 1.75461,0.57251 0.60548,-0.0447 1.14514,-0.21601 1.19924,-0.38074 z m 2.45631,0.26255 c 0,-0.0931 -0.193,-0.31039 -0.42889,-0.48287 -0.29961,-0.21907 -0.46984,-0.88585 -0.56472,-2.21199 -0.12909,-1.80422 -0.10783,-1.89836 0.42889,-1.89836 0.31059,0 0.56472,-0.11906 0.56472,-0.26459 0,-0.14552 -0.23813,-0.26458 -0.52917,-0.26458 -0.41157,0 -0.52917,-0.1764 -0.52917,-0.79375 0,-0.43656 -0.1293,-0.79375 -0.28735,-0.79375 -0.19532,0 -0.25887,0.98145 -0.19844,3.06454 0.0774,2.66779 0.15541,3.11311 0.60251,3.43958 0.54553,0.39838 0.94162,0.48493 0.94162,0.20577 z m 4.60669,-0.64477 c 0.98248,-1.16763 0.94664,-2.66917 -0.0884,-3.70422 -0.52785,-0.52784 -1.03834,-0.7734 -1.60786,-0.7734 -1.2697,0 -2.38125,1.23505 -2.38125,2.64583 0,2.3658 2.63292,3.5486 4.07753,1.83179 z m -2.86761,-0.13049 c -1.31871,-1.31871 -0.55215,-3.81796 1.17103,-3.81796 1.79067,0 2.49943,2.99818 0.95288,4.03085 -0.5057,0.33766 -1.69229,0.21873 -2.12391,-0.21289 z m 4.8755,-1.05214 c 0,-1.94085 0.0222,-2.0093 0.79208,-2.4474 0.43564,-0.24788 0.79283,-0.54001 0.79375,-0.64915 0.003,-0.3143 -0.65196,-0.2308 -1.03682,0.13229 -0.28046,0.26458 -0.37483,0.26458 -0.47184,0 -0.35813,-0.97671 -0.60634,-0.029 -0.60634,2.3151 0,1.5875 0.10584,2.64584 0.26459,2.64584 0.15301,0 0.26458,-0.84196 0.26458,-1.99668 z m 6.37035,1.22327 c 1.33467,-1.33466 0.82799,-2.60646 -1.32305,-3.32091 -1.63685,-0.5437 -2.0484,-0.98346 -1.46566,-1.5662 0.52825,-0.52825 1.09491,-0.53547 2.071,-0.0265 0.92404,0.48191 0.87208,0.48188 1.05682,0 0.239,-0.62283 -1.28937,-1.27961 -2.57605,-1.10705 -1.19802,0.16071 -1.75216,0.72509 -1.75216,1.78459 0,0.86916 0.49346,1.31133 2.06527,1.85063 1.62154,0.55636 1.98374,1.16501 1.11652,1.87626 -0.62786,0.51494 -1.07811,0.5378 -2.98567,0.15153 -0.16334,-0.0331 -0.34078,0.13904 -0.39431,0.38246 -0.10799,0.49112 0.40943,0.65346 2.26906,0.71199 0.93926,0.0296 1.28371,-0.10284 1.91823,-0.73737 z m 3.6026,0.35597 c 0.0522,-0.15681 -0.20582,-0.42216 -0.57339,-0.58962 -0.60698,-0.27657 -0.66831,-0.45072 -0.66831,-1.8977 0,-1.52299 0.0291,-1.59316 0.66146,-1.59316 0.41157,0 0.66146,-0.14994 0.66146,-0.39687 0,-0.24694 -0.24989,-0.39688 -0.66146,-0.39688 -0.55857,0 -0.66146,-0.12348 -0.66146,-0.79375 0,-0.52917 -0.13229,-0.79375 -0.39687,-0.79375 -0.32966,0 -0.39688,0.51279 -0.39688,3.02771 0,2.83964 0.037,3.05366 0.59531,3.44559 0.64267,0.45114 1.28783,0.44595 1.44014,-0.0116 z m 4.2454,0.0127 c 0.77423,-0.54229 1.15468,-1.98818 0.83129,-3.15938 -0.30284,-1.09676 -1.11245,-1.72755 -2.21735,-1.72755 -1.09021,0 -1.88103,0.60494 -2.24923,1.72061 -0.37502,1.13634 0.0213,2.5767 0.87314,3.17336 0.73115,0.51213 2.0257,0.50885 2.76215,-0.007 z m -2.42939,-0.9771 c -0.80027,-1.14255 -0.21377,-3.11613 0.92604,-3.11613 0.76667,0 1.5725,0.94911 1.5725,1.85208 0,0.90297 -0.80583,1.85208 -1.5725,1.85208 -0.28279,0 -0.69951,-0.2646 -0.92604,-0.58803 z m 7.74797,0.7512 c 0.0798,-0.42034 -0.0164,-0.4704 -0.61553,-0.32004 -1.02435,0.2571 -1.62115,-0.0156 -1.99171,-0.91027 -0.25713,-0.62074 -0.25713,-0.94914 0,-1.56988 0.37056,-0.89461 0.96736,-1.16737 1.99171,-0.91027 0.59908,0.15034 0.69537,0.1003 0.61565,-0.32004 -0.11569,-0.60997 -1.61379,-0.825 -2.48803,-0.35711 -1.4891,0.79693 -1.57088,3.56195 -0.13861,4.68628 0.23089,0.18126 0.89502,0.30032 1.47585,0.26458 0.79417,-0.0488 1.07951,-0.18852 1.15067,-0.56325 z m 1.89432,-0.55999 c 0,-0.65484 0.0893,-1.188 0.19844,-1.1848 0.10914,0.003 0.55562,0.53872 0.99219,1.19004 0.5577,0.83206 0.97581,1.18441 1.40596,1.18481 0.5837,0 0.56006,-0.0738 -0.50778,-1.59608 l -1.11999,-1.59665 1.0245,-1.04918 c 0.85476,-0.87535 0.93791,-1.04918 0.50191,-1.04918 -0.28742,0 -0.96642,0.36587 -1.5089,0.81301 l -0.98633,0.81301 v -1.60676 c 0,-1.43036 -0.0581,-1.60676 -0.52917,-1.60676 -0.50203,0 -0.52916,0.1764 -0.52916,3.43958 0,3.26319 0.0271,3.43959 0.52916,3.43959 0.45077,0 0.52917,-0.1764 0.52917,-1.19063 z m 172.646647,-0.66146 c 0.25736,-0.80036 0.52286,-1.60403 0.58999,-1.78593 0.0671,-0.1819 0.0137,-0.33073 -0.11875,-0.33073 -0.21426,0 -1.4033,3.25538 -1.4033,3.84199 0,0.54514 0.49898,-0.37852 0.93206,-1.72533 z m -38.86408,-0.36467 c 0.38077,-1.12879 0.48806,-1.75019 0.29082,-1.68444 -0.1719,0.0573 -0.48541,0.66085 -0.69671,1.34122 -0.21129,0.68038 -0.46142,1.23706 -0.55584,1.23706 -0.0944,0 -0.34456,-0.55668 -0.55585,-1.23706 -0.2113,-0.68037 -0.52647,-1.28447 -0.70038,-1.34244 -0.27643,-0.0922 0.006,0.99687 0.86235,3.32912 0.26192,0.71302 0.76744,0.10014 1.35561,-1.64346 z m 2.9491,1.56927 c -0.0409,-0.13782 -0.36153,-0.25688 -0.71248,-0.26458 -1.07618,-0.0236 -0.99232,-0.67543 0.0869,-0.67543 0.60153,0 0.94809,-0.12573 0.94809,-0.34396 0,-0.51528 -0.56395,-0.97896 -1.19063,-0.97896 -1.14201,0 -1.61347,1.39144 -0.76048,2.24444 0.44561,0.44561 1.75978,0.46053 1.62861,0.0185 z m -1.265,-1.46918 c 0,-0.14552 0.24515,-0.26458 0.54478,-0.26458 0.29963,0 0.4712,0.11906 0.38126,0.26458 -0.0899,0.14552 -0.33509,0.26458 -0.54478,0.26458 -0.20969,0 -0.38126,-0.11906 -0.38126,-0.26458 z m 4.41224,1.45259 c 0.0481,-0.14695 -0.29993,-0.26601 -0.77335,-0.26458 -0.74246,0.003 -0.86077,-0.0883 -0.86077,-0.65884 0,-0.55367 0.14094,-0.67503 0.86492,-0.74475 0.96749,-0.0932 0.91055,-0.57817 -0.0679,-0.57817 -1.2619,0 -1.89375,1.37904 -1.02836,2.24444 0.45402,0.45399 1.71709,0.45529 1.86544,0.003 z m 1.67318,0.13491 c 0,-0.14552 -0.11907,-0.26458 -0.26459,-0.26458 -0.38416,0 -0.32539,-1.52313 0.0638,-1.65285 0.23299,-0.0777 0.18759,-0.25025 -0.15631,-0.59413 -0.38675,-0.38676 -0.52849,-0.41378 -0.70156,-0.13374 -0.19535,0.31607 -0.11512,1.72487 0.14688,2.57916 0.12016,0.39182 0.91179,0.44923 0.91179,0.0662 z m 2.75922,-0.15118 c 0.80241,-0.8024 0.22167,-2.23007 -0.90714,-2.23007 -0.63131,0 -1.32292,0.69162 -1.32292,1.32292 0,0.63129 0.69161,1.32291 1.32292,1.32291 0.27025,0 0.67847,-0.18708 0.90714,-0.41576 z m -1.59809,-0.49173 c -0.26344,-0.68649 0.1058,-1.25389 0.75591,-1.16157 0.43729,0.0621 0.5965,0.26125 0.5965,0.74615 0,0.4849 -0.15921,0.68405 -0.5965,0.74615 -0.35779,0.0508 -0.66029,-0.0815 -0.75591,-0.33073 z m 3.0722,-0.0269 c 0,-0.58645 0.14777,-0.99105 0.39687,-1.08664 0.61888,-0.23747 0.46676,-0.5587 -0.26458,-0.5587 -0.6151,0 -0.66146,0.0904 -0.66146,1.28985 0,0.70942 0.11907,1.28984 0.26459,1.28984 0.14552,0 0.26458,-0.42045 0.26458,-0.93435 z m 3.38667,0.61685 c 0.58786,-0.58785 0.34685,-1.26455 -0.61347,-1.72252 -1.05655,-0.50382 -1.07978,-0.99681 -0.0478,-1.01478 0.99347,-0.0175 1.16884,-0.327 0.3076,-0.54316 -0.88326,-0.22167 -1.54753,0.14158 -1.66177,0.90876 -0.0634,0.42553 0.14905,0.67519 0.86483,1.01653 1.12574,0.53684 1.0847,1.0269 -0.0814,0.97221 -0.79812,-0.0374 -1.03077,0.14862 -0.65531,0.52406 0.29232,0.29234 1.54779,0.19847 1.88736,-0.1411 z m 1.905,0.0529 c 0,-0.14552 -0.11907,-0.26458 -0.26459,-0.26458 -0.38516,0 -0.32483,-1.52083 0.0662,-1.66738 0.22857,-0.0857 0.16779,-0.249 -0.19676,-0.52866 -0.35831,-0.27488 -0.58408,-0.31314 -0.70392,-0.11923 -0.16236,0.26271 -0.053,1.73009 0.18733,2.5137 0.12016,0.39183 0.91179,0.44924 0.91179,0.0661 z m 2.75922,-0.15118 c 0.80241,-0.8024 0.22167,-2.23007 -0.90714,-2.23007 -0.63131,0 -1.32292,0.69162 -1.32292,1.32292 0,0.63129 0.69161,1.32291 1.32292,1.32291 0.27026,0 0.67847,-0.18708 0.90714,-0.41576 z m -1.59809,-0.49173 c -0.26344,-0.68649 0.1058,-1.25389 0.75591,-1.16157 0.43729,0.0621 0.5965,0.26124 0.5965,0.74615 0,0.4849 -0.15921,0.68405 -0.5965,0.74615 -0.35779,0.0508 -0.66029,-0.0815 -0.75591,-0.33073 z m 4.7814,0.66006 c 0.0841,-0.13611 -0.23628,-0.28493 -0.71199,-0.33073 -0.72398,-0.0697 -0.86492,-0.19109 -0.86492,-0.74475 0,-0.55367 0.14094,-0.67503 0.86492,-0.74475 0.96749,-0.0932 0.91055,-0.57817 -0.0679,-0.57817 -0.75012,0 -1.45849,0.64251 -1.45849,1.32292 0,0.9898 1.76669,1.83867 2.23837,1.07548 z m 0.94615,-0.48017 0.009,-0.7276 0.59574,0.7276 c 0.79456,0.97044 1.08763,0.92353 0.56341,-0.0902 -0.39154,-0.75716 -0.389,-0.85527 0.0342,-1.32292 0.3941,-0.43547 0.40065,-0.50511 0.0475,-0.50511 -0.22526,0 -0.4781,0.17859 -0.56187,0.39687 -0.27895,0.72694 -0.69807,0.40923 -0.69807,-0.52916 0,-0.50933 -0.11906,-0.92605 -0.26458,-0.92605 -0.15119,0 -0.26458,0.79375 -0.26458,1.85209 0,1.05833 0.11339,1.85208 0.26458,1.85208 0.14552,0 0.26886,-0.32742 0.2741,-0.7276 z m 2.63632,0.46302 c 0,-0.14552 -0.11906,-0.26458 -0.26458,-0.26458 -0.14553,0 -0.26459,0.11906 -0.26459,0.26458 0,0.14552 0.11906,0.26458 0.26459,0.26458 0.14552,0 0.26458,-0.11906 0.26458,-0.26458 z m 3.08932,-0.13491 c 0.0481,-0.14695 -0.29993,-0.26601 -0.77335,-0.26458 -0.74245,0.003 -0.86076,-0.0883 -0.86076,-0.65884 0,-0.55367 0.14093,-0.67503 0.86491,-0.74475 0.9675,-0.0932 0.91055,-0.57817 -0.0679,-0.57817 -1.26189,0 -1.89374,1.37903 -1.02835,2.24443 0.45402,0.454 1.71709,0.4553 1.86543,0.003 z m 2.58032,-0.0164 c 0.80241,-0.80227 0.22167,-2.22993 -0.90714,-2.22993 -0.63131,0 -1.32292,0.69162 -1.32292,1.32291 0,0.6313 0.69161,1.32292 1.32292,1.32292 0.27025,0 0.67847,-0.18709 0.90714,-0.41577 z m -1.59809,-0.49173 c -0.26344,-0.68649 0.1058,-1.25389 0.75591,-1.16157 0.43729,0.0621 0.5965,0.26125 0.5965,0.74615 0,0.4849 -0.15921,0.68405 -0.5965,0.74615 -0.35779,0.0508 -0.66029,-0.0815 -0.75591,-0.33073 z m 3.12237,-0.0847 c 0.066,-0.79698 0.19924,-1.00883 0.67743,-1.07675 0.53369,-0.0758 0.59532,0.0269 0.59532,0.99219 0,1.35157 0.4686,1.42174 0.57934,0.0868 0.0574,-0.69186 0.22154,-1.0164 0.54513,-1.07773 0.37956,-0.0719 0.46303,0.10652 0.46303,0.98999 0,0.59275 0.11906,1.07773 0.26458,1.07773 0.28897,0 0.36162,-1.55593 0.10398,-2.22731 -0.19001,-0.49517 -0.92575,-0.54925 -1.37398,-0.10102 -0.24482,0.24482 -0.3175,0.24524 -0.3175,0.003 0,-0.19873 -0.39194,-0.30025 -1.05833,-0.27414 l -1.05834,0.0415 v 1.27953 c 0,1.50355 0.45981,1.73162 0.57934,0.28736 z m 7.88733,0.72774 c 0,-0.14552 -0.11906,-0.26459 -0.26458,-0.26459 -0.147,0 -0.26459,-0.70556 -0.26459,-1.5875 0,-1.71688 -0.17233,-1.9005 -0.95118,-1.01346 -0.45249,0.51533 -0.45668,0.55677 -0.041,0.40519 0.39709,-0.14484 0.46302,0 0.46302,1.01346 0,0.65026 -0.11906,1.18231 -0.26458,1.18231 -0.14552,0 -0.26458,0.11907 -0.26458,0.26459 0,0.14552 0.35718,0.26458 0.79375,0.26458 0.43656,0 0.79375,-0.11906 0.79375,-0.26458 z m 2.05988,-1.46021 c 0.46779,-0.94864 0.85054,-1.78208 0.85054,-1.85208 0,-0.07 -0.53579,-0.1273 -1.19063,-0.1273 -1.32607,0 -1.63673,0.44884 -0.40044,0.57854 l 0.79019,0.0829 -0.6579,1.41534 c -0.73016,1.5708 -0.74581,1.62737 -0.4501,1.62737 0.11429,0 0.59054,-0.77615 1.05834,-1.72479 z m 2.9672,1.46021 c 0,-0.14552 -0.11906,-0.26459 -0.26458,-0.26459 -0.14699,0 -0.26458,-0.70556 -0.26458,-1.5875 0,-1.71688 -0.17234,-1.9005 -0.95118,-1.01346 -0.45249,0.51533 -0.45669,0.55677 -0.041,0.40519 0.39708,-0.14484 0.46302,0 0.46302,1.01346 0,0.65026 -0.11907,1.18231 -0.26459,1.18231 -0.14552,0 -0.26458,0.11907 -0.26458,0.26459 0,0.14552 0.35719,0.26458 0.79375,0.26458 0.43656,0 0.79375,-0.11906 0.79375,-0.26458 z m 2.49464,-0.15118 c 0.7385,-0.73851 0.3025,-2.23007 -0.65186,-2.23007 -0.28592,0 -0.51986,-0.11906 -0.51986,-0.26459 0,-0.14552 0.29766,-0.26458 0.66146,-0.26458 0.3638,0 0.66146,-0.11906 0.66146,-0.26458 0,-0.14552 -0.41672,-0.26459 -0.92605,-0.26459 -0.73649,0 -0.92604,0.10388 -0.92604,0.50753 0,0.27913 -0.0679,0.68456 -0.15096,0.90093 -0.11657,0.30377 0.0492,0.38407 0.7276,0.35237 0.7717,-0.036 0.87857,0.0394 0.87857,0.62042 0,0.57788 -0.10866,0.65654 -0.8599,0.62246 -0.85341,-0.0387 -1.16365,0.26922 -0.52916,0.52523 0.63805,0.25746 1.22278,0.17142 1.63474,-0.24053 z m 3.00087,0.085 c 0.45336,-0.55817 0.25792,-2.87796 -0.27056,-3.21133 -0.64822,-0.40889 -1.38519,0.10829 -1.40059,0.98287 -0.007,0.37796 -0.096,0.77105 -0.19844,0.87355 -0.28957,0.28956 -0.21981,1.01716 0.13117,1.36813 0.41438,0.41439 1.39717,0.40691 1.73842,-0.0132 z m -1.4379,-0.6131 c -0.0875,-0.22807 -0.0476,-0.52617 0.0887,-0.66246 0.33413,-0.33412 1.28461,0.37322 1.0379,0.7724 -0.27179,0.43976 -0.94068,0.37449 -1.12657,-0.10994 z m 0.35763,-1.34371 c -0.3635,-0.36351 -0.17496,-0.92493 0.28112,-0.83709 0.25466,0.049 0.46302,0.2562 0.46302,0.46038 0,0.41772 -0.4668,0.65405 -0.74414,0.37671 z m 4.05143,2.02295 c 0,-0.14552 -0.11906,-0.26458 -0.26458,-0.26458 -0.147,0 -0.26459,-0.70557 -0.26459,-1.5875 0,-1.71688 -0.17233,-1.9005 -0.95118,-1.01346 -0.45249,0.51533 -0.45668,0.55676 -0.041,0.40518 0.39709,-0.14483 0.46302,0 0.46302,1.01346 0,0.65027 -0.11906,1.18232 -0.26458,1.18232 -0.14552,0 -0.26458,0.11906 -0.26458,0.26458 0,0.14552 0.35718,0.26458 0.79375,0.26458 0.43656,0 0.79375,-0.11906 0.79375,-0.26458 z m 2.69382,-0.19844 c 0.2054,-0.86693 -0.0915,-3.24135 -0.40425,-3.23278 -0.30898,0.008 -1.7604,2.19652 -1.7604,2.65382 0,0.13653 0.35718,0.24823 0.79375,0.24823 0.52916,0 0.79375,0.1323 0.79375,0.39688 0,0.55017 0.44316,0.49937 0.57715,-0.0661 z m -1.38907,-1.32291 c 0.70344,-1.22894 0.80371,-1.27821 0.80786,-0.39688 0.003,0.6898 -0.10247,0.8599 -0.53442,0.8599 -0.43741,0 -0.48873,-0.0869 -0.27344,-0.46302 z m 5.04525,1.52135 c 0,-0.14552 -0.50602,-0.26858 -1.12448,-0.27345 l -1.12448,-0.009 0.99219,-0.81052 c 1.01939,-0.83278 1.23192,-1.47198 0.67469,-2.02922 -0.43982,-0.43982 -1.4035,-0.39738 -1.79904,0.0792 -0.28365,0.34179 -0.21931,0.37473 0.46468,0.23791 1.24042,-0.24807 1.34201,0.35116 0.23195,1.36811 -1.37437,1.25907 -1.28036,1.70143 0.36157,1.70143 0.72761,0 1.32292,-0.11906 1.32292,-0.26459 z M 82.609293,150.68692 c -0.31499,-0.127 -0.69833,-0.44688 -0.85185,-0.71083 -0.15352,-0.26394 -0.28276,-0.3702 -0.28718,-0.23614 -0.0137,0.41606 0.84588,1.21232 1.28973,1.19468 0.28568,-0.0114 0.23699,-0.0914 -0.1507,-0.24771 z m 1.49876,-1.20422 c 0,-0.7738 -0.6584,-1.44172 -1.42119,-1.44172 -0.62679,0 -1.22993,0.45255 -1.2166,0.91282 0.004,0.15279 0.1294,0.0694 0.27773,-0.18521 0.30958,-0.5315 1.3101,-0.61341 1.77797,-0.14552 0.41286,0.41285 0.40613,1.32937 -0.0132,1.79964 -0.28136,0.31552 -0.26161,0.31859 0.1323,0.0206 0.25466,-0.1927 0.46302,-0.62492 0.46302,-0.96052 z m -1.21892,0.38687 c 0.23339,0.1937 0.31392,0.0753 0.305,-0.44836 -0.008,-0.46114 -0.17509,-0.74295 -0.47515,-0.80071 -0.36902,-0.0711 -0.45877,0.0893 -0.44213,0.79015 0.0115,0.48361 0.0826,0.72549 0.15802,0.53753 0.0936,-0.23336 0.23773,-0.25829 0.45426,-0.0786 z m -0.36858,-0.77025 c 0,-0.14552 0.11906,-0.26459 0.26458,-0.26459 0.14552,0 0.26458,0.11907 0.26458,0.26459 0,0.14552 -0.11906,0.26458 -0.26458,0.26458 -0.14552,0 -0.26458,-0.11906 -0.26458,-0.26458 z M 256.82805,137.9339 c 0.17463,-0.17462 0.3175,-0.92129 0.3175,-1.65925 v -1.34176 l 1.64276,-0.31219 c 3.48524,-0.66235 7.10422,-3.07815 9.08768,-6.06635 1.12273,-1.69148 2.22028,-4.57118 2.22857,-5.84722 l 0.006,-0.8599 h 1.40229 c 1.52668,0 2.03729,-0.30933 2.03729,-1.23423 0,-0.76581 -0.7216,-1.14702 -2.17122,-1.14702 h -1.14769 l -0.33513,-1.76668 c -0.99888,-5.26558 -5.77918,-10.0022 -11.0846,-10.98328 l -1.64178,-0.3036 -0.078,-1.44948 c -0.0876,-1.62833 -0.62662,-2.26761 -1.46708,-1.74009 -0.33315,0.2091 -0.48528,0.70966 -0.54237,1.78458 -0.0744,1.39997 -0.12137,1.49397 -0.7471,1.49397 -1.13034,0 -4.59827,1.29513 -6.05239,2.26033 -3.10133,2.05854 -5.56033,5.66637 -6.24946,9.16917 l -0.30201,1.53508 h -1.20151 c -1.2128,0 -2.16922,0.53471 -2.16922,1.21274 0,0.70192 0.8307,1.16851 2.08037,1.16851 h 1.24883 l 0.42614,1.81581 c 1.3203,5.6258 5.6129,9.86825 11.11652,10.98664 l 1.66459,0.33827 0.074,1.30099 c 0.0407,0.71555 0.12624,1.44983 0.19014,1.63173 0.14797,0.42127 1.25057,0.43002 1.66736,0.0132 z m -3.7163,-5.52555 c -1.7774,-0.41901 -4.24466,-1.86114 -5.65432,-3.30501 -1.53223,-1.5694 -2.88865,-4.07976 -3.24163,-5.99933 l -0.2311,-1.25678 h 1.26986 c 1.28721,0 2.10141,-0.46282 2.10141,-1.19452 0,-0.60817 -1.11368,-1.18673 -2.28437,-1.18673 h -1.10828 l 0.3734,-1.60061 c 1.08716,-4.66025 4.88407,-8.21899 9.69998,-9.09152 l 0.99219,-0.17976 v 1.45789 c 0,1.17058 0.10085,1.51186 0.51177,1.73178 0.66187,0.35422 0.69723,0.35 1.18912,-0.14188 0.26549,-0.2655 0.41577,-0.8871 0.41577,-1.71979 0,-0.71721 0.0893,-1.30261 0.19844,-1.30088 0.10914,0.002 0.79375,0.1624 1.52135,0.35705 4.18336,1.11914 7.38331,4.13499 8.62686,8.13054 0.70638,2.2696 0.68503,2.35718 -0.57446,2.35718 -1.40877,0 -2.09927,0.39163 -2.09927,1.19063 0,0.799 0.6905,1.19062 2.09927,1.19062 1.23618,0 1.25968,0.0772 0.64967,2.1348 -0.63329,2.13605 -1.33257,3.35431 -2.8406,4.94883 -1.59287,1.68423 -3.02695,2.5792 -5.23305,3.26582 -2.31027,0.71903 -2.34821,0.70624 -2.34821,-0.79205 0,-1.43273 -0.40607,-1.97593 -1.3745,-1.83864 -0.54486,0.0772 -0.61833,0.24863 -0.68922,1.60781 -0.0872,1.67093 -0.0959,1.67639 -1.97008,1.23455 z m 5.19907,-8.98684 c 2.49058,-2.18676 1.34593,-5.95942 -1.90283,-6.27159 -2.28254,-0.21932 -4.02181,1.27346 -4.02395,3.45368 -0.002,2.14999 1.52535,3.62212 3.76012,3.62389 1.01424,8e-4 1.41945,-0.14993 2.16666,-0.80598 z m -3.39922,-1.89773 c -0.54435,-0.77716 -0.51955,-1.15638 0.11729,-1.79321 0.96265,-0.96266 2.38125,-0.41098 2.38125,0.92604 0,1.36993 -1.72665,1.9692 -2.49854,0.86717 z m -58.76081,14.66737 c -0.49042,-1.22569 -1.89245,-2.60477 -2.90697,-2.8594 -0.36113,-0.0906 -0.6566,-0.2425 -0.6566,-0.33747 0,-0.095 2.02537,-2.19542 4.50084,-4.66767 l 4.50083,-4.495 h 1.3417 c 1.18105,0 1.43414,0.10346 2.11375,0.86407 0.61979,0.69367 0.77204,1.1081 0.77204,2.10156 v 1.23749 l -4.61112,4.63222 -4.61113,4.63221 z m -94.31566,-5.87725 v -6.35 h 4.36563 4.36562 v 6.35 6.35 h -4.36562 -4.36563 z m 10.84792,0.006 v -6.3564 h 4.5027 4.50271 l -0.0709,6.28386 -0.0709,6.28385 -4.43177,0.0725 -4.43177,0.0725 z m 11.03061,6.17353 c -0.10048,-0.10049 -0.1827,-2.96083 -0.1827,-6.35632 v -6.17361 h 4.50271 4.50271 l -0.0709,6.28385 -0.0709,6.28386 -4.24907,0.0725 c -2.33699,0.0399 -4.33129,-0.01 -4.43178,-0.11025 z m 10.84792,0 c -0.10048,-0.10049 -0.1827,-2.96083 -0.1827,-6.35632 v -6.17361 h 4.50271 4.5027 l -0.0709,6.28385 -0.0709,6.28386 -4.24907,0.0725 c -2.33699,0.0399 -4.33128,-0.01 -4.43177,-0.11025 z m 47.84632,-0.69591 c -0.78532,-0.78532 -0.93318,-1.11781 -0.93318,-2.09837 0,-0.97066 0.14565,-1.30635 0.87249,-2.01083 0.70665,-0.68492 1.08886,-0.84566 2.01083,-0.84566 0.94984,0 1.29287,0.15453 2.07153,0.93319 0.86002,0.86002 0.92245,1.02843 0.79628,2.14781 -0.0918,0.81439 -0.35415,1.43187 -0.79621,1.87393 -0.44206,0.44206 -1.05954,0.70442 -1.87393,0.79621 -1.11938,0.12617 -1.28779,0.0637 -2.14781,-0.79628 z m -142.299357,0.43453 c -0.10225,-0.10225 -0.18591,-2.78544 -0.18591,-5.96265 v -5.77674 h 2.5186 2.51861 l -0.0712,5.88698 -0.0712,5.88698 -2.26149,0.0757 c -1.24381,0.0416 -2.34514,-0.008 -2.44739,-0.11024 z m 6.69326,-5.78626 v -5.95313 h 2.38125 2.38125 v 5.95313 5.95312 h -2.38125 -2.38125 z m 6.61458,0 v -5.95313 h 2.38125 2.38125 v 5.95313 5.95312 h -2.38125 -2.38125 z m 6.61458,0 v -5.95313 h 2.38125 2.38125 v 5.95313 5.95312 h -2.38125 -2.38125 z m 6.61459,0 v -5.95313 h 2.38125 2.38125 v 5.95313 5.95312 h -2.38125 -2.38125 z m 122.496677,1.44216 c -0.52363,-1.26415 -1.56704,-2.38733 -2.68117,-2.88614 l -0.98868,-0.44265 4.55995,-4.55437 c 3.77244,-3.76782 4.7181,-4.57809 5.47565,-4.69173 1.81192,-0.27181 3.63527,1.70202 3.26811,3.53781 -0.10889,0.54449 -1.50087,2.11712 -4.71792,5.33023 l -4.56344,4.55786 z M 175.23055,131.266 c -0.73747,-0.73747 -0.89958,-1.09984 -0.89958,-2.01084 0,-0.91099 0.16211,-1.27336 0.89958,-2.01083 0.73747,-0.73747 1.09983,-0.89958 2.01083,-0.89958 0.911,0 1.27336,0.16211 2.01084,0.89958 0.73747,0.73747 0.89958,1.09984 0.89958,2.01083 0,0.911 -0.16211,1.27337 -0.89958,2.01084 -0.73748,0.73747 -1.09984,0.89958 -2.01084,0.89958 -0.911,0 -1.27336,-0.16211 -2.01083,-0.89958 z m 6.69402,-4.07945 c -0.5313,-1.20422 -1.32175,-1.9913 -2.6474,-2.6361 l -0.97678,-0.47512 4.58087,-4.55383 4.58086,-4.55384 h 1.25998 c 1.03471,0 1.39584,0.13586 2.01983,0.75985 0.87555,0.87554 1.18631,1.83968 0.92772,2.87818 -0.11182,0.44908 -1.86599,2.42404 -4.58257,5.15937 -2.42078,2.43747 -4.47236,4.43177 -4.55909,4.43177 -0.0867,0 -0.35827,-0.45462 -0.60342,-1.01028 z m -12.54183,0.55388 c -0.91247,-0.16639 -2.19569,-1.8001 -2.19454,-2.79395 0.003,-2.61872 3.25412,-4.05979 4.9901,-2.21192 2.07105,2.20453 0.20144,5.55235 -2.79556,5.00587 z m 38.40514,-2.78474 c -0.32631,-1.07424 -1.45248,-2.31012 -2.66791,-2.92782 l -1.19423,-0.60693 1.83768,-1.22197 c 2.45309,-1.6312 5.43895,-3.11464 6.26911,-3.11464 0.60047,0 0.65415,0.0785 0.4975,0.72761 -0.38973,1.61489 -3.84839,7.73906 -4.37068,7.73906 -0.10485,0 -0.27202,-0.26789 -0.37147,-0.59531 z m -32.7667,-1.89784 c -0.24522,-0.97705 -1.42105,-2.22724 -2.71168,-2.88315 l -1.16043,-0.58975 4.58465,-4.5576 4.58465,-4.5576 h 1.23546 c 1.74035,0 2.82815,0.98281 3.02547,2.73349 l 0.14215,1.26111 -4.59004,4.61728 c -2.52452,2.53951 -4.67088,4.61728 -4.76968,4.61728 -0.0988,0 -0.25205,-0.28848 -0.34055,-0.64106 z M 40.192943,120.98734 c 0.007,-1.35087 0.83758,-5.23078 1.62863,-7.60678 l 0.57258,-1.71979 0.38172,0.92604 c 0.65388,1.58628 1.6669,5.87016 1.83008,7.73907 l 0.15593,1.78593 h -2.28733 -2.28734 l 0.006,-1.12447 z m 6.61233,0.26458 c 0.008,-2.08013 1.98051,-9.70453 2.39843,-9.27264 0.48546,0.5017 1.7792,5.878 2.1995,9.14035 l 0.12783,0.99218 h -2.36462 -2.36461 l 0.003,-0.85989 z m 6.61111,0.22767 c 0,-1.95598 2.00983,-9.9115 2.39934,-9.49731 0.56655,0.60245 2.36316,8.03721 2.36316,9.77928 0,0.26467 -0.58185,0.35025 -2.38125,0.35025 -2.33425,0 -2.38125,-0.0125 -2.38125,-0.63222 z m 6.61559,0.3015 c 0.005,-1.64786 1.53423,-8.35096 2.18673,-9.58526 0.2505,-0.47386 0.31163,-0.42387 0.64717,0.52916 0.56074,1.59272 1.60961,6.14944 1.81048,7.86547 l 0.17809,1.52135 h -2.41174 c -1.75354,0 -2.41146,-0.0903 -2.41073,-0.33072 z m 6.76519,-0.79375 c 0.51038,-3.63537 1.69818,-8.49331 2.20163,-9.00442 0.4204,-0.42679 2.40926,7.29866 2.40926,9.35842 v 0.77047 h -2.38438 -2.38438 z m 39.337447,0.6549 -4.29948,-0.0727 v -1.47878 c 0,-3.52667 3.09318,-5.73833 6.14035,-4.39042 1.60848,0.71151 2.40413,1.89181 2.53982,3.76768 0.17408,2.40659 0.47677,2.25635 -4.38069,2.17422 z m 6.54844,-1.39101 c 0,-1.71753 0.48196,-2.83793 1.66921,-3.88035 1.29053,-1.13309 2.88517,-1.37414 4.45253,-0.67305 0.63487,0.28398 1.37398,0.76386 1.64248,1.06639 0.67939,0.76552 1.20623,2.3607 1.22,3.69395 l 0.0116,1.12448 h -4.49792 -4.49791 z m 10.84791,0.23764 c 0,-2.55447 1.23724,-4.36306 3.4352,-5.02158 2.78245,-0.83365 5.53966,1.57798 5.55483,4.85859 l 0.006,1.25677 h -4.49792 -4.49792 z m 10.85953,-0.0307 c 0.0138,-1.33325 0.54062,-2.92844 1.22001,-3.69395 0.26849,-0.30254 1.00761,-0.78241 1.64247,-1.06639 1.56736,-0.70109 3.16201,-0.46005 4.45253,0.67305 1.18725,1.04242 1.66921,2.16282 1.66921,3.88035 v 1.33141 h -4.49791 -4.49792 l 0.0116,-1.12447 z m 66.39881,0.23813 c 0,-0.73468 -1.64933,-2.61883 -2.66615,-3.04574 -0.56795,-0.23845 -1.03385,-0.5184 -1.03533,-0.62212 -0.009,-0.6065 6.8395,-4.44163 7.93116,-4.44163 0.51036,0 0.55398,0.0965 0.38872,0.8599 -0.24132,1.11472 -1.47643,3.57088 -2.92708,5.82083 -1.09867,1.70403 -1.69132,2.20468 -1.69132,1.42876 z m -7.36058,-5.02045 c -0.52026,-1.17613 -2.34699,-2.82446 -3.13016,-2.82446 -0.74079,0 -0.29403,-0.46481 1.73056,-1.80047 2.15911,-1.4244 4.35717,-2.52573 5.69218,-2.85206 0.75519,-0.1846 0.76553,-0.17231 0.59855,0.71099 -0.22396,1.18468 -2.04975,4.76883 -3.33622,6.54926 l -1.02394,1.41709 z m -7.03907,-4.36728 c -0.57784,-1.28142 -1.28235,-1.98473 -2.65877,-2.65423 l -1.021,-0.49662 1.30065,-0.94637 c 1.54681,-1.12547 5.49864,-3.22108 6.52616,-3.46075 0.60768,-0.14173 0.72761,-0.0825 0.72761,0.35915 0,1.14417 -2.23807,5.57355 -3.81626,7.55279 l -0.5741,0.71999 z M 58.620663,72.757242 c -4.75413,-4.298246 -8.64386,-8.003775 -8.64386,-8.234513 0,-0.230735 0.73233,-1.202389 1.62741,-2.159227 6.06216,-6.480472 9.66008,-14.351503 10.57145,-23.126764 0.17863,-1.719953 0.45979,-3.143761 0.66426,-3.363886 0.30823,-0.331817 1.87317,-0.240578 11.98009,0.698476 6.39406,0.594082 11.75446,1.159814 11.91201,1.257184 0.40573,0.250759 0.35501,3.035223 -0.1215,6.670241 -1.40789,10.740022 -5.17272,20.026966 -11.57593,28.55506 -2.45783,3.27346 -6.56572,7.518422 -7.27565,7.518422 -0.27659,0 -4.30276,-3.443153 -9.13828,-7.814993 z m 9.44424,-3.157532 c 5.5754,-6.57197 9.89552,-16.161816 11.29512,-25.073017 0.34518,-2.197733 0.1606,-2.848208 -0.80822,-2.848208 -0.75615,0 -1.03393,0.582909 -1.46229,3.068653 -1.42654,8.277945 -5.04447,16.399547 -10.08887,22.647682 -2.60108,3.221774 -2.61334,3.246253 -1.95491,3.904679 0.73034,0.730337 1.16528,0.48546 3.01917,-1.699789 z m -8.38664,-4.798843 c 2.45719,-2.605384 6.50829,-9.758188 8.30049,-14.655715 0.98505,-2.691831 2.37096,-7.941736 2.37096,-8.981319 0,-1.008941 -0.61867,-1.502142 -1.424,-1.135208 -0.48548,0.2212 -0.68266,0.632333 -0.93866,1.957129 -1.3894,7.190298 -5.05112,15.207538 -9.53868,20.884729 -1.16918,1.479126 -1.2665,1.850278 -0.64747,2.469311 0.60325,0.60325 0.87324,0.525743 1.87736,-0.538927 z m 60.590157,15.3495 c -7.36563,-1.330923 -13.87704,-6.993445 -16.33088,-14.201841 -4.175167,-12.264953 3.33334,-25.477277 15.9609,-28.085571 7.92825,-1.637625 16.06846,1.246185 21.1266,7.484465 6.86268,8.463846 6.42037,20.48566 -1.04487,28.39921 -5.08403,5.38934 -12.3186,7.739629 -19.71175,6.403737 z m 6.24761,-2.316162 c 3.82721,-1.603807 5.01642,-6.349834 2.36672,-9.445408 -1.21354,-1.417746 -2.68325,-2.092442 -4.55804,-2.092442 -1.87479,0 -3.3445,0.674696 -4.55803,2.092442 -2.63062,3.073286 -1.47868,7.780022 2.30908,9.434721 1.04062,0.454602 3.36757,0.460203 4.44027,0.01069 z m -3.65964,-2.13205 c -1.41061,-0.614421 -2.23584,-1.861079 -2.23584,-3.377626 0,-2.184096 1.23229,-3.623863 3.30124,-3.857064 2.36169,-0.266197 4.10709,1.368875 4.10709,3.84747 0,1.067509 -0.1444,1.509136 -0.71525,2.18756 -1.21763,1.447072 -2.86889,1.891506 -4.45724,1.19966 z m 2.77204,-2.441644 c 0.3016,-0.383426 0.54837,-0.843618 0.54837,-1.022651 0,-0.702641 -1.09539,-1.719792 -1.85209,-1.719792 -0.75669,0 -1.85208,1.017151 -1.85208,1.719792 0,0.70264 1.09539,1.719791 1.85208,1.719791 0.50088,0 0.94009,-0.234862 1.30372,-0.69714 z m -10.0179,-2.411714 c 0.93983,-0.476575 1.70928,-1.123421 2.23026,-1.874874 0.72689,-1.048478 0.79538,-1.33494 0.79538,-3.326615 0,-1.93617 -0.0814,-2.302406 -0.72986,-3.28224 -1.16743,-1.764104 -2.57791,-2.540471 -4.80252,-2.643447 -1.73356,-0.08024 -1.98554,-0.02021 -3.31967,0.790744 -1.11035,0.674945 -1.61437,1.205294 -2.18281,2.296854 -2.73228,5.246748 2.72131,10.721011 8.00922,8.039578 z m -4.51911,-1.87166 c -1.22053,-0.638916 -2.19062,-2.462744 -2.0236,-3.804491 0.33591,-2.698496 3.39775,-4.242384 5.66817,-2.85809 2.61286,1.593083 2.49779,5.32325 -0.20613,6.681748 -1.18096,0.593333 -2.28008,0.587208 -3.43844,-0.01916 z m 2.91454,-2.163236 c 0.64283,-0.642829 0.68524,-1.770247 0.0913,-2.426562 -0.95522,-1.055508 -3.0017,-0.212876 -3.0017,1.235937 0,0.84912 0.87067,1.719792 1.71979,1.719792 0.3638,0 0.89958,-0.238125 1.19062,-0.529167 z m 24.20938,4.265391 c 4.44067,-2.037067 4.80981,-8.03832 0.64996,-10.566927 -1.33413,-0.810966 -1.5861,-0.870987 -3.31966,-0.790744 -2.22461,0.102976 -3.63509,0.879343 -4.80252,2.643447 -0.64842,0.979834 -0.72986,1.34607 -0.72986,3.28224 0,1.991675 0.0685,2.278137 0.79538,3.326615 1.57987,2.278808 4.94401,3.235073 7.4067,2.105369 z m -4.08224,-2.068145 c -1.27023,-0.668496 -1.92645,-1.680745 -2.05485,-3.169724 -0.25528,-2.960314 2.77852,-4.956876 5.45682,-3.591174 3.39763,1.732494 2.41777,6.740543 -1.39442,7.126851 -0.7318,0.07416 -1.40415,-0.0484 -2.00755,-0.365953 z m 2.89161,-2.197246 c 1.54252,-1.542513 -0.80787,-3.937428 -2.42656,-2.472534 -1.05551,0.95522 -0.21287,3.001701 1.23594,3.001701 0.3638,0 0.89958,-0.238125 1.19062,-0.529167 z m -11.16985,-5.440018 c 1.57997,-1.106662 1.72132,-3.263749 0.29264,-4.465907 -2.41243,-2.029929 -5.87509,0.844457 -4.21501,3.498924 0.84377,1.34919 2.71727,1.811065 3.92237,0.966983 z m -10.26189,-3.754252 c 2.00236,-1.053571 2.98979,-2.531512 3.12658,-4.679752 0.059,-0.926227 -0.0376,-2.12276 -0.21452,-2.658956 -0.75463,-2.286556 -3.16139,-3.919183 -5.74332,-3.895982 -5.37932,0.04834 -7.90369,6.598375 -3.98057,10.328434 1.85337,1.762151 4.51273,2.115957 6.81183,0.906256 z m -4.46598,-1.950519 c -1.40576,-0.711277 -2.29692,-2.387785 -2.05656,-3.868933 0.57707,-3.556064 5.1679,-4.419555 7.05363,-1.326716 1.96039,3.215296 -1.59826,6.915359 -4.99707,5.195649 z m 2.87897,-2.084377 c 1.12414,-1.124133 0.37742,-2.910417 -1.21662,-2.910417 -1.54735,0 -2.20733,1.668219 -1.11851,2.827219 0.70704,0.752602 1.63275,0.785585 2.33513,0.0832 z m 24.01944,4.352216 c 3.22972,-1.347073 4.61787,-5.016026 3.11725,-8.239051 -1.78422,-3.832154 -7.04368,-4.529444 -9.87149,-1.308748 -1.07852,1.228373 -1.4696,2.535452 -1.34484,4.494794 0.0825,1.296072 0.27623,1.87892 0.94976,2.857871 1.54946,2.252054 4.69629,3.218262 7.14932,2.195134 z m -3.24964,-1.900259 c -2.29468,-0.574542 -3.49014,-3.529875 -2.25039,-5.563229 1.92586,-3.158673 6.5744,-2.192857 7.06542,1.467966 0.34364,2.562053 -2.2223,4.744432 -4.81503,4.095263 z m 2.19906,-2.462265 c 1.11967,-1.043123 0.43532,-2.900109 -1.06875,-2.900109 -1.63236,0 -2.40107,1.771952 -1.26261,2.910417 0.67844,0.678434 1.59645,0.674375 2.33136,-0.01032 z m -10.26886,-2.393175 c 1.47613,-0.669213 2.28431,-1.408083 2.94112,-2.688899 2.05796,-4.013158 -0.82191,-8.747996 -5.32237,-8.750578 -4.47149,-0.0026 -7.36215,4.773469 -5.3104,8.774012 0.96509,1.881756 3.15783,3.205244 5.3104,3.205244 0.65485,0 1.72641,-0.242901 2.38125,-0.539779 z m -3.83645,-1.938763 c -1.38491,-0.61553 -2.06025,-1.587831 -2.19006,-3.153066 -0.0804,-0.969587 0.0146,-1.668997 0.30238,-2.225451 1.30415,-2.521929 5.36988,-2.544643 6.66651,-0.03724 0.63264,1.223407 0.41065,3.452971 -0.43515,4.370181 -1.21204,1.314392 -2.85114,1.708941 -4.34368,1.045578 z m 2.26028,-2.013818 c 1.28815,-0.689393 1.17034,-2.730503 -0.17711,-3.068693 -2.10798,-0.529069 -3.32787,1.981488 -1.48462,3.055379 0.59294,0.345451 1.03452,0.348988 1.66173,0.01331 z m 48.51326,32.44398 -0.89958,-0.899583 V 59.273277 39.773485 l 0.89958,-0.899583 0.89958,-0.899584 h 15.12085 c 13.20822,0 15.22222,0.05242 15.9223,0.414449 1.58177,0.817965 1.55366,0.443426 1.55204,20.677574 -0.001,12.143102 -0.0971,18.80753 -0.28082,19.469136 -0.1877,0.67595 -0.5561,1.174703 -1.123,1.520365 -0.80965,0.493678 -1.45533,0.514453 -16.01751,0.515403 l -15.17386,9.9e-4 z m 13.60157,-5.384271 0.0814,-1.124479 h -4.77772 -4.77771 v 1.196729 1.196732 l 4.69635,-0.07225 4.69636,-0.07225 z m 6.61458,0 0.0814,-1.124479 h -1.60271 -1.60272 v 1.203828 1.20383 l 1.52136,-0.07935 1.52135,-0.07935 z m 8.25302,0.06615 v -1.190625 h -1.5875 -1.5875 v 1.014236 c 0,0.557831 0.0794,1.093612 0.17639,1.190625 0.097,0.09701 0.81138,0.176389 1.5875,0.176389 h 1.41111 z m -8.85299,-5.031822 c 5.6129,-1.429485 9.88906,-6.135851 10.75352,-11.835365 1.33087,-8.774657 -6.12507,-16.849865 -15.00457,-16.250806 -12.28311,0.828686 -17.84428,15.585876 -9.1499,24.280259 2.74532,2.745314 6.04846,4.152956 9.82908,4.188677 1.09721,0.01037 2.70455,-0.161877 3.57187,-0.382765 z M 187.1197,67.23125 c -2.20936,-0.535821 -4.2063,-1.706629 -5.86179,-3.436789 -4.55166,-4.756957 -4.60535,-11.734038 -0.1275,-16.570648 5.20373,-5.620642 14.50348,-4.888227 18.72707,1.474872 2.62553,3.955534 2.68077,9.390269 0.13574,13.356344 -2.68659,4.186692 -8.05435,6.344973 -12.87352,5.176221 z m 6.39356,-4.452212 c 2.92224,-1.506316 4.48697,-4.066739 4.48697,-7.34222 0,-3.28718 -1.61915,-5.88187 -4.57679,-7.334308 -1.26325,-0.620358 -1.829,-0.734682 -3.61435,-0.730369 -1.77553,0.0043 -2.33446,0.119197 -3.46805,0.71297 -1.71311,0.897321 -3.63557,3.022926 -4.18052,4.62225 -1.39066,4.081372 0.74245,8.831339 4.66261,10.382607 1.96013,0.77565 4.842,0.641712 6.69013,-0.31093 z m -5.16109,-1.504014 c -2.90733,-0.88437 -4.70743,-3.450587 -4.4141,-6.292712 0.44601,-4.321384 4.82359,-6.763769 8.64915,-4.825619 2.99135,1.515517 4.12453,5.183693 2.51495,8.141031 -1.34885,2.47827 -4.22296,3.745989 -6.75,2.9773 z M 238.8893,79.38161 v -1.190625 h 5.42396 5.42396 v 1.190625 1.190625 h -5.42396 -5.42396 z m 17.99167,-9.789584 V 58.876402 h 6.48229 6.48229 v 10.715624 10.715625 h -6.48229 -6.48229 z M 28.545553,73.619011 v -4.086902 l 3.92162,-2.285146 c 2.15689,-1.256829 4.00236,-2.285145 4.10104,-2.285145 0.0987,0 0.17725,1.815703 0.17459,4.034896 l -0.005,4.034896 -3.84813,2.248958 c -2.11647,1.236927 -3.95976,2.288646 -4.09621,2.337152 -0.14748,0.05243 -0.24807,-1.569069 -0.24807,-3.998709 z m 14.49056,1.715265 -3.89798,-2.302666 -0.005,-4.034896 c -0.003,-2.219193 0.0705,-4.034896 0.16232,-4.034896 0.0918,0 1.93729,1.028941 4.10104,2.286534 l 3.93409,2.286532 v 4.063468 c 0,2.234907 -0.0893,4.05787 -0.19843,4.051028 -0.10914,-0.0069 -1.95253,-1.048639 -4.09642,-2.315104 z M 238.8893,68.037792 c 0,-6.635982 0.0724,-8.238288 0.41552,-9.19427 0.22854,-0.63676 0.49961,-1.633995 0.60238,-2.216079 l 0.18686,-1.058333 4.29241,-0.0727 4.29242,-0.0727 1.3e-4,0.601866 c 7e-5,0.331026 0.2382,1.228222 0.52916,1.993768 0.48832,1.284782 0.52904,2.033071 0.52904,9.723437 v 8.331536 h -5.42396 -5.42396 z M 35.431133,62.966569 c -3.00474,-0.841465 -5.56092,-3.102798 -6.65672,-5.888903 -0.53593,-1.362607 -0.60369,-2.072222 -0.70034,-7.334668 -0.0626,-3.406833 0.007,-6.444551 0.1683,-7.315441 0.62117,-3.360213 2.42945,-5.758108 5.47872,-7.26514 1.79184,-0.885571 2.1625,-0.97164 4.18454,-0.97164 1.91793,0 2.45131,0.108923 3.93636,0.803859 2.20898,1.033706 3.61761,2.320841 4.64078,4.240499 1.08119,2.02852 1.37336,4.039975 1.37336,9.454808 0,7.180133 -0.52665,9.14549 -3.16125,11.797075 -2.3866,2.401985 -6.04455,3.381076 -9.26375,2.479551 z M 256.88097,52.261818 v -4.497916 h 6.48229 6.48229 v 4.497916 4.497917 h -6.48229 -6.48229 z m -16.31173,-0.727604 c 0.33593,-3.562069 2.02936,-9.309894 3.32159,-11.274158 l 0.498,-0.756973 0.69261,1.181855 c 1.24272,2.120548 2.66289,7.109071 3.20163,11.246151 l 0.18089,1.389063 h -4.03157 -4.03158 z m 13.6659,-8.532812 v -2.38125 h 9.3927 9.39271 v 2.38125 2.38125 h -9.39271 -9.3927 z M 37.746473,8.1931356 c -0.39652,-0.215186 -0.84301,-0.61931 -0.99219,-0.898054 -0.17821,-0.333 -0.27123,-7.18908696 -0.27123,-19.9914296 v -19.484627 l 0.77339,-0.77339 0.7734,-0.7734 h 19.48462 c 12.85776,0 19.65775,0.0927 19.99366,0.27243 1.32582,0.70955 1.30826,0.42724 1.30826,21.039847 V 6.8064016 l -0.89958,0.899583 -0.89959,0.899583 -19.27489,-0.01058 c -16.49448,-0.0091 -19.3789,-0.06704 -19.99585,-0.401849 z m 8.99768,-2.379102 c 4.9007,-2.044022 5.01882,-9.048292 0.18994,-11.263439 -1.37613,-0.63127 -3.65096,-0.63127 -5.02708,0 -4.76242,2.184656 -4.76242,8.991957 0,11.176614 1.30287,0.597667 3.51707,0.63741 4.83714,0.08682 z m -4.11796,-2.131412 c -3.47123,-1.77084 -2.49759,-7.008058 1.38419,-7.445592 3.03559,-0.342153 5.29107,2.82571304 3.97961,5.589419 -0.91775,1.934011 -3.47591,2.819278 -5.3638,1.856173 z m 2.99701,-2.34107 c 0.35719,-0.35718796 0.64943,-0.91505896 0.64943,-1.23971596 0,-0.7924 -1.00173,-1.81501804 -1.77794,-1.81501804 -0.77559,0 -1.92623,1.10635004 -1.92623,1.85208404 0,0.713845 1.13824,1.85208296 1.85209,1.85208296 0.30427,0 0.84546,-0.292246 1.20265,-0.649433 z m 14.35012,4.472482 c 1.30065,-0.542488 2.65229,-1.853665 3.25914,-3.161591 0.64046,-1.38036 0.64046,-3.64672296 0,-5.027083 -2.1185,-4.565917 -8.61442,-4.828535 -10.96702,-0.443378 -2.22709,4.151233 0.64646,9.042336 5.31243,9.042336 0.77647,0 1.85442,-0.184629 2.39545,-0.410284 z m -4.17982,-2.196287 c -2.83066,-1.504215 -2.8252,-5.56001 0.009,-6.984164 1.98149,-0.995538 4.1807,-0.296768 5.21365,1.656574 0.7466,1.41184404 0.75582,2.15747404 0.0448,3.626141 -0.95702,1.976943 -3.31581,2.738792 -5.26791,1.701449 z m 3.05886,-2.276195 c 0.35719,-0.35718796 0.64944,-0.89837996 0.64944,-1.20264996 0,-0.730057 -1.14448,-1.85208404 -1.88915,-1.85208404 -0.80777,0 -1.81502,1.00724004 -1.81502,1.81500504 0,0.856073 0.97227,1.88916196 1.77794,1.88916196 0.34505,0 0.91961,-0.292246 1.27679,-0.649433 z m 14.21783,4.525986 c 1.38025,-0.578395 2.60375,-1.778095 3.26787,-3.204281 1.05574,-2.26717196 0.72532,-4.605552 -0.92283,-6.531049 -1.21618,-1.420829 -2.66283,-2.065552 -4.65125,-2.072913 -2.88964,-0.01069 -5.04808,1.630847 -5.87927,4.471302 -1.11416,3.807468 1.81186,7.68476 5.80423,7.69124 0.84142,0.0013 1.91298,-0.15807 2.38125,-0.354299 z m -4.03812,-2.208474 c -3.66462,-1.900251 -2.26674,-7.486714 1.87383,-7.488502 1.06512,-5.29e-4 2.40943,0.794665 3.24068,1.916776 0.7331,0.98962104 0.73724,3.110011 0.008,4.086778 -1.32163,1.770174 -3.40675,2.374625 -5.12249,1.484948 z m 2.91993,-2.156016 c 1.26735,-1.02623096 0.4266,-3.21623 -1.23472,-3.21623 -0.87185,0 -1.69048,0.89688804 -1.69048,1.85208404 0,1.58570796 1.68257,2.37036496 2.9252,1.36414596 z m -25.20785,-8.389014 c 3.28281,-1.369221 4.69992,-5.2761986 3.08742,-8.5120606 -2.21315,-4.441222 -8.60095,-4.457163 -10.80861,-0.02697 -2.07412,4.162216 0.76932,8.9245036 5.33994,8.9435086 0.76866,0.0032 1.84022,-0.178819 2.38125,-0.404474 z m -4.06358,-2.240669 c -1.97745,-0.9788386 -2.76188,-3.3655496 -1.73887,-5.2906736 1.50422,-2.830658 5.56001,-2.8252 6.98416,0.0094 1.00724,2.004769 0.0898,4.5845216 -1.91574,5.3869846 -1.40003,0.560181 -2.02436,0.540359 -3.32955,-0.105711 z m 2.94263,-2.2318126 c 0.8024,-0.802397 0.82783,-1.640107 0.0741,-2.442369 -0.72214,-0.768683 -1.72207,-0.783415 -2.51651,-0.03708 -0.79184,0.743897 -0.77808,1.6643 0.0371,2.479447 0.82407,0.824077 1.58122,0.824077 2.4053,0 z m 15.28371,3.9168386 c 2.98398,-2.097215 3.71787,-5.6674516 1.7696,-8.6087956 -2.56266,-3.868909 -8.56431,-3.458977 -10.58889,0.723255 -1.50304,3.104864 -0.0372,6.9974796 3.18084,8.4468596 1.50217,0.676566 4.26908,0.401116 5.63845,-0.561319 z m -5.09979,-1.746052 c -2.73801,-1.4039816 -2.854,-5.1701276 -0.21035,-6.8301676 1.12525,-0.706578 3.20471,-0.593741 4.37169,0.237222 1.03882,0.739704 1.77695,2.592155 1.53877,3.861766 -0.32057,1.708785 -2.22946,3.3264926 -3.92525,3.3264926 -0.33764,0 -1.13632,-0.267891 -1.77486,-0.595313 z m 3.04524,-2.1707866 c 0.79339,-0.793388 0.8212,-1.442093 0.10107,-2.357594 -0.3693,-0.46949 -0.8013,-0.69714 -1.32292,-0.69714 -1.71437,0 -2.47187,2.1048 -1.13574,3.155797 0.9155,0.720135 1.56421,0.692327 2.35759,-0.101063 z m 14.40777,4.3313666 c 1.60013,-0.725432 2.33172,-1.444006 3.07514,-3.0204756 1.8898,-4.007405 -1.01455,-8.637463 -5.43486,-8.664151 -5.26045,-0.03176 -8.1272,5.753875 -4.92878,9.9472186 1.58618,2.079583 4.82877,2.852542 7.2885,1.737408 z m -4.23746,-2.055172 c -3.58074,-1.9028096 -2.29513,-7.4428616 1.72805,-7.4466056 2.38606,-0.0021 4.34941,2.219378 3.96615,4.487847 -0.45309,2.6818216 -3.36654,4.1956776 -5.6942,2.9587586 z m 2.92933,-2.1146986 c 1.23384,-0.999103 0.46581,-3.21623 -1.11413,-3.21623 -1.69488,0 -2.44049,2.11233 -1.11393,3.155797 0.86045,0.676828 1.44719,0.692743 2.22806,0.06043 z m -25.64192,-8.285795 c 0.56369,-0.168883 1.51641,-0.727786 2.11716,-1.242004 2.90446,-2.486112 2.78107,-7.160194 -0.25018,-9.476944 -4.065,-3.10683 -9.84193,-0.28119 -9.84193,4.813919 0,2.618566 1.16925,4.445675 3.57188,5.581516 1.4587,0.689602 2.84195,0.791236 4.40307,0.323513 z m -3.35786,-2.16794 c -2.36092,-1.068797 -3.20284,-4.161787 -1.66502,-6.116818 2.29754,-2.92084 7.10007,-1.20761 7.10169,2.533426 10e-4,2.543569 -3.14826,4.61936 -5.43667,3.583392 z m 2.85739,-2.604381 c 0.99631,-1.152239 0.16724,-2.858117 -1.38906,-2.858117 -0.91798,0 -1.85209,0.809438 -1.85209,1.604897 0,1.844294 2.04601,2.635403 3.24115,1.25322 z m 14.37239,4.449474 c 5.32803,-2.480979 4.42897,-10.272641 -1.33416,-11.562371 -3.69927,-0.82786 -7.30508,2.08099 -7.33959,5.920947 -0.041,4.568928 4.55599,7.558852 8.67375,5.641424 z m -4.3565,-2.068454 c -3.67692,-1.967286 -2.32171,-7.351417 1.85123,-7.354807 2.29641,-0.002 4.08688,1.94739 3.8546,4.19642 -0.29862,2.891322 -3.20161,4.498234 -5.70583,3.158387 z m 3.21328,-2.369312 c 0.60824,-0.718812 0.58458,-1.321001 -0.0854,-2.172682 -0.67092,-0.852933 -1.86529,-0.929313 -2.62663,-0.167973 -0.72241,0.722405 -0.66426,1.741043 0.1456,2.550909 0.78293,0.782928 1.79622,0.699913 2.56638,-0.210254 z m 14.92148,4.119242 c 2.36795,-1.463995 3.46727,-4.265565 2.74322,-6.990987 -0.44608,-1.67914 -2.60706,-3.76005 -4.36419,-4.2025 -4.63036,-1.16594 -8.78191,3.1099 -7.45365,7.676773 0.48765,1.676656 2.16406,3.493571 3.77293,4.089143 1.61317,0.597167 3.79008,0.362122 5.30169,-0.572429 z m -4.86185,-1.687824 c -1.61041,-0.731041 -2.24285,-1.863268 -2.11887,-3.793332 0.0867,-1.34898 0.21493,-1.651131 1.05948,-2.495681 0.84455,-0.84456 1.1467,-0.97283 2.49569,-1.05948 1.21416,-0.078 1.7182,0.0165 2.41269,0.45222 1.16712,0.73228 2.00145,2.594134 1.77175,3.953736 -0.229,1.355449 -1.50609,2.847644 -2.72746,3.186856 -1.32417,0.367765 -1.59536,0.344865 -2.89328,-0.244319 z m 2.4003,-1.890832 c 1.74616,-0.795605 1.20475,-3.410411 -0.70615,-3.410411 -1.74636,0 -2.44766,2.071048 -1.06862,3.1558 0.80641,0.634323 0.90907,0.649052 1.77477,0.254611 z M 105.01013,8.5127576 c 0,-0.05104 0.11324,-0.437997 0.25165,-0.859896 0.1384,-0.421897 0.38163,-1.275006 0.5405,-1.895795 l 0.28886,-1.128713 7.18138,0.07038 7.18138,0.07038 0.30312,1.190625 c 0.16672,0.654844 0.38507,1.518047 0.48524,1.918229 l 0.18212,0.727604 h -8.20713 c -4.51391,0 -8.20712,-0.04176 -8.20712,-0.09281 z m 22.48958,-0.0771 c 0,-0.09345 0.2438,-0.988523 0.54177,-1.989051 l 0.54176,-1.819137 6.36736,0.07082 6.36737,0.07082 0.49531,1.5875 c 0.27242,0.873125 0.49706,1.736328 0.4992,1.918229 0.003,0.256802 -1.65208,0.330729 -7.40443,0.330729 -4.07459,0 -7.40834,-0.07646 -7.40834,-0.169912 z m 67.7498,-0.4254 c -0.13023,-0.327422 -0.37988,-1.155875 -0.55478,-1.841008 -0.35451,-1.388719 -1.7446,-3.183252 -2.94779,-3.805447 -1.87192,-0.968009 -4.89505,-0.940432 -7.01165,0.06396 -1.83054,0.868651 -2.44736,-0.408427 -1.17006,-2.42252496 0.92462,-1.45797104 1.45519,-3.66182304 1.20396,-5.00095604 -0.30139,-1.606566 -1.52347,-3.201265 -3.2072,-4.185116 -1.30019,-0.759727 -1.54248,-1.0180366 -1.54248,-1.6444216 0,-0.680807 0.14808,-0.792991 1.7661,-1.337932 4.48557,-1.51072 5.11019,-2.697273 4.31469,-8.196339 -0.2438,-1.685253 -0.37599,-3.239402 -0.29377,-3.453667 0.28067,-0.731404 1.28128,-0.390721 2.72333,0.927237 2.58389,2.361528 6.87027,3.102346 9.87819,1.707256 1.58903,-0.737005 3.00519,-1.952204 3.60124,-3.090209 0.40759,-0.778192 1.33422,-0.977979 1.90209,-0.410104 0.18008,0.180078 0.3215,1.067594 0.32673,2.050521 0.0122,2.291538 0.61771,5.602316 1.20707,6.600018 0.61717,1.0448 2.42771,1.812128 4.75805,2.016516 2.82526,0.247796 3.02149,0.316159 3.02149,1.052651 0,0.460793 -0.64749,1.303385 -2.22403,2.894187 -2.67265,2.6968306 -3.74037,4.6025086 -3.47123,6.1955036 0.19693,1.165654 1.51566,4.11156404 1.96478,4.38913304 0.42218,0.260925 0.35654,1.35219296 -0.10434,1.73469296 -0.3161,0.262337 -0.82048,0.242332 -2.51892,-0.09989 -1.16802,-0.235352 -2.81218,-0.427913 -3.65368,-0.427913 -1.28356,0 -1.70375,0.127775 -2.6087,0.793284 -1.64285,1.208167 -3.25888,3.554161 -3.25888,4.730927 0,1.232408 -1.67168,1.837053 -2.10021,0.759643 z m 2.62553,-5.862204 c 1.05244,-1.09601 2.1083,-1.90178996 2.98775,-2.28012296 1.22391,-0.526511 1.56656,-0.561065 3.42144,-0.34503 1.13373,0.13204 2.06132,0.231235 2.06132,0.220432 0,-0.0108 -0.25004,-0.729893 -0.55564,-1.59797504 -1.00675,-2.859759 -0.40267,-5.182015 2.12591,-8.1725316 0.72552,-0.858067 1.26697,-1.644525 1.20321,-1.747687 -0.0638,-0.103158 -0.60573,-0.265887 -1.2044,-0.361616 -3.1836,-0.509077 -4.8767,-2.551674 -5.56381,-6.712328 l -0.31332,-1.897206 -0.69025,0.485026 c -1.16266,0.816991 -2.3142,1.331651 -3.90885,1.747004 -1.96108,0.510797 -5.38404,0.140436 -7.46284,-0.807474 -0.78158,-0.356385 -1.43642,-0.647551 -1.45521,-0.647033 -0.0188,5.29e-4 -0.0342,1.161378 -0.0342,2.579688 0,3.367709 -0.42896,4.256058 -2.83041,5.861582 l -1.74429,1.166166 0.8904,0.9168206 c 1.46097,1.504313 2.0968,3.086463 2.0968,5.21751 0,1.018645 -0.0964,2.268802 -0.21412,2.778125 l -0.21413,0.92604104 1.93392,0.01252 c 1.1165,0.0072 2.51215,0.208963 3.30195,0.477301 1.46367,0.497284 3.43173,2.04804396 4.03886,3.18246596 0.20409,0.381344 0.40058,0.693351 0.43666,0.693351 0.0361,0 0.79803,-0.762756 1.69323,-1.695016 z m -4.6808,-4.427445 c -2.24071,-1.087024 -4.04661,-3.904334 -4.04661,-6.312955 0,-1.6150806 0.82219,-3.4932226 2.07973,-4.7507626 3.45128,-3.451278 8.92931,-2.583022 11.04994,1.75139 2.3106,4.7227066 -0.96754,9.8953376 -6.2505,9.8627676 -1.17344,-0.0072 -2.0733,-0.1821 -2.83256,-0.55044 z m 44.63673,-1.285872 V -15.736096 h 18.12396 18.12396 v 12.1708326 12.170833 h -18.12396 -18.12396 z m 9.525,1.629823 c 0,-5.267812 -0.37783,-7.736359 -1.52693,-9.9761836 l -0.4992,-0.973039 -0.57243,1.330653 c -1.10144,2.5603616 -1.36215,4.4002846 -1.36628,9.6423926 l -0.004,4.960937 h 1.98437 1.98438 z m 7.07954,-0.637636 c -0.10836,-5.214543 -0.16641,-5.760682 -0.80025,-7.5287126 -0.37588,-1.048472 -0.80302,-2.120035 -0.9492,-2.38125 -0.23733,-0.424069 -0.29912,-0.389924 -0.5769,0.318818 -1.44208,3.6793796 -1.40479,3.4467446 -1.51624,9.4588536 l -0.10668,5.754687 h 2.03305 2.03306 z m 7.14108,0.132292 c -0.13053,-5.648761 -0.29135,-6.646696 -1.50964,-9.3678556 l -0.50828,-1.135263 -0.56491,1.315884 c -1.13467,2.6430256 -1.31904,3.9627066 -1.31904,9.4412616 v 5.236077 h 2.01436 2.01437 z m 7.01363,0.08454 c -0.0591,-4.937585 -0.12206,-5.585176 -0.72666,-7.474672 -0.36407,-1.1377976 -0.78143,-2.2473176 -0.92747,-2.4655986 -0.36964,-0.552463 -0.62067,-0.132006 -1.50072,2.5135416 -0.64926,1.95177 -0.71031,2.51656 -0.78374,7.249816 -0.0438,2.82323104 -0.0171,5.234247 0.0592,5.357812 0.0764,0.123566 0.99503,0.224751 2.04146,0.224856 l 1.90262,1.94e-4 z M 105.5332,2.1894216 c -0.003,-0.181901 -0.0331,-4.825317 -0.0661,-10.318699 l -0.0601,-9.9879726 7.87135,-4.8e-5 7.87135,-5e-5 v 10.3187496 10.31875 h -7.8052 c -6.06453,0 -7.80657,-0.07376 -7.81131,-0.33073 z m 22.49568,-8.268229 v -8.5989576 h 6.87917 6.87916 v 8.5989576 8.598959 h -6.87916 -6.87917 z m 45.37166,-8.5368626 c -0.14794,-0.106913 -0.41997,-0.777142 -0.60453,-1.489395 -0.18455,-0.712256 -0.568,-1.621449 -0.85209,-2.020427 -0.67847,-0.952823 -2.43749,-1.640515 -3.91993,-1.532507 -0.90713,0.06609 -1.23956,-0.02291 -1.46778,-0.393004 -0.24426,-0.396097 -0.17229,-0.568859 0.41812,-1.003736 2.29458,-1.690098 2.34193,-4.192363 0.12355,-6.529516 -0.66663,-0.70234 -0.76877,-0.95477 -0.53523,-1.32292 0.2196,-0.34618 0.57621,-0.43393 1.49149,-0.36697 0.66158,0.0484 1.46163,-0.0505 1.77788,-0.21974 0.78643,-0.42088 1.31955,-1.81781 1.35978,-3.56302 0.043,-1.86603 0.48924,-2.31423 1.49774,-1.50438 2.55268,2.04984 3.79046,2.4531 5.83766,1.90184 0.66852,-0.18001 1.62762,-0.75423 2.3093,-1.38257 0.93606,-0.86284 1.23986,-1.01331 1.54109,-0.76331 0.28279,0.2347 0.31556,0.51933 0.13304,1.15575 -0.35647,1.24292 -0.2947,3.51723 0.12265,4.51609 0.46871,1.12179 1.54531,1.96068 2.97983,2.321894 1.71555,0.431977 1.92736,0.864158 0.85588,1.746295 -3.23175,2.660658 -4.10679,4.308464 -3.27155,6.160712 0.66473,1.474105 0.33415,1.780214 -1.47225,1.363247 -0.74205,-0.171286 -2.08424,-0.311243 -2.98264,-0.311018 -2.23629,5.29e-4 -3.32018,0.579488 -4.08596,2.182402 -0.60684,1.270215 -0.76897,1.406301 -1.25605,1.054283 z m 5.50431,-7.012657 c 1.27676,-0.973828 1.86631,-2.336464 1.71085,-3.954304 -0.14026,-1.459735 -0.73872,-2.422604 -2.07573,-3.339664 -0.75573,-0.51836 -1.15976,-0.60262 -2.49562,-0.52043 -1.66316,0.10232 -2.49845,0.53145 -3.42474,1.75946 -0.5287,0.700909 -0.83693,2.778971 -0.56996,3.842635 0.22921,0.91327 1.43845,2.283426 2.40049,2.719949 1.24434,0.56461 3.36588,0.322847 4.45471,-0.507646 z m -50.75535,3.312541 c 0.57522,-4.819049 2.83297,-9.333379 5.63603,-11.269099 l 1.08882,-0.75191 1.2096,0.83224 c 2.82963,1.94683 5.08602,6.370709 5.57413,10.928626 l 0.19078,1.781497 h -6.94048 -6.94047 z m 107.03564,-1.521354 v -1.719792 h 20.90208 20.90208 v 1.719792 1.719792 h -20.90208 -20.90208 z m -128.94108,-2.050521 c 0.22641,-0.763984 0.84725,-2.817812 1.37965,-4.564062 l 0.96799,-3.175002 4.63269,-0.072 4.6327,-0.072 1.28849,4.305343 c 0.70867,2.367939 1.34319,4.454173 1.41004,4.636074 0.0954,0.259612 -1.4745,0.33073 -7.30084,0.33073 h -7.42238 z m 136.62608,-2.16825 c -0.17451,-0.210269 -0.27839,-0.656754 -0.23083,-0.992187 0.074,-0.522171 0.2767,-0.628899 1.40937,-0.742167 l 1.32291,-0.132292 0.0791,-1.984068 c 0.0435,-1.09123 0.17595,-2.08095 0.29436,-2.19936 0.11841,-0.11841 4.77815,-0.20886 10.35497,-0.201 7.8473,0.0111 10.18747,0.0896 10.35107,0.34728 0.11627,0.18314 0.21322,1.19618 0.21545,2.25121 l 0.004,1.91823 h 1.15822 c 1.43853,0 1.9683,0.505867 1.53218,1.463043 -0.27724,0.608475 -0.43162,0.653624 -2.23494,0.653624 -1.15388,0 -2.06551,-0.128376 -2.25463,-0.3175 -0.18896,-0.188955 -0.3175,-1.099492 -0.3175,-2.248959 v -1.931458 h -8.46667 -8.46666 v 1.737185 c 0,2.582961 -0.16037,2.760732 -2.49046,2.760732 -1.37115,0 -2.03601,-0.112475 -2.25996,-0.382313 z M 51.987683,-60.276915 c -2.87045,-2.11886 -2.88095,-2.13064 -2.24896,-2.52374 1.28097,-0.79678 3.34799,-3.20715 4.29383,-5.00709 1.1029,-2.09882 1.20305,-2.6971 0.45147,-2.6971 -0.28592,0 -0.6473,-0.23813 -0.80306,-0.52917 -0.1832,-0.34231 -0.55399,-0.52917 -1.05006,-0.52917 -0.6399,0 -0.78073,0.12047 -0.85059,0.72761 -0.0461,0.40018 -0.20278,0.71527 -0.3483,0.70019 -0.14553,-0.0151 -4.1636,-0.61038 -8.92906,-1.32291 l -8.66448,-1.29551 -6.3e-4,-1.38906 -6.3e-4,-1.38907 h -4.10104 -4.10104 v -1.04076 c 0,-0.93869 0.0714,-1.04897 0.7276,-1.12448 0.72518,-0.0834 0.72786,-0.0914 0.80406,-2.39882 0.0723,-2.19072 0.10787,-2.31489 0.66145,-2.31116 0.48602,0.003 0.74433,0.39504 1.5265,2.3151 l 0.94148,2.31117 h 1.70435 c 1.66261,0 1.7064,-0.0178 1.78807,-0.72761 l 0.0837,-0.7276 h 8.97826 8.97826 v 0.66145 c 0,0.60757 0.097,0.66146 1.19063,0.66146 0.8349,0 1.19062,-0.10889 1.19062,-0.36448 0,-0.20046 0.17859,-0.51269 0.39688,-0.69385 0.21828,-0.18116 0.39687,-0.61837 0.39687,-0.97158 0,-0.95967 0.7094,-2.14785 1.52583,-2.55566 0.39772,-0.19865 3.14193,-0.75555 6.09825,-1.23754 6.17731,-1.00713 6.92756,-0.95929 7.91129,0.50443 0.45432,0.67599 0.60421,1.2751 0.60421,2.415 0,1.02475 0.1286,1.6227 0.39688,1.84535 0.21828,0.18116 0.39687,0.55292 0.39687,0.82615 0,0.40193 0.19906,0.49677 1.04272,0.49677 0.5735,0 1.11631,-0.11907 1.20624,-0.26459 0.25816,-0.4177 14.81753,-0.35406 15.13046,0.0662 0.14178,0.19038 0.19982,2.61247 0.13676,5.70756 -0.12404,6.08803 -0.11466,6.06482 -2.06613,5.11673 -1.1577,-0.56245 -1.16255,-0.57069 -1.16255,-1.97556 v -1.41074 l -6.01927,-1.58394 -6.01927,-1.58395 -0.0821,-0.9775 c -0.0796,-0.94763 -0.11396,-0.9775 -1.12448,-0.9775 h -1.04236 v 1.64357 c 0,1.59087 0.0812,1.78608 2.53223,6.08915 1.39272,2.44507 2.49272,4.65067 2.44445,4.90133 -0.059,0.30622 -0.97464,0.7946 -2.79107,1.48863 -2.18996,0.83674 -2.77761,0.97122 -3.09457,0.70816 -0.34526,-0.28653 -0.345,-0.44037 0.002,-1.30802 l 0.39344,-0.9833 -1.72292,-3.27519 c -0.9476,-1.80135 -1.83805,-3.39032 -1.97877,-3.53105 -0.23067,-0.23066 -4.31075,0.14302 -5.62319,0.515 -0.27344,0.0775 -0.66946,0.81139 -1.02525,1.89994 -1.18048,3.61176 -3.55101,7.38591 -5.48778,8.73719 l -0.7143,0.4984 z m 17.03912,-20.2497 c 0,-0.7638 -0.14652,-1.41212 -0.35898,-1.58845 -0.26993,-0.22402 -1.65682,-0.0874 -5.59131,0.55073 -5.07568,0.82325 -5.95596,1.1115 -5.95596,1.95026 0,0.31638 0.97014,0.37798 5.95312,0.37798 h 5.95313 z m 66.013537,22.20476 c -1.31846,-0.54535 -1.70597,-1.37881 -2.10532,-4.52819 -0.21093,-1.66353 -0.46479,-3.59014 -0.56413,-4.28137 l -0.1806,-1.25677 h -2.37061 c -1.74477,0 -2.56919,-0.1173 -3.12282,-0.44434 -0.91584,-0.541 -2.02171,-2.49744 -2.26237,-4.00248 l -0.17741,-1.10943 h -3.82003 c -2.23085,0 -4.0423,-0.11895 -4.35431,-0.28593 -0.65722,-0.35173 -1.53268,-2.21317 -1.54541,-3.28594 -0.005,-0.43656 -0.0807,-1.05959 -0.16777,-1.38451 -0.15775,-0.58852 -0.18298,-0.59102 -6.67712,-0.66146 l -6.51877,-0.0707 v -0.66146 -0.66145 l 6.28386,-0.0709 6.28385,-0.0709 v -0.92126 -0.92125 h -6.35 -6.35 v -3.04271 -3.04271 h 2.08303 c 1.49735,0 2.41436,0.14656 3.26142,0.52126 1.09652,0.48504 1.86621,0.52473 11.07998,0.57135 8.35153,0.0423 9.90719,-0.008 9.93724,-0.32281 0.0196,-0.20511 0.0494,-0.52175 0.0661,-0.70365 0.0216,-0.23423 0.64301,-0.33073 2.12962,-0.33073 2.07703,0 2.09997,0.007 2.18281,0.70598 0.068,0.57319 0.22726,0.71199 0.84683,0.7379 0.5377,0.0225 1.01428,0.33107 1.61338,1.04467 0.7802,0.92931 0.90263,0.98583 1.48584,0.68603 0.34957,-0.1797 1.07989,-0.7514 1.62292,-1.27044 1.89942,-1.81551 1.6413,0.081 -0.29393,2.15957 l -1.26642,1.36025 0.90247,2.77812 0.90246,2.77813 1.62998,0.79375 c 1.57143,0.76524 1.65596,0.85851 2.35359,2.59701 1.58575,3.95171 4.70639,13.20451 4.70639,13.95461 0,1.07032 -0.7138,2.0951 -1.76537,2.53448 -0.96869,0.40474 -8.55326,0.49144 -9.47942,0.10835 z m -3.41355,-12.77831 c -0.0948,-0.47294 -0.24398,-1.30638 -0.33147,-1.85208 l -0.15907,-0.99219 h -2.47973 c -2.7676,0 -2.80276,0.0305 -2.07248,1.79444 0.6317,1.52587 1.29381,1.89705 3.39614,1.90385 l 1.81901,0.006 -0.1724,-0.8599 z m -2.14,-5.0773 c 1.55951,-0.6516 1.97954,-1.69873 1.98069,-4.93774 7.9e-4,-2.48385 -0.0683,-2.90811 -0.60349,-3.70416 -0.8944,-1.33023 -1.80059,-1.52222 -6.94826,-1.4721 -5.05989,0.0493 -5.65835,0.22881 -6.35999,1.90807 -0.55782,1.33506 -0.50231,5.5518 0.0887,6.7348 0.79924,1.59989 1.69805,1.8512 6.62267,1.85167 3.15153,2.6e-4 4.55273,-0.10185 5.21972,-0.38054 z m -10.01277,-1.91211 c -0.097,-0.097 -0.17639,-0.62961 -0.17639,-1.18355 v -1.00716 l 3.90261,-0.0732 3.9026,-0.0732 v -0.66146 -0.66145 l -3.91747,-0.0733 -3.91746,-0.0733 0.081,-1.11732 0.081,-1.11732 4.76139,-0.0725 c 5.66723,-0.0863 5.42507,-0.2225 5.42507,3.0509 0,3.41424 0.28386,3.23932 -5.25688,3.23932 -2.59,0 -4.78847,-0.0794 -4.88548,-0.17639 z m 78.20054,19.7984 c -0.18514,-0.1175 -0.80883,-2.3481 -1.38596,-4.95689 -0.57714,-2.60878 -1.11254,-5.01113 -1.18978,-5.33855 -0.1347,-0.571 -0.25476,-0.59532 -2.93968,-0.59532 -4.41687,0 -5.2193,-0.61539 -6.0665,-4.6524 l -0.46729,-2.22676 h -6.59969 -6.59969 l -0.89959,-0.89959 c -0.49477,-0.49477 -0.89958,-1.15105 -0.89958,-1.45841 v -0.55882 l 19.17078,0.01 c 11.74753,0.006 19.23065,0.10671 19.3254,0.26002 0.33312,0.539 -0.7053,1.86686 -1.9553,2.50028 -1.4103,0.71466 -2.58292,1.93977 -2.84105,2.96823 -0.19886,0.79233 0.56453,3.97316 2.32273,9.67814 1.40166,4.54812 1.48987,5.09166 0.86517,5.33137 -0.6268,0.24053 -9.45105,0.1857 -9.83997,-0.0611 z m -3.3904,-13.96221 c -0.0985,-0.52513 -0.31484,-1.56693 -0.48071,-2.31511 l -0.30158,-1.36031 -2.84589,-0.0752 -2.84588,-0.0752 0.16631,0.6626 c 0.0915,0.36443 0.30536,1.28883 0.47533,2.05423 0.39344,1.77172 0.91772,2.05467 3.81673,2.05982 l 2.19481,0.004 -0.17912,-0.95479 z m 80.85306,12.70917 c -3.81704,-0.91583 -5.14409,-1.34882 -6.02701,-1.96649 -1.11375,-0.77915 -1.18725,-0.79206 -4.508,-0.79206 -4.46701,0 -5.31593,-0.37915 -6.66291,-2.97584 l -0.92604,-1.78522 -1.71979,-5.3e-4 -1.71979,-5.3e-4 0.0895,-1.29102 c 0.0581,-0.83823 -0.064,-1.58796 -0.34831,-2.13767 -0.75079,-1.45194 -1.51679,-1.59877 -8.34017,-1.59877 -6.77285,0 -7.59829,0.15463 -8.40652,1.57483 l -0.45702,0.80307 -2.57969,0.002 -2.57969,0.002 v -1.85208 -1.85208 l 16.60261,0.006 c 19.23786,0.007 17.6905,-0.20884 20.40221,2.84232 2.43238,2.73702 3.11616,2.97286 8.61871,2.97286 h 4.38272 v 4.63021 c 0,4.24015 -0.039,4.6287 -0.46302,4.61233 -0.25466,-0.01 -2.66567,-0.54638 -5.35781,-1.19232 z m -9.26042,-5.27133 c 0,-0.0723 -0.43057,-0.60812 -0.95683,-1.19062 l -0.95682,-1.0591 h -2.21818 c -1.21999,0 -2.21817,0.0674 -2.21817,0.14969 0,0.2603 0.58138,1.28742 1.00105,1.76854 0.33071,0.37913 0.85187,0.46302 2.87642,0.46302 1.35989,0 2.47253,-0.0592 2.47253,-0.13153 z m -27.78125,-2.24972 c -0.63875,-0.63875 -0.69579,-2.02561 -0.11729,-2.85154 0.40676,-0.58072 0.49334,-0.58804 6.95854,-0.58804 4.73908,0 6.63433,0.0877 6.86417,0.3175 0.17462,0.17462 0.3175,0.94434 0.3175,1.71048 0,1.10641 -0.10528,1.44933 -0.51177,1.66688 -0.31125,0.16657 -2.95484,0.27389 -6.74688,0.27389 -5.88232,0 -6.26504,-0.0299 -6.76427,-0.52917 z m -67.46875,-15.76917 c 0,-2.53585 0.002,-2.54147 0.89958,-3.43958 l 0.89959,-0.89958 h 17.23751 c 18.91312,0 18.35076,-0.0463 19.19113,1.57884 0.26694,0.51619 0.40136,1.53374 0.40136,3.03823 v 2.26209 H 189.94138 170.6268 Z M 70.349713,-102.7836 c 0,-0.5286 0.1546,-0.52959 83.098567,-0.52959 78.99908,0 83.09417,0.0228 83.0094,0.46302 -0.0847,0.43963 -4.28263,0.46639 -83.09857,0.52959 -82.876947,0.0665 -83.009397,0.0657 -83.009397,-0.46302 z m 65.881247,-2.54631 c -0.21828,-0.0848 -0.84461,-0.3789 -1.39185,-0.65347 -0.9811,-0.49226 -1.00232,-0.49188 -1.52135,0.0272 -0.58841,0.58841 -0.75596,0.62413 -1.30323,0.27784 -0.32537,-0.20589 -0.31047,-0.39457 0.10369,-1.313 0.44296,-0.98232 0.47257,-1.70636 0.35191,-8.60537 -0.11551,-6.60539 -0.0818,-7.55196 0.27403,-7.6885 0.86828,-0.33319 1.09438,0.45287 1.27526,4.43357 0.0974,2.14326 0.20449,3.89684 0.23802,3.89684 0.0335,0 0.40198,-0.17786 0.8188,-0.39525 0.42886,-0.22366 1.45764,-0.39595 2.36988,-0.39687 3.29487,-0.003 5.13484,1.86353 5.13484,5.2099 0,3.09306 -1.66987,5.02624 -4.53534,5.25047 -0.77978,0.061 -1.59637,0.0415 -1.81466,-0.0433 z m 2.7422,-1.78767 c 1.39585,-0.58323 2.0203,-1.58958 2.0203,-3.25589 0,-2.50107 -1.16745,-3.78763 -3.43698,-3.78763 -1.44035,0 -3.12091,0.87265 -3.33676,1.73265 -0.30853,1.2293 0.0225,3.7626 0.5722,4.379 1.07075,1.20063 2.67976,1.55923 4.18124,0.93187 z m -64.561317,1.25699 c -0.60348,-0.21393 -1.5424,-0.82129 -2.08648,-1.34969 -3.43043,-3.33159 -2.6349,-9.48894 1.49166,-11.54529 1.8605,-0.92713 4.12375,-0.96114 5.84866,-0.0879 1.03572,0.52435 1.23803,0.55466 1.45079,0.21738 0.1461,-0.23162 0.42973,-0.32192 0.69336,-0.22075 0.64449,0.24731 0.61874,2.19347 -0.0336,2.54262 -0.50027,0.26773 -0.68822,0.19378 -2.45192,-0.96477 -1.2174,-0.79969 -3.60062,-0.8251 -4.97433,-0.053 -3.52511,1.98122 -3.36663,8.04627 0.25924,9.92129 0.40774,0.21084 1.45249,0.38336 2.32168,0.38336 1.31024,0 1.71814,-0.11596 2.38665,-0.67847 1.20517,-1.01408 1.81568,-3.55487 0.85418,-3.55487 -0.27322,0 -0.64994,-0.18457 -0.83716,-0.41015 -0.61357,-0.7393 0.18182,-1.13947 1.95081,-0.98147 1.63926,0.14642 2.22451,0.66539 1.41658,1.25616 -0.23857,0.17445 -0.56451,0.92679 -0.7243,1.67186 -0.3914,1.82504 -1.20874,2.97409 -2.62412,3.68912 -1.37474,0.6945 -3.26882,0.75758 -4.94166,0.16458 z m 12.63213,0.0961 c -0.34977,-0.17976 -0.88556,-0.66266 -1.19063,-1.07311 -0.50603,-0.68085 -0.55467,-1.09844 -0.55467,-4.7625 v -4.01622 h 0.66146 0.66146 l 0.13229,3.92656 c 0.12564,3.72913 0.1637,3.95197 0.75692,4.43177 0.8329,0.67367 1.51672,0.63688 2.27605,-0.12245 0.83092,-0.83093 1.15533,-2.10906 1.36724,-5.38678 0.18215,-2.81737 0.51531,-3.62294 1.24717,-3.01556 0.25485,0.21151 0.40659,1.4753 0.53516,4.45693 0.0987,2.28895 0.29581,4.27809 0.43803,4.42031 0.33703,0.33703 0.33207,1.13445 -0.008,1.34485 -0.43865,0.2711 -1.28165,-0.12355 -1.45927,-0.68318 -0.15952,-0.50263 -0.19576,-0.49713 -0.95987,0.14583 -0.89446,0.75263 -2.77483,0.91333 -3.90298,0.33355 z m 9.58642,0.004 c -0.11488,-0.1819 -0.25424,-2.05714 -0.30969,-4.16719 -0.0692,-2.63276 -0.21946,-4.06718 -0.479,-4.57183 -0.20801,-0.40446 -0.30677,-0.85094 -0.21948,-0.99219 0.28361,-0.45889 1.42052,-0.27789 1.71539,0.2731 0.28116,0.52534 0.29056,0.52477 1.09052,-0.0661 0.61121,-0.45149 1.15363,-0.59267 2.236427,-0.58211 2.73471,0.0267 3.55182,1.63203 3.55182,6.97814 0,2.21298 -0.0895,2.93932 -0.39351,3.19158 -0.93703,0.77767 -1.13878,0.18447 -1.23435,-3.62934 -0.11091,-4.42607 -0.41432,-5.182 -2.0261,-5.04799 -0.869567,0.0723 -1.043507,0.21672 -1.591797,1.32168 -0.47511,0.95749 -0.6448,1.83277 -0.74376,3.83646 -0.16761,3.39365 -0.25883,3.78657 -0.87907,3.78657 -0.27968,0 -0.60251,-0.14883 -0.7174,-0.33073 z m 49.611917,-0.0579 c -1.22047,-0.68898 -1.57363,-2.16678 -1.48786,-6.22596 0.0719,-3.40282 0.10186,-3.57564 0.63297,-3.65146 0.53734,-0.0767 0.5643,0.0572 0.74583,3.70416 0.20246,4.06748 0.44474,4.83859 1.61237,5.13164 1.71582,0.43065 2.60541,-1.4489 2.91491,-6.15868 0.13492,-2.05306 0.27297,-2.73094 0.58019,-2.84883 0.89239,-0.34245 1.06353,0.31097 1.17579,4.48906 0.0727,2.70649 0.21806,4.20189 0.42889,4.41272 0.44159,0.44159 0.39925,1.18394 -0.078,1.36707 -0.54923,0.21076 -1.15405,-0.0621 -1.4776,-0.6667 -0.26433,-0.4939 -0.28616,-0.49163 -0.74705,0.0776 -0.61294,0.75694 -3.21766,0.9807 -4.30046,0.36943 z m 9.62566,-0.0744 c -0.10457,-0.25467 -0.19013,-4.09443 -0.19013,-8.53282 v -8.06979 h 0.66146 0.66146 l 0.13229,8.18358 c 0.10616,6.5671 0.0632,8.25256 -0.21734,8.53281 -0.47638,0.47584 -0.82098,0.43842 -1.04774,-0.11378 z m 4.99777,0.10051 c -0.21387,-0.2577 -0.28061,-2.72374 -0.23084,-8.52928 0.0665,-7.75294 0.0952,-8.17162 0.56749,-8.26248 0.2736,-0.0526 0.5992,0.0648 0.72355,0.26105 0.37179,0.58667 0.29333,16.19908 -0.0833,16.57572 -0.40934,0.40934 -0.60739,0.40021 -0.97689,-0.045 z m 6.366,-0.20522 c -1.51148,-0.74816 -2.41633,-2.14531 -2.61101,-4.03155 -0.37296,-3.6137 2.29017,-6.30984 5.81968,-5.89182 2.35856,0.27933 4.15514,2.03565 4.15514,4.06202 0,1.19053 -0.4161,1.4018 -2.7649,1.40387 -1.17144,0.001 -2.93156,0.0776 -3.91137,0.17014 -1.75456,0.16571 -1.77908,0.17868 -1.62231,0.85801 0.0875,0.37937 0.49119,1.0336 0.897,1.45385 1.40676,1.4568 4.34251,1.17781 5.45384,-0.51828 0.28275,-0.43153 0.63508,-0.64102 0.99198,-0.58981 1.36236,0.19549 0.39701,2.17583 -1.51087,3.09942 -1.50117,0.72671 -3.40951,0.72053 -4.89718,-0.0159 z m 5.77631,-6.14347 c 0,-0.19865 -0.23409,-0.65879 -0.5202,-1.02252 -1.2729,-1.61823 -3.79488,-1.66241 -5.23433,-0.0917 -0.47303,0.51616 -0.86005,1.05929 -0.86005,1.20695 0,0.16725 1.2469,0.26847 3.30729,0.26847 2.61822,0 3.30729,-0.0753 3.30729,-0.3612 z m 19.38655,6.39182 c -0.18336,-0.22706 -0.21966,-1.94341 -0.10796,-5.10458 l 0.16828,-4.7625 h 0.66146 0.66146 l 0.0728,3.98317 c 0.04,2.19074 -0.0247,4.4523 -0.14385,5.02568 -0.22482,1.0821 -0.81804,1.47009 -1.31215,0.85823 z m 6.27008,-0.27594 c -2.5361,-1.2812 -3.30697,-4.41574 -1.81574,-7.38332 1.24636,-2.48029 4.74387,-3.35837 7.23772,-1.81708 0.93948,0.58062 1.86669,2.17798 1.62694,2.80278 -0.25905,0.67506 -1.15522,0.41356 -1.72122,-0.50226 -1.6487,-2.66765 -5.69575,-1.5813 -6.24618,1.67667 -0.39292,2.32569 1.07689,4.23179 3.26184,4.23004 1.59127,-0.001 2.80436,-0.73201 3.24692,-1.95587 0.38964,-1.07753 0.96074,-1.40306 1.5056,-0.85819 0.82716,0.82715 -0.86833,3.44121 -2.67338,4.12174 -1.24327,0.46872 -3.13897,0.33391 -4.4225,-0.31451 z m 10.70278,0.0936 c -1.96093,-0.89061 -2.92943,-2.7814 -2.67708,-5.22646 0.31615,-3.06315 2.21464,-4.85514 5.14369,-4.85514 1.79364,0 2.90225,0.4684 3.96003,1.67315 2.42829,2.76567 1.56495,7.43825 -1.59442,8.62938 -1.16741,0.44012 -3.62401,0.32781 -4.83222,-0.22093 z m 4.50964,-1.46179 c 1.66828,-0.69706 2.20034,-2.92558 1.21606,-5.09345 -0.65725,-1.44759 -1.53863,-1.99991 -3.19136,-1.99991 -2.38544,0 -3.5606,1.29238 -3.56753,3.92338 -0.004,1.39698 0.0971,1.75912 0.65711,2.36231 0.3638,0.39182 0.89959,0.81089 1.19063,0.93128 0.84195,0.34825 2.71577,0.28557 3.69509,-0.12361 z m 5.88517,1.7983 c -0.10316,-0.10315 -0.19367,-1.32857 -0.20114,-2.72314 -0.007,-1.39458 -0.12175,-3.3095 -0.25395,-4.25538 -0.4379,-3.13322 -0.4434,-3.03566 0.17584,-3.12391 0.3504,-0.0499 0.72448,0.13969 0.97161,0.4925 l 0.40183,0.57371 0.58021,-0.54054 c 0.7792,-0.72594 2.27541,-0.94555 3.56756,-0.52364 0.83628,0.27306 1.1752,0.58653 1.64809,1.52429 0.53083,1.05266 0.59531,1.57266 0.59531,4.80034 0,3.09887 -0.0619,3.64357 -0.43041,3.78496 -0.96356,0.36976 -1.15709,-0.28951 -1.15709,-3.94172 0,-3.14407 -0.0563,-3.57537 -0.54837,-4.20094 -0.73644,-0.93624 -1.87059,-0.93673 -2.60653,-0.001 -0.75233,0.95644 -1.05041,2.22081 -1.27953,5.42758 -0.17726,2.4808 -0.24686,2.74727 -0.73583,2.81726 -0.29703,0.0425 -0.62445,-0.007 -0.7276,-0.11024 z m 10.95709,-0.28719 c -0.92921,-0.45776 -1.88153,-1.72946 -1.88324,-2.51484 -5.3e-4,-0.24954 0.23093,-0.57783 0.51438,-0.72952 0.42457,-0.22723 0.59937,-0.15451 0.99218,0.41277 0.95853,1.38422 1.39043,1.69651 2.34631,1.69651 1.28415,0 1.96698,-0.41444 1.96698,-1.19384 0,-0.75558 -0.59836,-1.19699 -2.66271,-1.96431 -0.80964,-0.30094 -1.73094,-0.78833 -2.04732,-1.08308 -1.15937,-1.08012 -1.0754,-2.71406 0.20531,-3.99476 0.65814,-0.65814 0.96074,-0.75985 2.26073,-0.75985 1.78727,0 2.86027,0.54682 3.43034,1.74816 0.49673,1.04679 0.50639,1.53929 0.0378,1.92818 -0.49017,0.4068 -1.22416,0.0892 -1.22416,-0.52964 0,-1.32345 -2.55175,-2.14465 -3.55298,-1.14342 -1.0039,1.0039 -0.33592,1.81176 2.16528,2.61867 2.9698,0.9581 3.90316,3.23426 2.07561,5.0618 -0.8013,0.80131 -1.05422,0.89893 -2.3151,0.89356 -0.77854,-0.003 -1.81778,-0.20419 -2.30942,-0.44639 z m -117.5438,-0.45991 c -2.06616,-1.40399 -2.38512,-4.83018 -0.61452,-6.60079 0.38768,-0.38768 0.41936,-0.5648 0.16373,-0.91555 -1.36938,-1.87892 -1.33241,-3.51561 0.10797,-4.78029 2.37299,-2.08351 6.09454,-0.0326 5.51795,3.04087 -0.17374,0.9261 -1.23348,2.29717 -1.96285,2.53949 -0.3385,0.11247 -0.31926,0.27464 0.13205,1.11266 0.74415,1.38181 2.37769,2.92037 2.89137,2.72325 0.31925,-0.12251 0.41554,-0.5618 0.41554,-1.89586 0,-1.36724 0.0925,-1.77189 0.43513,-1.90337 0.26641,-0.10223 0.57419,0.0232 0.79375,0.32346 0.42235,0.57759 0.48285,3.36696 0.089,4.1029 -0.23145,0.43247 -0.11667,0.58185 0.81048,1.05484 0.72613,0.37045 1.05206,0.69822 0.99453,1.00015 -0.12625,0.66264 -1.16327,0.69711 -2.21975,0.0738 l -0.92752,-0.54725 -1.30192,0.65973 c -1.79884,0.91154 -3.99384,0.91648 -5.32492,0.012 z m 3.80697,-0.95367 c 0.5457,-0.15155 0.99218,-0.33312 0.99218,-0.40348 0,-0.0704 -0.40641,-0.48478 -0.90315,-0.92092 -0.49673,-0.43614 -1.29322,-1.41476 -1.76996,-2.17473 -0.47675,-0.75996 -0.91402,-1.44128 -0.97171,-1.51404 -0.0577,-0.0728 -0.33277,0.14879 -0.61128,0.49233 -0.62783,0.77441 -0.68274,2.84232 -0.0977,3.67764 0.32886,0.46952 1.27607,0.93373 2.2371,1.09636 0.0728,0.0123 0.57877,-0.10161 1.12448,-0.25316 z m -0.84511,-7.61777 c 0.67972,-0.55041 0.81582,-1.87275 0.26149,-2.54068 -0.20042,-0.2415 -0.76162,-0.41097 -1.36091,-0.41097 -0.78384,0 -1.11588,0.14659 -1.43488,0.63344 -0.51081,0.77959 -0.28905,1.86841 0.49195,2.41544 0.74212,0.5198 1.31396,0.49258 2.04235,-0.0972 z m 62.51243,8.62387 c -0.8022,-0.8912 -0.93711,-1.40986 -1.11415,-4.28357 l -0.16203,-2.62993 -0.87673,-0.22627 c -0.70135,-0.18101 -0.86013,-0.34298 -0.79375,-0.80966 0.063,-0.44251 0.30659,-0.61533 1.00903,-0.71567 l 0.92604,-0.1323 0.16004,-2.3419 c 0.16146,-2.36263 0.41672,-2.90368 1.29517,-2.74521 0.32946,0.0594 0.38059,0.52529 0.30101,2.74277 l -0.0959,2.67118 0.96966,0.18191 c 1.76166,0.33049 1.49135,1.46325 -0.35117,1.47158 l -0.89615,0.004 0.1892,2.57747 c 0.10406,1.4176 0.31355,2.72729 0.46553,2.91041 0.44286,0.53362 0.98193,0.38581 1.15848,-0.31765 0.20921,-0.83353 0.72116,-1.25547 1.26847,-1.04545 0.61645,0.23656 0.54789,1.73993 -0.11796,2.58641 -0.73805,0.93829 -2.53259,0.99308 -3.33483,0.10183 z m 13.78101,-10.50987 c -0.30428,-0.12304 -0.70882,-0.59933 -0.89898,-1.05841 -0.30752,-0.74243 -0.28735,-0.91326 0.18252,-1.54544 0.68936,-0.92752 1.95709,-1.08169 2.7093,-0.32948 0.72961,0.72961 0.68764,1.74886 -0.10467,2.54116 -0.6878,0.68781 -0.99786,0.75221 -1.88817,0.39217 z"
       id="path48345"
       clip-path="url(#clipPath48549)"
       transform="matrix(0.24789552,0,0,0.24789552,-40.088233,9.3179788)" />
  </g>
</svg>
