<?xml version="1.0" encoding="UTF-8" standalone="no"?>
<!-- Created with Inkscape (http://www.inkscape.org/) -->

<svg
   width="50"
   height="50"
   viewBox="0 0 13.229167 13.229167"
   version="1.1"
   id="svg25456"
   inkscape:version="1.1 (c68e22c387, 2021-05-23)"
   sodipodi:docname="MH.svg"
   xmlns:inkscape="http://www.inkscape.org/namespaces/inkscape"
   xmlns:sodipodi="http://sodipodi.sourceforge.net/DTD/sodipodi-0.dtd"
   xmlns="http://www.w3.org/2000/svg"
   xmlns:svg="http://www.w3.org/2000/svg">
  <sodipodi:namedview
     id="namedview25458"
     pagecolor="#ffffff"
     bordercolor="#666666"
     borderopacity="1.0"
     inkscape:pageshadow="2"
     inkscape:pageopacity="0.0"
     inkscape:pagecheckerboard="0"
     inkscape:document-units="mm"
     showgrid="false"
     units="px"
     inkscape:zoom="4.394379"
     inkscape:cx="68.610377"
     inkscape:cy="52.567155"
     inkscape:window-width="1920"
     inkscape:window-height="1018"
     inkscape:window-x="-6"
     inkscape:window-y="-6"
     inkscape:window-maximized="1"
     inkscape:current-layer="layer1" />
  <defs
     id="defs25453">
    <marker
       style="overflow:visible;"
       id="marker39222"
       refX="0.0"
       refY="0.0"
       orient="auto"
       inkscape:stockid="Arrow1Lend"
       inkscape:isstock="true">
      <path
         transform="scale(0.8) rotate(180) translate(12.5,0)"
         style="fill-rule:evenodd;fill:context-stroke;stroke:context-stroke;stroke-width:1.0pt;"
         d="M 0.0,0.0 L 5.0,-5.0 L -12.5,0.0 L 5.0,5.0 L 0.0,0.0 z "
         id="path39220" />
    </marker>
    <marker
       style="overflow:visible"
       id="marker38741"
       refX="0.0"
       refY="0.0"
       orient="auto"
       inkscape:stockid="Arrow1Lstart"
       inkscape:isstock="true">
      <path
         transform="scale(0.8) translate(12.5,0)"
         style="fill-rule:evenodd;fill:context-stroke;stroke:context-stroke;stroke-width:1.0pt"
         d="M 0.0,0.0 L 5.0,-5.0 L -12.5,0.0 L 5.0,5.0 L 0.0,0.0 z "
         id="path38739" />
    </marker>
    <marker
       style="overflow:visible"
       id="Arrow1Lstart"
       refX="0.0"
       refY="0.0"
       orient="auto"
       inkscape:stockid="Arrow1Lstart"
       inkscape:isstock="true">
      <path
         transform="scale(0.8) translate(12.5,0)"
         style="fill-rule:evenodd;fill:context-stroke;stroke:context-stroke;stroke-width:1.0pt"
         d="M 0.0,0.0 L 5.0,-5.0 L -12.5,0.0 L 5.0,5.0 L 0.0,0.0 z "
         id="path30209" />
    </marker>
    <marker
       style="overflow:visible;"
       id="Arrow1Lend"
       refX="0.0"
       refY="0.0"
       orient="auto"
       inkscape:stockid="Arrow1Lend"
       inkscape:isstock="true">
      <path
         transform="scale(0.8) rotate(180) translate(12.5,0)"
         style="fill-rule:evenodd;fill:context-stroke;stroke:context-stroke;stroke-width:1.0pt;"
         d="M 0.0,0.0 L 5.0,-5.0 L -12.5,0.0 L 5.0,5.0 L 0.0,0.0 z "
         id="path30212" />
    </marker>
    <clipPath
       clipPathUnits="userSpaceOnUse"
       id="clipPath29247">
      <rect
         style="fill:#000000;fill-opacity:1;stroke:#000000;stroke-width:0.264583"
         id="rect29249"
         width="83.570778"
         height="76.827309"
         x="-571.02686"
         y="-185.92691" />
    </clipPath>
    <clipPath
       clipPathUnits="userSpaceOnUse"
       id="clipPath29355">
      <rect
         style="fill:#000000;fill-opacity:1;stroke:#000000;stroke-width:0.264583"
         id="rect29357"
         width="60.329914"
         height="49.130947"
         x="-548.62891"
         y="-187.7332" />
    </clipPath>
    <clipPath
       clipPathUnits="userSpaceOnUse"
       id="clipPath37500">
      <rect
         style="fill:#838383;fill-opacity:1;stroke:#000000;stroke-width:0.259049"
         id="rect37502"
         width="30.590088"
         height="26.0105"
         x="-636.65887"
         y="-198.69133" />
    </clipPath>
    <clipPath
       clipPathUnits="userSpaceOnUse"
       id="clipPath47772">
      <rect
         style="fill:#e3dedb;fill-opacity:1;stroke:#241f1c;stroke-width:0.0499999;stroke-miterlimit:4;stroke-dasharray:none"
         id="rect47774"
         width="46.000053"
         height="44.675442"
         x="-495.40372"
         y="-10.596871"
         rx="0.49999899"
         ry="0.49999899" />
    </clipPath>
    <clipPath
       clipPathUnits="userSpaceOnUse"
       id="clipPath47772-7">
      <rect
         style="fill:#e3dedb;fill-opacity:1;stroke:#241f1c;stroke-width:0.0499999;stroke-miterlimit:4;stroke-dasharray:none"
         id="rect47774-8"
         width="46.000053"
         height="44.675442"
         x="-495.40372"
         y="-10.596871"
         rx="0.49999899"
         ry="0.49999899" />
    </clipPath>
    <clipPath
       clipPathUnits="userSpaceOnUse"
       id="clipPath48214">
      <path
         style="fill:none;stroke:#000000;stroke-width:0.264583px;stroke-linecap:butt;stroke-linejoin:miter;stroke-opacity:1"
         d="m -10.71729,9.3324712 8.3691198,0.090314 1.71597052,-0.5719903 0.0301047,-9.72383324 -3.07068412,-0.69240916 -10.2356139,0.5418854 0.873038,7.2251391 1.475132,2.7696369 z"
         id="path48216" />
    </clipPath>
  </defs>
  <g
     inkscape:label="Layer 1"
     inkscape:groupmode="layer"
     id="layer1">
    <path
       style="fill:#000000;stroke-width:0.0663241"
       d="M -64.312527,12.083806 V 9.4308423 h 1.787117 1.787117 l 0.02022,-0.31504 0.02022,-0.315039 h 0.596917 0.596917 l 0.02022,0.315039 c 0.01995,0.310964 0.02317,0.31504 0.248715,0.31504 h 0.228501 v -0.331621 -0.33162 h 0.596917 0.596917 v 0.33162 0.331621 h 0.232134 0.232134 v -0.331621 -0.33162 h 0.596917 0.596918 v 0.33162 0.331621 h 0.232134 0.232134 v -0.331621 -0.33162 h 0.596917 0.596917 v 0.33162 0.331621 h 0.232135 0.232134 v -0.331621 -0.33162 h 0.596917 0.596917 v 0.33162 0.331621 h 3.813637 3.813636 v -0.298459 -0.298458 h 1.094348 1.094348 v 0.298458 0.298459 h 0.265296 0.265297 v -0.298459 -0.298458 h 1.12751 1.12751 v 0.298458 c 0,0.29688 0.0012,0.298459 0.232134,0.298459 0.230906,0 0.232134,-0.0016 0.232134,-0.298459 v -0.298458 h 1.12751 1.12751 v 0.298458 c 0,0.29688 0.0012,0.298459 0.232135,0.298459 0.230906,0 0.232134,-0.0016 0.232134,-0.298459 v -0.298458 h 1.12751 1.12751 v 0.298458 0.298459 l 5.952589,-0.0042 c 3.273924,-0.0023 5.892897,-0.02889 5.819941,-0.05907 -0.37075,-0.153352 -0.55618,-0.596268 -0.403059,-0.962738 0.207862,-0.497485 0.791672,-0.62573 1.175314,-0.258179 0.352093,0.337327 0.290355,0.909673 -0.125971,1.167807 -0.172188,0.106762 0.142059,0.112794 5.820317,0.111709 5.177946,-9.88e-4 5.967146,-0.01369 5.74614,-0.09248 -0.315558,-0.11249 -0.625093,-0.395424 -0.74863,-0.684282 -0.0767,-0.179334 -0.09264,-0.948939 -0.09054,-4.369016 0.0028,-4.61643411 -0.01657,-4.41105281 0.453573,-4.79858201 0.133084,-0.1096987 0.38281,-0.2264961 0.571688,-0.267379 0.228237,-0.049403 1.5960775,-0.065897 4.2816635,-0.05163 l 3.946284,0.020964 0.308628,0.1814297 c 0.229132,0.1346976 0.352988,0.2704491 0.48085,0.5270339 l 0.172222,0.345605 -3.98e-4,4.01616741 c -2.65e-4,2.622878 -0.02474,4.103946 -0.07063,4.269189 -0.08605,0.309876 -0.485305,0.722583 -0.794341,0.821103 -0.187527,0.05978 -0.02779,0.07423 0.881923,0.07978 l 1.11095701,0.0068 v 2.6529637 2.652965 H -32.311143 -64.312527 Z m 3.050339,0.198973 c 0.336887,-0.945709 0.3506,-0.994862 0.277551,-0.994862 -0.03497,0 -0.176047,0.320843 -0.313509,0.712984 -0.137461,0.392142 -0.27104,0.737365 -0.296842,0.767158 -0.0258,0.0298 -0.16045,-0.277513 -0.299219,-0.682913 -0.231916,-0.677527 -0.323915,-0.857697 -0.399409,-0.7822 -0.02489,0.02488 0.126122,0.478469 0.476443,1.431069 0.160027,0.435146 0.271524,0.344494 0.554985,-0.451236 z m 1.155817,0.689306 c 0.206163,-0.07911 0.09986,-0.141847 -0.185796,-0.109653 -0.23513,0.0265 -0.317548,0.0059 -0.431106,-0.107631 -0.263297,-0.2633 -0.189516,-0.339374 0.329138,-0.339374 h 0.469539 l -0.04559,-0.215553 c -0.08477,-0.400764 -0.391298,-0.600751 -0.724703,-0.472812 -0.158818,0.06095 -0.30143,0.380787 -0.30143,0.676029 0,0.451912 0.448236,0.738499 0.889951,0.568994 z m -0.757303,-0.774035 c 0,-0.163098 0.207467,-0.37954 0.363806,-0.37954 0.190137,0 0.36576,0.161506 0.36576,0.336356 0,0.110828 -0.04872,0.127913 -0.364783,0.127913 -0.251797,0 -0.364783,-0.02624 -0.364783,-0.08473 z m 2.037233,0.706046 c 0.01683,-0.05125 -0.06581,-0.06489 -0.260311,-0.04297 -0.362441,0.04086 -0.546911,-0.131846 -0.546911,-0.512022 0,-0.345788 0.182718,-0.542041 0.491793,-0.528232 0.336184,0.01502 0.380049,0.0038 0.26792,-0.06869 -0.186866,-0.120763 -0.528115,-0.07483 -0.696721,0.09378 -0.298773,0.29877 -0.297239,0.709044 0.0038,1.010063 0.131452,0.131447 0.218472,0.159841 0.439836,0.143512 0.151778,-0.0112 0.287056,-0.05415 0.300618,-0.09544 z m 0.615732,0.06581 c 0,-0.02333 -0.04838,-0.0778 -0.107512,-0.121042 -0.0751,-0.05492 -0.117774,-0.222059 -0.14156,-0.554489 -0.03236,-0.452271 -0.02703,-0.475869 0.107512,-0.475869 0.07786,0 0.14156,-0.02985 0.14156,-0.06632 0,-0.03648 -0.05969,-0.06632 -0.132648,-0.06632 -0.103171,0 -0.132648,-0.04422 -0.132648,-0.198973 0,-0.109434 -0.03242,-0.198972 -0.07203,-0.198972 -0.04896,0 -0.06489,0.246023 -0.04974,0.768199 0.0194,0.668746 0.03896,0.780376 0.151032,0.862214 0.13675,0.09986 0.236039,0.121558 0.236039,0.05158 z m 1.154776,-0.161625 c 0.246283,-0.292695 0.237299,-0.669091 -0.02216,-0.928551 -0.132316,-0.132317 -0.260284,-0.193872 -0.403047,-0.193872 -0.318282,0 -0.596917,0.309594 -0.596917,0.663241 0,0.593044 0.660003,0.889539 1.022128,0.459182 z m -0.718832,-0.03271 c -0.330567,-0.330566 -0.138412,-0.957064 0.293545,-0.957064 0.448874,0 0.626543,0.751565 0.238863,1.010428 -0.126767,0.08464 -0.424212,0.05483 -0.532408,-0.05336 z m 1.222159,-0.263745 c 0,-0.48652 0.0056,-0.503678 0.198553,-0.613498 0.109204,-0.06214 0.198742,-0.135367 0.198972,-0.162726 6.64e-4,-0.07879 -0.163428,-0.05785 -0.259903,0.03316 -0.0703,0.06632 -0.09396,0.06632 -0.118277,0 -0.08977,-0.244836 -0.151993,-0.0073 -0.151993,0.580336 0,0.397945 0.02653,0.663241 0.06632,0.663241 0.03836,0 0.06632,-0.211057 0.06632,-0.500515 z m 1.59688,0.306643 c 0.334568,-0.334565 0.207556,-0.653372 -0.331654,-0.832467 -0.410317,-0.13629 -0.51348,-0.246527 -0.367403,-0.392606 0.132418,-0.132416 0.274464,-0.134226 0.519146,-0.0066 0.231632,0.120803 0.218607,0.120796 0.264917,0 0.05991,-0.156127 -0.323211,-0.320763 -0.645748,-0.277507 -0.300314,0.04028 -0.439221,0.181761 -0.439221,0.44735 0,0.217874 0.123697,0.328715 0.517709,0.463904 0.406478,0.139466 0.497273,0.292038 0.279883,0.470331 -0.157388,0.129079 -0.270254,0.13481 -0.748429,0.03798 -0.04095,-0.0083 -0.08543,0.03485 -0.09884,0.09587 -0.02707,0.123111 0.102633,0.163807 0.568794,0.178478 0.235448,0.0074 0.321792,-0.02578 0.48085,-0.184839 z m 0.903077,0.08923 c 0.01309,-0.03931 -0.05159,-0.105826 -0.143733,-0.147803 -0.152156,-0.06933 -0.167528,-0.112983 -0.167528,-0.475703 0,-0.381775 0.0073,-0.399364 0.16581,-0.399364 0.103171,0 0.16581,-0.03759 0.16581,-0.09949 0,-0.0619 -0.06264,-0.09949 -0.16581,-0.09949 -0.140018,0 -0.16581,-0.03095 -0.16581,-0.198973 0,-0.132648 -0.03316,-0.198972 -0.09949,-0.198972 -0.08264,0 -0.09949,0.128543 -0.09949,0.758967 0,0.711823 0.0093,0.765473 0.149229,0.863719 0.1611,0.113089 0.322824,0.111789 0.361005,-0.0029 z m 1.06421,0.0032 c 0.19408,-0.135938 0.289448,-0.498386 0.208384,-0.791976 -0.07592,-0.274927 -0.278862,-0.43305 -0.555832,-0.43305 -0.273288,0 -0.471524,0.151643 -0.563822,0.431312 -0.09401,0.284849 0.0053,0.645911 0.218873,0.795478 0.18328,0.128377 0.507789,0.127555 0.692397,-0.0017 z m -0.608984,-0.244935 c -0.200607,-0.286407 -0.05359,-0.781132 0.232135,-0.781132 0.192183,0 0.394184,0.237918 0.394184,0.464269 0,0.226351 -0.202001,0.464268 -0.394184,0.464268 -0.07089,0 -0.175349,-0.06633 -0.232135,-0.147405 z m 1.942213,0.188307 c 0.02001,-0.105369 -0.0041,-0.117917 -0.154298,-0.08023 -0.256776,0.06445 -0.406379,-0.0039 -0.499268,-0.228182 -0.06446,-0.155603 -0.06446,-0.237924 0,-0.393527 0.09289,-0.224255 0.242492,-0.292629 0.499268,-0.228182 0.150174,0.03769 0.174312,0.02514 0.154327,-0.08023 -0.029,-0.152904 -0.404534,-0.206805 -0.623682,-0.08952 -0.373278,0.199768 -0.393779,0.892888 -0.03475,1.174726 0.05788,0.04544 0.22436,0.07529 0.369958,0.06632 0.199079,-0.01224 0.270607,-0.04726 0.288443,-0.141191 z m 0.474857,-0.140374 c 0,-0.164153 0.02238,-0.297802 0.04974,-0.297 0.02736,7.96e-4 0.139281,0.135043 0.248716,0.298313 0.1398,0.208576 0.24461,0.2969 0.352437,0.296999 0.14632,0 0.140394,-0.01849 -0.127286,-0.400093 l -0.280752,-0.40024 0.256814,-0.263002 c 0.214266,-0.219426 0.235111,-0.263001 0.125817,-0.263001 -0.07205,0 -0.242258,0.09171 -0.378243,0.2038 l -0.247246,0.203801 v -0.402773 c 0,-0.358555 -0.01456,-0.402773 -0.132648,-0.402773 -0.125846,0 -0.132648,0.04422 -0.132648,0.862214 0,0.817995 0.0068,0.862213 0.132648,0.862213 0.112996,0 0.132648,-0.04422 0.132648,-0.298458 z m 43.2779915,-0.165822 c 0.06451,-0.20063 0.131068,-0.40209 0.147897,-0.447688 0.01683,-0.0456 0.0034,-0.08291 -0.02977,-0.08291 -0.05371,0 -0.351771,0.816039 -0.351771,0.963086 0,0.136654 0.12508,-0.09488 0.233642,-0.432493 z m -9.7422045,-0.09141 c 0.09545,-0.282959 0.122342,-0.438728 0.0729,-0.422246 -0.04309,0.01437 -0.121679,0.165658 -0.174645,0.33621 -0.05297,0.170553 -0.115667,0.310098 -0.139336,0.310098 -0.02367,0 -0.08637,-0.139545 -0.139337,-0.310098 -0.05297,-0.170552 -0.131971,-0.321984 -0.175567,-0.336515 -0.06929,-0.0231 0.0014,0.249889 0.21617,0.834523 0.06566,0.178737 0.192377,0.0251 0.339815,-0.411972 z m 0.739261,0.393375 c -0.01025,-0.03455 -0.09062,-0.06439 -0.178601,-0.06632 -0.269769,-0.0059 -0.248747,-0.169313 0.02178,-0.169313 0.150788,0 0.237662,-0.03152 0.237662,-0.08622 0,-0.129166 -0.141367,-0.245399 -0.298459,-0.245399 -0.286273,0 -0.404456,0.348798 -0.190634,0.562621 0.111702,0.111703 0.441132,0.115443 0.40825,0.0046 z m -0.317102,-0.368285 c 0,-0.03648 0.06145,-0.06632 0.136563,-0.06632 0.07511,0 0.118116,0.02985 0.09557,0.06632 -0.02254,0.03648 -0.084,0.06632 -0.136563,0.06632 -0.05256,0 -0.09557,-0.02985 -0.09557,-0.06632 z m 1.106032,0.364126 c 0.01205,-0.03684 -0.07518,-0.06668 -0.193857,-0.06632 -0.186115,6.63e-4 -0.215772,-0.02213 -0.215772,-0.165154 0,-0.13879 0.03533,-0.169212 0.216813,-0.186689 0.242524,-0.02335 0.228249,-0.144931 -0.01702,-0.144931 -0.316325,0 -0.474713,0.345688 -0.257782,0.562621 0.11381,0.113805 0.43043,0.11413 0.467615,6.63e-4 z m 0.419423,0.03382 c 0,-0.03648 -0.02985,-0.06632 -0.06632,-0.06632 -0.0963,0 -0.08157,-0.381808 0.01599,-0.414327 0.0584,-0.01947 0.04702,-0.06273 -0.03918,-0.148931 -0.09695,-0.09695 -0.132479,-0.103724 -0.175863,-0.03353 -0.04897,0.07923 -0.02886,0.43238 0.03682,0.646528 0.03012,0.09822 0.228562,0.112611 0.228562,0.01658 z m 0.691665,-0.0379 c 0.201142,-0.201141 0.05557,-0.559019 -0.227396,-0.559019 -0.158252,0 -0.331621,0.173371 -0.331621,0.33162 0,0.15825 0.173369,0.331621 0.331621,0.331621 0.06775,0 0.170074,-0.0469 0.227396,-0.104222 z m -0.400599,-0.123263 c -0.06604,-0.172085 0.02652,-0.314317 0.189487,-0.291176 0.109616,0.01557 0.149526,0.06549 0.149526,0.18704 0,0.121553 -0.03991,0.171475 -0.149526,0.187041 -0.08969,0.01274 -0.165518,-0.02044 -0.189487,-0.08291 z m 0.77012,-0.0067 c 0,-0.147007 0.03704,-0.24843 0.09949,-0.272393 0.155134,-0.05953 0.117003,-0.14005 -0.06632,-0.14005 -0.15419,0 -0.165811,0.02266 -0.165811,0.32333 0,0.177835 0.02985,0.32333 0.06632,0.32333 0.03648,0 0.06632,-0.105396 0.06633,-0.234217 z m 0.848948,0.154628 c 0.147362,-0.147359 0.08695,-0.31699 -0.153781,-0.43179 -0.264849,-0.126294 -0.270671,-0.249876 -0.01198,-0.254379 0.249036,-0.0044 0.292998,-0.08197 0.0771,-0.136157 -0.221408,-0.05557 -0.387923,0.03549 -0.41656,0.227803 -0.01588,0.106669 0.03736,0.169253 0.21679,0.254817 0.282193,0.134572 0.271905,0.257418 -0.02041,0.243708 -0.200068,-0.0094 -0.258387,0.03726 -0.164269,0.131369 0.07328,0.07328 0.387991,0.04975 0.473111,-0.03537 z m 0.477534,0.01326 c 0,-0.03648 -0.02985,-0.06632 -0.06632,-0.06632 -0.09655,0 -0.08143,-0.381231 0.01658,-0.417968 0.0573,-0.02148 0.04206,-0.06242 -0.04932,-0.132522 -0.08982,-0.0689 -0.146413,-0.0785 -0.176454,-0.02989 -0.0407,0.06585 -0.01329,0.433687 0.04696,0.630119 0.03012,0.09822 0.228562,0.112611 0.228562,0.01658 z m 0.691665,-0.0379 c 0.201142,-0.201141 0.05557,-0.559019 -0.227396,-0.559019 -0.158252,0 -0.331621,0.173371 -0.331621,0.33162 0,0.15825 0.173369,0.331621 0.331621,0.331621 0.06774,0 0.170074,-0.0469 0.227396,-0.104222 z m -0.400599,-0.123291 c -0.06604,-0.172085 0.02652,-0.314317 0.189487,-0.291176 0.109616,0.01557 0.149526,0.06549 0.149526,0.18704 0,0.121553 -0.03991,0.171475 -0.149526,0.187041 -0.08969,0.01274 -0.165518,-0.02044 -0.189487,-0.08291 z m 1.198571,0.165459 c 0.02108,-0.03412 -0.05923,-0.07142 -0.178477,-0.08291 -0.181483,-0.01748 -0.216812,-0.0479 -0.216812,-0.186689 0,-0.13879 0.03533,-0.169212 0.216812,-0.186689 0.242525,-0.02335 0.22825,-0.144931 -0.01702,-0.144931 -0.188037,0 -0.365606,0.161061 -0.365606,0.33162 0,0.248119 0.442863,0.460906 0.5611,0.269595 z m 0.237175,-0.120365 0.0024,-0.182392 0.149335,0.182392 c 0.199177,0.243263 0.272642,0.231504 0.141234,-0.02261 -0.09815,-0.1898 -0.09751,-0.214393 0.0086,-0.331621 0.09879,-0.109163 0.100433,-0.126619 0.01192,-0.126619 -0.05647,0 -0.119849,0.04477 -0.140846,0.09949 -0.06993,0.182225 -0.174988,0.102583 -0.174988,-0.132648 0,-0.127674 -0.02985,-0.232135 -0.06632,-0.232135 -0.0379,0 -0.06632,0.198973 -0.06632,0.464269 0,0.265297 0.02843,0.464269 0.06632,0.464269 0.03648,0 0.0674,-0.08208 0.06871,-0.182391 z m 0.660856,0.116067 c 0,-0.03648 -0.02985,-0.06632 -0.06632,-0.06632 -0.03648,0 -0.06632,0.02985 -0.06632,0.06632 0,0.03648 0.02985,0.06632 0.06632,0.06632 0.03648,0 0.06632,-0.02985 0.06632,-0.06632 z m 0.774412,-0.03382 c 0.01205,-0.03684 -0.07518,-0.06668 -0.193858,-0.06632 -0.186115,6.63e-4 -0.215771,-0.02213 -0.215771,-0.165154 0,-0.13879 0.03533,-0.169212 0.216812,-0.186689 0.242524,-0.02335 0.22825,-0.144931 -0.01702,-0.144931 -0.316325,0 -0.474712,0.345688 -0.257782,0.562621 0.11381,0.113805 0.43043,0.11413 0.467615,6.63e-4 z m 0.6468185,-0.0041 c 0.201142,-0.201108 0.05557,-0.558986 -0.227397,-0.558986 -0.158252,0 -0.3316205,0.173371 -0.3316205,0.33162 0,0.15825 0.1733685,0.331621 0.3316205,0.331621 0.06775,0 0.170074,-0.0469 0.227397,-0.104222 z m -0.4006,-0.123274 c -0.06604,-0.172085 0.02652,-0.314317 0.189487,-0.291176 0.109616,0.01557 0.149526,0.06549 0.149526,0.18704 0,0.121552 -0.03991,0.171475 -0.149526,0.187041 -0.08969,0.01274 -0.165517,-0.02044 -0.189487,-0.08291 z m 0.782697,-0.02123 c 0.01653,-0.199781 0.04994,-0.252887 0.169814,-0.269912 0.133782,-0.019 0.14923,0.0068 0.14923,0.248715 0,0.338804 0.117467,0.356393 0.145225,0.02175 0.01439,-0.173431 0.05554,-0.254784 0.136652,-0.270158 0.09514,-0.01803 0.116067,0.0267 0.116067,0.248165 0,0.148586 0.02985,0.270158 0.06632,0.270158 0.07244,0 0.09065,-0.390032 0.02607,-0.55833 -0.04763,-0.124125 -0.232061,-0.137682 -0.344422,-0.02532 -0.06137,0.06137 -0.07959,0.06147 -0.07959,6.63e-4 0,-0.04982 -0.09825,-0.07526 -0.265296,-0.06872 l -0.265297,0.0104 v 0.320743 c 0,0.3769 0.115262,0.434072 0.145226,0.07203 z m 1.977146,0.182425 c 0,-0.03648 -0.02985,-0.06632 -0.06632,-0.06632 -0.03685,0 -0.06632,-0.176867 -0.06632,-0.397945 0,-0.430377 -0.0432,-0.476406 -0.238436,-0.254048 -0.113427,0.12918 -0.114478,0.139566 -0.01028,0.101569 0.09954,-0.03631 0.116068,0 0.116068,0.254048 0,0.163005 -0.02985,0.296376 -0.06632,0.296376 -0.03648,0 -0.06632,0.02985 -0.06632,0.06632 0,0.03648 0.08954,0.06632 0.198972,0.06632 0.109435,0 0.198972,-0.02985 0.198972,-0.06632 z m 0.516358,-0.366036 c 0.117264,-0.237799 0.213208,-0.44672 0.213208,-0.464269 0,-0.01755 -0.134307,-0.03191 -0.298459,-0.03191 -0.332412,0 -0.410286,0.112513 -0.100379,0.145025 l 0.198078,0.02079 -0.164916,0.354787 c -0.183034,0.39376 -0.186955,0.40794 -0.112828,0.40794 0.02865,0 0.148032,-0.194562 0.265296,-0.43236 z m 0.7438,0.366036 c 0,-0.03648 -0.02985,-0.06632 -0.06632,-0.06632 -0.03685,0 -0.06632,-0.176867 -0.06632,-0.397945 0,-0.430377 -0.0432,-0.476406 -0.238435,-0.254048 -0.113428,0.12918 -0.114479,0.139566 -0.01028,0.101569 0.09954,-0.03631 0.116067,0 0.116067,0.254048 0,0.163005 -0.02985,0.296376 -0.06632,0.296376 -0.03648,0 -0.06632,0.02985 -0.06632,0.06632 0,0.03648 0.08954,0.06632 0.198972,0.06632 0.109435,0 0.198972,-0.02985 0.198972,-0.06632 z m 0.625342,-0.0379 c 0.185121,-0.185124 0.07583,-0.559019 -0.163406,-0.559019 -0.07167,0 -0.130315,-0.02985 -0.130315,-0.06632 0,-0.03648 0.07461,-0.06632 0.16581,-0.06632 0.0912,0 0.165811,-0.02985 0.165811,-0.06633 0,-0.03648 -0.104461,-0.06632 -0.232135,-0.06632 -0.184619,0 -0.232134,0.02604 -0.232134,0.127223 0,0.06997 -0.01703,0.171601 -0.03784,0.22584 -0.02922,0.07615 0.01234,0.09628 0.182391,0.08833 0.193444,-0.009 0.220235,0.0099 0.220235,0.155523 0,0.144859 -0.02724,0.164577 -0.215554,0.156034 -0.213927,-0.0097 -0.291696,0.06749 -0.132648,0.13166 0.159943,0.06454 0.30652,0.04297 0.409788,-0.06029 z m 0.752238,0.02132 c 0.113647,-0.139918 0.06465,-0.721428 -0.06782,-0.804996 -0.162493,-0.102497 -0.347231,0.02715 -0.351092,0.246381 -0.0017,0.09474 -0.02405,0.193282 -0.04974,0.218976 -0.07259,0.07259 -0.0551,0.254976 0.03288,0.342955 0.103875,0.103877 0.350235,0.102 0.435777,-0.0033 z m -0.360444,-0.153688 c -0.02194,-0.05717 -0.01194,-0.131899 0.02223,-0.166063 0.08376,-0.08375 0.322019,0.09356 0.260176,0.19362 -0.06813,0.110237 -0.235804,0.09387 -0.282403,-0.02756 z m 0.08965,-0.336834 c -0.09112,-0.09112 -0.04386,-0.231856 0.07047,-0.209836 0.06384,0.01229 0.116067,0.06422 0.116067,0.115404 0,0.104712 -0.117015,0.163953 -0.186536,0.09443 z m 1.015588,0.507101 c 0,-0.03648 -0.02985,-0.06632 -0.06632,-0.06632 -0.03685,0 -0.06632,-0.176867 -0.06632,-0.397945 0,-0.430377 -0.0432,-0.476406 -0.238436,-0.254048 -0.113427,0.12918 -0.114479,0.139566 -0.01028,0.101569 0.09954,-0.03631 0.116067,0 0.116067,0.254048 0,0.163005 -0.02985,0.296376 -0.06632,0.296376 -0.03648,0 -0.06632,0.02985 -0.06632,0.06632 0,0.03648 0.08954,0.06632 0.198973,0.06632 0.109434,0 0.198972,-0.02985 0.198972,-0.06632 z m 0.67527,-0.04974 c 0.05149,-0.217318 -0.02294,-0.812524 -0.101335,-0.810375 -0.07745,0.0021 -0.441287,0.55061 -0.441287,0.665244 0,0.03422 0.08954,0.06223 0.198972,0.06223 0.132649,0 0.198973,0.03316 0.198973,0.09949 0,0.137914 0.111089,0.12518 0.144677,-0.01658 z m -0.348204,-0.331624 c 0.176335,-0.308062 0.20147,-0.320412 0.202512,-0.09949 8.15e-4,0.172914 -0.02569,0.215553 -0.133966,0.215553 -0.109648,0 -0.122513,-0.02179 -0.06855,-0.116067 z m 1.264713,0.381364 c 0,-0.03648 -0.126845,-0.06733 -0.281878,-0.06855 l -0.281877,-0.0023 0.248715,-0.203177 c 0.255535,-0.208756 0.30881,-0.368988 0.169127,-0.508673 -0.11025,-0.110251 -0.351819,-0.09961 -0.450971,0.01986 -0.0711,0.08568 -0.05498,0.09394 0.116483,0.05964 0.310939,-0.06219 0.336406,0.08803 0.05814,0.342949 -0.344516,0.315616 -0.320952,0.426503 0.09064,0.426503 0.182391,0 0.331621,-0.02984 0.331621,-0.06632 z M -50.030596,11.818537 c -0.07896,-0.03184 -0.175052,-0.112022 -0.213536,-0.178187 -0.03848,-0.06616 -0.07088,-0.0928 -0.07199,-0.05919 -0.0034,0.104295 0.212041,0.303897 0.323303,0.299473 0.07161,-0.0029 0.05941,-0.0229 -0.03778,-0.06209 z m 0.3757,-0.301868 c 0,-0.193972 -0.165043,-0.3614 -0.356256,-0.3614 -0.157118,0 -0.30831,0.113441 -0.304969,0.228818 0.0011,0.0383 0.03244,0.01741 0.06962,-0.04643 0.0776,-0.133232 0.328407,-0.153766 0.445692,-0.03648 0.103492,0.103492 0.101804,0.333239 -0.0033,0.451123 -0.07053,0.07909 -0.06558,0.07986 0.03316,0.0052 0.06384,-0.0483 0.116068,-0.156651 0.116068,-0.240777 z m -0.305552,0.09698 c 0.05851,0.04856 0.07869,0.01888 0.07646,-0.112393 -0.002,-0.115596 -0.04389,-0.186238 -0.119106,-0.200716 -0.09251,-0.01781 -0.115004,0.0224 -0.110831,0.19807 0.0029,0.121227 0.0207,0.181861 0.03961,0.134744 0.02347,-0.0585 0.05959,-0.06475 0.113869,-0.01971 z m -0.09239,-0.193083 c 0,-0.03648 0.02985,-0.06632 0.06632,-0.06632 0.03648,0 0.06632,0.02985 0.06632,0.06632 0,0.03648 -0.02985,0.06632 -0.06632,0.06632 -0.03648,0 -0.06632,-0.02984 -0.06632,-0.06632 z M -6.3585155,8.6216883 c 0.04377,-0.04377 0.07959,-0.230943 0.07959,-0.415932 v -0.336343 l 0.411796,-0.07826 c 0.873657,-0.166032 1.780841,-0.77161 2.278043,-1.520675 0.281441,-0.424009 0.556567,-1.145874 0.558643,-1.465744 l 0.0014,-0.215553 h 0.351518 c 0.382699,0 0.510696,-0.07754 0.510696,-0.309391 0,-0.1919673 -0.180888,-0.2875265 -0.544269,-0.2875265 h -0.287698 l -0.08401,-0.4428603 c -0.250391,-1.319944 -1.448689,-2.5072889 -2.778619,-2.75322201 l -0.411549,-0.076104 -0.01956,-0.3633454 c -0.02197,-0.4081811 -0.157079,-0.5684301 -0.36776,-0.4361957 -0.08351,0.052417 -0.121646,0.1778925 -0.135958,0.4473488 -0.01864,0.3509355 -0.03042,0.3744984 -0.187278,0.3744984 -0.283346,0 -1.152665,0.32465591 -1.517176,0.56660431 -0.77742,0.5160228 -1.393828,1.4204118 -1.5665745,2.298472 l -0.07571,0.3848052 h -0.301182 c -0.304015,0 -0.543767,0.1340365 -0.543767,0.3040005 0,0.175954 0.208235,0.292917 0.521496,0.292917 h 0.313048 l 0.106823,0.455174 c 0.3309645,1.41024 1.4070065,2.473712 2.7866195,2.754064 l 0.41727,0.08479 0.01854,0.326125 c 0.0102,0.17937 0.03165,0.363434 0.04766,0.409032 0.03709,0.105601 0.313485,0.107794 0.417964,0.0033 z m -0.931579,-1.385111 c -0.445549,-0.105035 -1.064025,-0.466541 -1.41739,-0.828479 -0.38409,-0.393409 -0.72411,-1.022689 -0.812592,-1.503877 l -0.05793,-0.315039 h 0.31832 c 0.322669,0 0.526768,-0.116018 0.526768,-0.299435 0,-0.152454 -0.27917,-0.2974825 -0.572631,-0.2974825 h -0.277818 l 0.0936,-0.401233 c 0.272522,-1.1682017 1.224309,-2.0602836 2.431531,-2.2790046 l 0.248716,-0.045062 v 0.3654545 c 0,0.2934344 0.02528,0.3789852 0.128288,0.4341125 0.165914,0.088794 0.174779,0.087736 0.298081,-0.035566 0.06655,-0.066553 0.104224,-0.2223721 0.104224,-0.4311067 0,-0.1797855 0.02238,-0.3265289 0.04974,-0.3260958 0.02736,4.643e-4 0.198972,0.040709 0.381364,0.089503 1.048657,0.2805404 1.8508,1.0365344 2.162526,2.0381141 0.177071,0.5689289 0.17172,0.5908841 -0.144001,0.5908841 -0.353142,0 -0.526233,0.09817 -0.526233,0.2984584 0,0.200288 0.173091,0.298459 0.526233,0.298459 0.309877,0 0.315769,0.01936 0.162854,0.535136 -0.158749,0.535451 -0.334039,0.840839 -0.712063,1.240544 -0.399291,0.422191 -0.758776,0.646536 -1.31179,0.818653 -0.579122,0.180244 -0.588633,0.177036 -0.588633,-0.198545 0,-0.359148 -0.101792,-0.495314 -0.344551,-0.460899 -0.136582,0.01936 -0.155,0.06233 -0.172771,0.403035 -0.02185,0.41886 -0.02403,0.420227 -0.493846,0.309471 z m 1.303269,-2.252766 c 0.624323,-0.548163 0.337391,-1.4938707 -0.47699,-1.5721225 -0.572172,-0.054978 -1.00816,0.3192219 -1.008697,0.8657475 -5.31e-4,0.538946 0.382366,0.907971 0.942562,0.908414 0.254245,1.99e-4 0.355821,-0.03758 0.543125,-0.202039 z m -0.852098,-0.475711 c -0.136453,-0.194815 -0.130235,-0.289875 0.0294,-0.4495113 0.241313,-0.241313 0.596917,-0.103022 0.596917,0.2321343 0,0.343405 -0.432825,0.493626 -0.626319,0.217377 z m -14.7297935,3.676725 c -0.122936,-0.307247 -0.474388,-0.652947 -0.728701,-0.716776 -0.09053,-0.02272 -0.164594,-0.06079 -0.164594,-0.0846 0,-0.02381 0.507709,-0.550335 1.128243,-1.170063 l 1.128242,-1.126774 h 0.336329 c 0.296058,0 0.359501,0.02593 0.52986,0.2166 0.155367,0.173886 0.193532,0.277773 0.193532,0.526806 v 0.310206 l -1.155889,1.161176 -1.155888,1.161176 z m -23.642466,-1.473272 v -1.591779 h 1.094348 1.094348 v 1.591779 1.591779 h -1.094348 -1.094348 z m 2.719289,0.0016 v -1.593387 h 1.12871 1.128711 l -0.01778,1.575197 -0.01778,1.575198 -1.110929,0.01819 -1.110929,0.01818 z m 2.765087,1.547542 c -0.02519,-0.02519 -0.0458,-0.742203 -0.0458,-1.593363 v -1.547568 h 1.128711 1.12871 l -0.01778,1.575198 -0.01778,1.575198 -1.065131,0.01816 c -0.585821,0.01 -1.085739,-0.0024 -1.110928,-0.02764 z m 2.719288,0 c -0.02519,-0.02519 -0.0458,-0.742203 -0.0458,-1.593363 v -1.547568 h 1.12871 1.128711 l -0.01778,1.575198 -0.01778,1.575198 -1.065131,0.01816 c -0.585822,0.01 -1.08574,-0.0024 -1.110929,-0.02764 z m 11.99382,-0.174445 c -0.19686,-0.196861 -0.233926,-0.280207 -0.233926,-0.526007 0,-0.24332 0.03651,-0.32747 0.218711,-0.504064 0.17714,-0.171691 0.272949,-0.211983 0.504064,-0.211983 0.2381,0 0.324087,0.03874 0.519278,0.233926 0.215583,0.215583 0.231234,0.2578 0.199607,0.5384 -0.02301,0.204145 -0.08878,0.358932 -0.19959,0.469744 -0.110812,0.110812 -0.265599,0.176579 -0.469745,0.19959 -0.280599,0.03163 -0.322816,0.01598 -0.538399,-0.199606 z m -35.670724,0.108934 c -0.02563,-0.02563 -0.0466,-0.698237 -0.0466,-1.49468 v -1.448081 h 0.631348 0.631348 l -0.01785,1.475711 -0.01785,1.475712 -0.566896,0.01897 c -0.311793,0.01043 -0.587867,-0.002 -0.613498,-0.02764 z m 1.677825,-1.450464 v -1.492297 h 0.596917 0.596917 v 1.492292 1.492293 h -0.596917 -0.596917 z m 1.658102,0 v -1.492297 h 0.596917 0.596918 v 1.492292 1.492293 h -0.596918 -0.596917 z m 1.658103,0 v -1.492297 h 0.596917 0.596917 v 1.492292 1.492293 h -0.596917 -0.596917 z m 1.658103,0 v -1.492297 h 0.596917 0.596917 v 1.492292 1.492293 h -0.596917 -0.596917 z m 30.70671,0.361512 c -0.131261,-0.31689 -0.392816,-0.598442 -0.6721,-0.723481 l -0.247836,-0.11096 1.143061,-1.14166 c 0.945652,-0.944494 1.182703,-1.1476085 1.372602,-1.1760948 0.454202,-0.068135 0.911268,0.4266508 0.819231,0.8868378 -0.0273,0.136489 -0.376229,0.530705 -1.182659,1.336148 l -1.143937,1.142536 z m -3.487294,-0.155907 c -0.184865,-0.184865 -0.225502,-0.2757 -0.225502,-0.504063 0,-0.228364 0.04064,-0.319199 0.225502,-0.504064 0.184865,-0.184865 0.2757,-0.225502 0.504063,-0.225502 0.228364,0 0.319198,0.04064 0.504064,0.225502 0.184865,0.184865 0.225502,0.2757 0.225502,0.504064 0,0.228363 -0.04064,0.319198 -0.225502,0.504063 -0.184866,0.184865 -0.2757,0.225502 -0.504064,0.225502 -0.228363,0 -0.319198,-0.04064 -0.504063,-0.225502 z m 1.678015,-1.02261 c -0.133183,-0.301867 -0.331328,-0.499168 -0.663632,-0.660803 l -0.244853,-0.119098 1.148302,-1.1415276 1.148303,-1.1415269 h 0.315844 c 0.259375,0 0.3499,0.034055 0.506319,0.1904743 0.219475,0.2194744 0.297377,0.4611588 0.232555,0.7214823 -0.02803,0.1125732 -0.467757,0.6076459 -1.148732,1.2933199 -0.606824,0.611011 -1.121104,1.110929 -1.142844,1.110929 -0.02174,0 -0.08981,-0.113963 -0.151262,-0.25325 z m -3.143907,0.138841 c -0.228733,-0.04171 -0.550403,-0.451237 -0.550113,-0.700369 7.63e-4,-0.656444 0.815721,-1.017684 1.250887,-0.554471 0.519158,0.552618 0.05049,1.39183 -0.700774,1.25484 z m 9.627162,-0.698066 c -0.0818,-0.269284 -0.364097,-0.579086 -0.668774,-0.733928 l -0.299363,-0.15214 0.460659,-0.306317 c 0.614926,-0.4088981 1.363401,-0.7807575 1.571501,-0.7807575 0.150523,0 0.163979,0.01968 0.124711,0.1823913 -0.09769,0.4048126 -0.964691,1.9399802 -1.095616,1.9399802 -0.02628,0 -0.06819,-0.06715 -0.09312,-0.149229 z m -8.213752,-0.475738 c -0.06147,-0.244921 -0.356222,-0.558309 -0.679747,-0.72273 L -27.835994,4.022187 -26.686743,2.8797163 -25.53749,1.737245 h 0.309696 c 0.436262,0 0.708943,0.2463649 0.758408,0.6852143 l 0.03563,0.3161286 -1.150602,1.1574314 c -0.632831,0.636587 -1.170867,1.157431 -1.195635,1.157431 -0.02477,0 -0.06318,-0.07231 -0.08536,-0.160698 z m -33.79791,-0.519124 c 0.0017,-0.3386269 0.209959,-1.3112189 0.408255,-1.906818 l 0.14353,-0.4311068 0.09569,0.2321344 c 0.16391,0.397637 0.417848,1.4714933 0.458752,1.9399804 l 0.03909,0.447688 h -0.573375 -0.573374 l 0.0014,-0.281878 z m 1.657539,0.06632 c 0.0021,-0.521434 0.496461,-2.4326714 0.601222,-2.3244066 0.121693,0.1257618 0.445999,1.4734605 0.551358,2.2912446 l 0.03204,0.248716 h -0.592747 -0.592747 l 8.71e-4,-0.215554 z m 1.657231,0.05707 c 0,-0.4903127 0.503812,-2.4845521 0.601452,-2.3807264 0.142021,0.1510187 0.592383,2.0147184 0.592383,2.4514114 0,0.06635 -0.145856,0.0878 -0.596918,0.0878 -0.585136,0 -0.596917,-0.0031 -0.596917,-0.158485 z m 1.658356,0.07558 c 0.0013,-0.413074 0.384591,-2.0933658 0.548156,-2.4027731 0.06279,-0.1187825 0.07812,-0.1062526 0.162227,0.1326482 0.140563,0.3992513 0.403489,1.541503 0.453842,1.9716669 l 0.04464,0.381363 h -0.60456 c -0.439566,0 -0.60449,-0.02263 -0.604306,-0.08291 z m 1.695857,-0.198972 c 0.127938,-0.9112901 0.425687,-2.1290492 0.55189,-2.2571708 0.105382,-0.1069848 0.603937,1.8295825 0.603937,2.3459108 v 0.193137 h -0.597701 -0.597701 z m 9.860867,0.164167 -1.077767,-0.01822 v -0.37069 c 0,-0.8840447 0.775379,-1.43845 1.539226,-1.1005651 0.403203,0.1783568 0.602652,0.4742274 0.636665,0.9444587 0.04364,0.6032684 0.119514,0.5656104 -1.098124,0.5450204 z m 1.641522,-0.348689 c 0,-0.4305401 0.120815,-0.7113948 0.418429,-0.9727025 0.3235,-0.284037 0.723235,-0.344461 1.116132,-0.1687153 0.159144,0.071186 0.34442,0.1914777 0.411725,0.2673153 0.170305,0.1918949 0.302371,0.5917663 0.305823,0.9259765 l 0.0029,0.281877 h -1.12751 -1.12751 z m 2.719288,0.05957 c 0,-0.6403366 0.310143,-1.093703 0.861114,-1.2587784 0.697487,-0.208972 1.388647,0.3955597 1.39245,1.2179214 l 0.0015,0.31504 h -1.12751 -1.12751 z m 2.7222,-0.0077 c 0.0034,-0.3342097 0.135517,-0.7340811 0.305823,-0.925976 0.06731,-0.075838 0.252581,-0.1961297 0.411724,-0.2673153 0.392898,-0.1757457 0.792633,-0.1153217 1.116133,0.1687153 0.297614,0.2613077 0.418429,0.5421624 0.418429,0.972703 v 0.333751 h -1.12751 -1.12751 l 0.0029,-0.281878 z m 16.644441,0.05969 c 0,-0.1841506 -0.413444,-0.6564579 -0.668335,-0.7634725 -0.142369,-0.059773 -0.259157,-0.1299501 -0.259528,-0.1559499 -0.0022,-0.1520347 1.714484,-1.1134001 1.988134,-1.1134001 0.127934,0 0.138868,0.024186 0.09744,0.2155534 -0.06049,0.2794321 -0.3701,0.8951275 -0.733741,1.4591305 -0.275408,0.4271556 -0.42397,0.5526546 -0.42397,0.3581526 z M -22.25107,3.0421779 c -0.130414,-0.2948233 -0.588329,-0.7080159 -0.784649,-0.7080159 -0.185697,0 -0.07371,-0.1165168 0.433808,-0.4513316 0.541231,-0.3570591 1.092227,-0.6331352 1.42688,-0.7149368 0.189305,-0.046274 0.191899,-0.043193 0.150039,0.1782269 -0.05614,0.2969668 -0.513817,1.1954198 -0.836303,1.6417267 l -0.256674,0.3552273 z m -1.764509,-1.0947617 c -0.144849,-0.3212183 -0.321453,-0.4975197 -0.666485,-0.6653463 l -0.255937,-0.1244897 0.326038,-0.23722871 c 0.387744,-0.2821275 1.378366,-0.8074423 1.635939,-0.8675194 0.152328,-0.035529 0.182391,-0.02069 0.182391,0.090028 0,0.2868146 -0.561024,1.39714391 -0.956635,1.89328741 L -23.89418,2.21663 Z M -56.04392,-7.7163936 c -1.191734,-1.0774578 -2.166789,-2.0063369 -2.166789,-2.0641769 0,-0.057839 0.183577,-0.3014075 0.407949,-0.5412615 1.519626,-1.624485 2.42153,-3.597546 2.649986,-5.797274 0.04478,-0.431147 0.115257,-0.788059 0.166513,-0.843238 0.07726,-0.08318 0.469554,-0.06031 3.003096,0.175089 1.602821,0.148921 2.946533,0.290735 2.986027,0.315143 0.101706,0.06286 0.08899,0.760851 -0.03046,1.672055 -0.352922,2.692242 -1.296667,5.020236 -2.901782,7.1580061 -0.616115,0.8205705 -1.645855,1.8846712 -1.823815,1.8846712 -0.06933,0 -1.07859,-0.8631081 -2.290729,-1.9590139 z m 2.367424,-0.7915107 c 1.397607,-1.6474207 2.480549,-4.0513437 2.831392,-6.2851487 0.08653,-0.550914 0.04026,-0.713971 -0.202601,-0.713971 -0.189547,0 -0.259177,0.14612 -0.366557,0.769231 -0.357596,2.075064 -1.264517,4.110937 -2.529016,5.6771807 -0.652022,0.8076142 -0.655095,0.8137505 -0.490045,0.9788007 0.183077,0.1830764 0.292107,0.1216921 0.756827,-0.4260927 z m -2.102311,-1.2029443 c 0.615954,-0.6531014 1.631459,-2.4461224 2.080717,-3.6738044 0.246926,-0.674771 0.594338,-1.990785 0.594338,-2.251381 0,-0.252915 -0.155085,-0.376548 -0.356961,-0.284567 -0.121696,0.05545 -0.171125,0.158509 -0.235296,0.490601 -0.348288,1.802419 -1.266184,3.812132 -2.391097,5.235255 -0.293084,0.370778 -0.317479,0.4638162 -0.162304,0.6189914 0.151218,0.1512189 0.218897,0.13179 0.470603,-0.135095 z m 15.188368,3.8477178 c -1.846372,-0.3336275 -3.478613,-1.7530736 -4.093726,-3.5600296 -1.046604,-3.0745026 0.835582,-6.3864866 4.000981,-7.0403176 1.987405,-0.410509 4.027941,0.312386 5.295884,1.87616 1.720295,2.121664 1.609419,5.1352184 -0.261921,7.1189381 -1.274433,1.3509664 -3.087951,1.9401222 -4.941218,1.6052491 z m 1.56611,-0.5806013 c 0.959382,-0.4020322 1.257486,-1.5917369 0.593276,-2.3677164 -0.304202,-0.3553918 -0.672619,-0.5245203 -1.14258,-0.5245203 -0.469961,0 -0.838379,0.1691285 -1.14258,0.5245203 -0.659428,0.7703924 -0.370667,1.9502479 0.578825,2.3650376 0.260857,0.1139568 0.844163,0.1153608 1.113059,0.00268 z m -0.917375,-0.534449 c -0.353603,-0.1540191 -0.560467,-0.4665238 -0.560467,-0.8466823 0,-0.5474956 0.308903,-0.9084075 0.827535,-0.966865 0.592013,-0.066729 1.02954,0.3431411 1.02954,0.9644601 0,0.2675966 -0.0362,0.3783008 -0.179294,0.5483638 -0.305228,0.3627431 -0.719155,0.474151 -1.117314,0.3007234 z m 0.694878,-0.6120561 c 0.0756,-0.096115 0.137462,-0.2114731 0.137462,-0.256352 0,-0.1761336 -0.274586,-0.4311067 -0.464269,-0.4311067 -0.189683,0 -0.464269,0.2549731 -0.464269,0.4311067 0,0.1761336 0.274586,0.4311067 0.464269,0.4311067 0.125555,0 0.235655,-0.058874 0.326807,-0.1747547 z m -2.511225,-0.6045536 c 0.23559,-0.119465 0.428472,-0.2816122 0.559066,-0.4699819 0.182214,-0.2628259 0.199383,-0.3346344 0.199383,-0.8338951 0,-0.4853472 -0.02041,-0.5771532 -0.182957,-0.8227722 -0.292644,-0.442214 -0.646214,-0.636829 -1.203867,-0.662643 -0.434556,-0.02012 -0.497721,-0.0051 -0.832152,0.198219 -0.278338,0.169191 -0.404682,0.302136 -0.547174,0.575761 -0.684911,1.3152227 0.682161,2.6874773 2.007701,2.0153122 z m -1.132823,-0.4691761 c -0.305954,-0.1601595 -0.54913,-0.6173455 -0.507262,-0.9536863 0.0842,-0.6764428 0.851725,-1.0634548 1.42086,-0.7164488 0.654977,0.3993446 0.626131,1.3343998 -0.05167,1.6749396 -0.296036,0.1487332 -0.571555,0.1471978 -0.861927,-0.0048 z m 0.7306,-0.5422666 c 0.161141,-0.1611404 0.171772,-0.4437547 0.02288,-0.6082757 -0.239449,-0.2645878 -0.752448,-0.053362 -0.752448,0.3098172 0,0.212852 0.218255,0.4311067 0.431107,0.4311067 0.0912,0 0.225502,-0.059692 0.298458,-0.1326482 z m 6.068657,1.0692216 c 1.11316,-0.5106393 1.205693,-2.0149961 0.162929,-2.6488521 -0.334431,-0.203288 -0.397596,-0.218333 -0.832153,-0.198219 -0.557652,0.02581 -0.911222,0.220429 -1.203866,0.662643 -0.162543,0.245619 -0.182958,0.337425 -0.182958,0.8227722 0,0.4992607 0.01717,0.5710692 0.199383,0.8338951 0.396031,0.5712376 1.239334,0.8109482 1.856665,0.5277608 z m -1.02331,-0.5184297 c -0.318415,-0.1675745 -0.482912,-0.4213186 -0.515098,-0.7945668 -0.06399,-0.7420736 0.696501,-1.2425596 1.367883,-0.9002136 0.851697,0.4342913 0.606071,1.6896781 -0.349545,1.7865153 -0.183445,0.01859 -0.351985,-0.012133 -0.50324,-0.091735 z m 0.724851,-0.5507919 c 0.386668,-0.3866676 -0.202513,-0.9870105 -0.608275,-0.6197995 -0.264589,0.2394486 -0.05336,0.7524477 0.309817,0.7524477 0.09119,0 0.225502,-0.059692 0.298458,-0.1326482 z m -2.799991,-1.3636705 c 0.396059,-0.277411 0.431492,-0.818136 0.07336,-1.119486 -0.604734,-0.50885 -1.472732,0.211684 -1.056594,0.877089 0.211511,0.338206 0.681149,0.453986 0.983234,0.242397 z m -2.572386,-0.941092 c 0.50194,-0.264103 0.749461,-0.634584 0.783751,-1.173092 0.01478,-0.23218 -0.0094,-0.53212 -0.05377,-0.66653 -0.189166,-0.57318 -0.792478,-0.982437 -1.439699,-0.976621 -1.348454,0.01212 -1.98125,1.65404 -0.997824,2.589068 0.464589,0.441725 1.131222,0.530415 1.707546,0.227175 z m -1.119504,-0.488944 c -0.352387,-0.178299 -0.575777,-0.598556 -0.515526,-0.969841 0.144656,-0.891412 1.295459,-1.107866 1.76816,-0.332573 0.491419,0.805991 -0.40064,1.7335 -1.252634,1.302414 z m 0.721683,-0.522499 c 0.281791,-0.281791 0.09461,-0.729565 -0.304976,-0.729565 -0.38788,0 -0.553319,0.418178 -0.28038,0.708709 0.177235,0.188658 0.409286,0.196926 0.585356,0.02086 z m 6.021044,1.090986 c 0.809605,-0.337676 1.157578,-1.257386 0.781413,-2.065314 -0.447258,-0.96062 -1.765666,-1.135413 -2.474523,-0.328069 -0.270358,0.307921 -0.368391,0.635572 -0.337117,1.126727 0.02069,0.324892 0.06924,0.470997 0.23808,0.716394 0.388408,0.564531 1.177236,0.806734 1.792147,0.550262 z m -0.814601,-0.476345 c -0.575215,-0.144022 -0.874886,-0.884847 -0.564113,-1.394556 0.482764,-0.791796 1.648029,-0.549691 1.771115,0.367981 0.08614,0.64224 -0.557073,1.189305 -1.207002,1.026575 z m 0.551249,-0.617225 c 0.28067,-0.261484 0.109123,-0.726981 -0.267909,-0.726981 -0.409189,0 -0.601885,0.444181 -0.316502,0.729565 0.170066,0.170065 0.400186,0.169048 0.584411,-0.0026 z m -2.574134,-0.599906 c 0.370027,-0.167755 0.572615,-0.35297 0.737259,-0.674037 0.515877,-1.005994 -0.20603,-2.192893 -1.334176,-2.193541 -1.120887,-6.63e-4 -1.8455,1.196584 -1.33118,2.199415 0.241924,0.471707 0.791585,0.803471 1.33118,0.803471 0.164152,0 0.432765,-0.06089 0.596917,-0.135308 z m -0.9617,-0.485998 c -0.34716,-0.154297 -0.51645,-0.398027 -0.548988,-0.790391 -0.02016,-0.24305 0.0037,-0.418374 0.0758,-0.557862 0.326914,-0.632181 1.346087,-0.637875 1.671118,-0.0093 0.158588,0.306676 0.102939,0.86557 -0.109079,1.09549 -0.303828,0.329484 -0.714708,0.428387 -1.088849,0.262099 z m 0.566595,-0.504811 c 0.322904,-0.172813 0.293374,-0.684466 -0.0444,-0.769241 -0.528415,-0.132624 -0.834209,0.496707 -0.372154,0.765904 0.148633,0.0866 0.259327,0.08748 0.416552,0.0033 z m 12.161002,8.1328564 -0.225502,-0.225502 v -4.8880874 -4.888087 l 0.225502,-0.225502 0.225502,-0.225502 h 3.790401 c 3.310954,0 3.815813,0.01314 3.991304,0.103892 0.396509,0.205042 0.389462,0.111155 0.389056,5.183326 -2.65e-4,3.0439576 -0.02434,4.7145552 -0.07039,4.8804027 -0.04705,0.1694428 -0.139401,0.2944671 -0.281508,0.3811155 -0.202957,0.1237522 -0.364811,0.12896 -4.015171,0.1291981 l -3.803688,2.48e-4 z m 3.409557,-1.3496957 0.02039,-0.2818775 h -1.197648 -1.197647 v 0.2999886 0.2999893 l 1.177253,-0.018112 1.177253,-0.018111 z m 1.658103,0 0.0204,-0.2818775 h -0.401758 -0.401759 v 0.3017681 0.3017687 l 0.381364,-0.019891 0.381364,-0.019891 z m 2.068815,0.016581 v -0.2984585 h -0.397945 -0.397945 v 0.2542422 c 0,0.1398338 0.0199,0.2741401 0.04422,0.2984585 0.02432,0.024319 0.203394,0.044216 0.397945,0.044216 h 0.353728 z m -2.219212,-1.261346 c 1.407006,-0.3583346 2.47893,-1.5380977 2.695626,-2.9668157 0.333614,-2.199577 -1.535395,-4.22382 -3.761252,-4.073652 -3.079053,0.20773 -4.473095,3.906971 -2.29364,6.0864252 0.688178,0.6881783 1.516189,1.0410372 2.463891,1.0499916 0.275043,0.0026 0.677962,-0.040578 0.895375,-0.095949 z m -1.539019,-0.5242729 c -0.55383,-0.1343162 -1.054409,-0.4278071 -1.469397,-0.861513 -1.140982,-1.1924448 -1.15444,-2.9414158 -0.03196,-4.1538278 1.304437,-1.408947 3.635641,-1.22535 4.694384,0.369712 0.658152,0.991549 0.671998,2.353895 0.03403,3.348086 -0.673459,1.049494 -2.019015,1.5905183 -3.227055,1.2975428 z m 1.602697,-1.1160528 c 0.732531,-0.377594 1.124766,-1.019425 1.124766,-1.840502 0,-0.824011 -0.405878,-1.474431 -1.14728,-1.838519 -0.316664,-0.155508 -0.458484,-0.184166 -0.906023,-0.183085 -0.445079,0.0011 -0.585189,0.02988 -0.86935,0.178723 -0.42943,0.224935 -0.911343,0.757768 -1.047946,1.158677 -0.348603,1.023093 0.186112,2.213786 1.168794,2.602648 0.491352,0.194435 1.213763,0.1608604 1.677039,-0.07794 z m -1.293749,-0.377017 c -0.728791,-0.221688 -1.18003,-0.864972 -1.106498,-1.577418 0.111801,-1.083258 1.209147,-1.6955 2.168113,-1.209657 0.749854,0.379901 1.033913,1.299416 0.630432,2.040744 -0.338119,0.621237 -1.058586,0.939021 -1.692047,0.746331 z m 12.668335,4.5388468 v -0.2984585 h 1.3596435 1.359645 v 0.2984585 0.2984585 h -1.359645 -1.3596435 z m 4.5100395,-2.4539921 v -2.6861267 h 1.62494 1.624941 v 2.6861267 2.6861265 h -1.624941 -1.62494 z m -57.2377095,1.0094596 v -1.0244794 l 0.983047,-0.5728261 c 0.540676,-0.3150541 1.003287,-0.5728261 1.028024,-0.5728261 0.02474,0 0.04443,0.4551492 0.04377,1.0114427 l -0.0012,1.0114427 -0.964626,0.563755 c -0.530544,0.3100652 -0.992609,0.5737036 -1.026812,0.5858628 -0.03697,0.013143 -0.06219,-0.3933246 -0.06219,-1.0023716 z m 3.632404,0.4299719 -0.977121,-0.5772181 -0.0012,-1.0114427 c -6.37e-4,-0.5562935 0.01767,-1.0114427 0.04069,-1.0114427 0.02302,0 0.485628,0.2579285 1.028024,0.5731743 l 0.986174,0.5731737 v 1.018605 c 0,0.5602325 -0.02238,1.0172017 -0.04974,1.0154865 -0.02736,-0.00172 -0.489448,-0.2628663 -1.026865,-0.580336 z m 49.095266,-1.8290373 c 0,-1.6634669 0.01815,-2.0651229 0.104159,-2.3047629 0.05729,-0.159619 0.125239,-0.4096 0.151001,-0.555513 l 0.04684,-0.265296 1.0759955,-0.01822 1.075995,-0.01822 3.4e-5,0.150872 c 1.8e-5,0.08298 0.05971,0.307883 0.132648,0.499785 0.122409,0.322061 0.132615,0.509638 0.132615,2.4374113 v 2.0884978 h -1.359645 -1.3596435 z m -51.001635,-1.2712229 c -0.75321,-0.210933 -1.393976,-0.77779 -1.668666,-1.476194 -0.134343,-0.34157 -0.151328,-0.519452 -0.175557,-1.838609 -0.01569,-0.854004 0.0018,-1.61548 0.04219,-1.833789 0.15571,-0.842318 0.608998,-1.443407 1.373371,-1.821181 0.449166,-0.221989 0.542082,-0.243565 1.048953,-0.243565 0.480776,0 0.614481,0.02731 0.986742,0.201507 0.553734,0.259123 0.906841,0.581774 1.163322,1.062982 0.271026,0.508497 0.344267,1.012716 0.344267,2.370073 0,1.799871 -0.132019,2.292534 -0.792444,2.957218 -0.598258,0.602114 -1.515209,0.8475468 -2.322179,0.621558 z m 55.5116745,-2.683401 v -1.12751 h 1.62494 1.624941 v 1.12751 1.12751 h -1.624941 -1.62494 z m -4.0889225,-0.182391 c 0.08421,-0.892918 0.5087055,-2.333747 0.8326355,-2.826136 l 0.124833,-0.189753 0.17362,0.296259 c 0.311518,0.531566 0.667517,1.782058 0.802566,2.819116 l 0.04534,0.348202 h -1.01061 -1.0106095 z m 3.4256815,-2.138953 v -0.596917 h 2.354506 2.354505 v 0.596917 0.596917 h -2.354505 -2.354506 z m -54.2680385,-8.72552 c -0.0994,-0.05394 -0.21132,-0.155245 -0.248715,-0.225119 -0.04467,-0.08347 -0.06799,-1.802116 -0.06799,-5.011328 v -4.884285 l 0.193871,-0.19387 0.19387,-0.19387 h 4.884285 c 3.223103,0 4.927682,0.02323 5.011885,0.06829 0.332348,0.177867 0.327947,0.1071 0.327947,5.27414 v 4.818424 l -0.225502,0.225502 -0.225502,0.225502 -4.831711,-0.0027 c -4.134734,-0.0023 -4.857781,-0.01681 -5.012436,-0.100733 z m 2.255483,-0.596379 c 1.228478,-0.512383 1.258087,-2.26817 0.04761,-2.823449 -0.344959,-0.158243 -0.9152,-0.158243 -1.260158,0 -1.193813,0.547636 -1.193813,2.254048 0,2.801684 0.326596,0.14982 0.881637,0.159782 1.212545,0.02176 z m -1.032264,-0.534289 c -0.870147,-0.443903 -0.626081,-1.756737 0.34698,-1.866415 0.760941,-0.08577 1.326333,0.708332 0.997584,1.401121 -0.230056,0.484806 -0.871319,0.706719 -1.344564,0.465294 z m 0.751271,-0.586845 c 0.08954,-0.08954 0.162795,-0.229381 0.162795,-0.310764 0,-0.198634 -0.251106,-0.454978 -0.445682,-0.454978 -0.19442,0 -0.482855,0.277333 -0.482855,0.464269 0,0.178943 0.285326,0.464269 0.464269,0.464269 0.07627,0 0.211935,-0.07326 0.301473,-0.162796 z m 3.597199,1.121134 c 0.32604,-0.135987 0.66486,-0.464665 0.816982,-0.792528 0.160547,-0.34602 0.160547,-0.914138 0,-1.260158 -0.531053,-1.144556 -2.15941,-1.210387 -2.749144,-0.111143 -0.558275,1.040605 0.162049,2.266677 1.331686,2.266677 0.19464,0 0.464853,-0.04628 0.600476,-0.102848 z m -1.04777,-0.550552 c -0.709572,-0.377067 -0.708204,-1.393748 0.0024,-1.750747 0.49671,-0.249555 1.047992,-0.07439 1.306927,0.41526 0.187153,0.353912 0.189465,0.540822 0.01124,0.908979 -0.2399,0.495568 -0.831187,0.686543 -1.320526,0.426508 z m 0.766776,-0.570582 c 0.08954,-0.08954 0.162796,-0.2252 0.162796,-0.301473 0,-0.183006 -0.286892,-0.464269 -0.47356,-0.464269 -0.202488,0 -0.454978,0.252489 -0.454978,0.454974 0,0.214595 0.243723,0.473564 0.445683,0.473564 0.0865,0 0.230522,-0.07326 0.320059,-0.162796 z m 3.564037,1.134546 c 0.345991,-0.144988 0.652692,-0.445722 0.81917,-0.803229 0.264644,-0.568321 0.181819,-1.154491 -0.231331,-1.637163 -0.304863,-0.356165 -0.667501,-0.51778 -1.165946,-0.519625 -0.724356,-0.0027 -1.265422,0.408811 -1.473778,1.120838 -0.279291,0.954433 0.454185,1.926368 1.454968,1.927993 0.210921,3.31e-4 0.479534,-0.03962 0.596917,-0.08881 z m -1.012251,-0.553606 c -0.918625,-0.476343 -0.568212,-1.876723 0.46972,-1.877172 0.266998,-1.32e-4 0.603981,0.199202 0.812354,0.480486 0.183769,0.248072 0.184807,0.779598 0.002,1.024448 -0.331297,0.443736 -0.853984,0.595256 -1.284074,0.372238 z m 0.73195,-0.540457 c 0.31769,-0.257249 0.106937,-0.806225 -0.309512,-0.806225 -0.21855,0 -0.42376,0.224826 -0.42376,0.464269 0,0.397496 0.421778,0.594189 0.733272,0.341956 z m -6.318948,-2.102906 c 0.822915,-0.343228 1.178147,-1.322605 0.773936,-2.133751 -0.55478,-1.113298 -2.156034,-1.117294 -2.709435,-0.0068 -0.519928,1.043359 0.192848,2.23714 1.338582,2.241904 0.192682,8.02e-4 0.461295,-0.04482 0.596917,-0.101391 z m -1.018633,-0.561677 c -0.495694,-0.24537 -0.692331,-0.843655 -0.435889,-1.326234 0.377067,-0.709572 1.393749,-0.708203 1.750747,0.0024 0.252486,0.502543 0.02251,1.14922 -0.480228,1.350376 -0.35095,0.140423 -0.507454,0.135454 -0.83463,-0.0265 z m 0.73764,-0.559457 c 0.20114,-0.20114 0.207515,-0.411132 0.01859,-0.612238 -0.181022,-0.192689 -0.431679,-0.196382 -0.630824,-0.0093 -0.198494,0.186476 -0.195045,0.417197 0.0093,0.621533 0.206574,0.206574 0.396373,0.206574 0.602947,0 z m 3.831227,0.981849 c 0.748005,-0.525717 0.931971,-1.420682 0.443591,-2.158 -0.642391,-0.969834 -2.146847,-0.867075 -2.654357,0.181301 -0.376773,0.778308 -0.0093,1.754085 0.797354,2.117406 0.376555,0.169598 1.070146,0.10055 1.413412,-0.140707 z m -1.278384,-0.43769 c -0.686348,-0.351941 -0.715423,-1.296015 -0.05273,-1.712144 0.282069,-0.177121 0.803335,-0.148835 1.095866,0.05946 0.260405,0.185425 0.445436,0.649786 0.385731,0.968044 -0.08036,0.428348 -0.558867,0.833864 -0.983957,0.833864 -0.08464,0 -0.284847,-0.06715 -0.444911,-0.149229 z m 0.763362,-0.544159 c 0.198882,-0.198882 0.205853,-0.361495 0.02533,-0.590987 -0.09257,-0.117689 -0.200865,-0.174755 -0.331621,-0.174755 -0.429747,0 -0.619632,0.527618 -0.2847,0.791075 0.229492,0.180519 0.392106,0.173549 0.590987,-0.02533 z m 3.61165,1.08576 c 0.401112,-0.181847 0.5845,-0.361975 0.770857,-0.757154 0.473724,-1.004552 -0.25432,-2.165186 -1.362377,-2.171876 -1.318658,-0.008 -2.037275,1.442346 -1.235516,2.493507 0.397613,0.521297 1.210447,0.715058 1.827036,0.435523 z m -1.062221,-0.515178 c -0.897598,-0.476984 -0.575328,-1.86573 0.433177,-1.866669 0.598123,-5.3e-4 1.090283,0.55634 0.994211,1.124986 -0.113578,0.672262 -0.843904,1.051746 -1.427388,0.741683 z m 0.734307,-0.530099 c 0.309291,-0.25045 0.116767,-0.806225 -0.279283,-0.806225 -0.424861,0 -0.611767,0.529506 -0.279234,0.791075 0.215692,0.169664 0.362774,0.173653 0.558517,0.01515 z m -6.427757,-2.077032 c 0.141302,-0.04234 0.380124,-0.182437 0.530716,-0.311338 0.728073,-0.623203 0.697142,-1.794873 -0.06271,-2.375622 -1.018989,-0.778801 -2.467114,-0.07049 -2.467114,1.206724 0,0.656405 0.293101,1.114414 0.895376,1.399139 0.365659,0.172866 0.712404,0.198343 1.103736,0.0811 z m -0.841728,-0.543446 c -0.591821,-0.26792 -0.802869,-1.043251 -0.417377,-1.533325 0.575932,-0.732179 1.779802,-0.302717 1.780206,0.635062 2.72e-4,0.637607 -0.789186,1.157953 -1.362829,0.898263 z m 0.716272,-0.65285 c 0.249749,-0.288836 0.04192,-0.716454 -0.348201,-0.716454 -0.230114,0 -0.464269,0.202904 -0.464269,0.402304 0,0.462317 0.512881,0.660627 0.81247,0.31415 z m 3.602783,1.115366 c 1.335597,-0.621916 1.110225,-2.575081 -0.334439,-2.898382 -0.927312,-0.207524 -1.831194,0.521649 -1.839843,1.484225 -0.01029,1.145311 1.142065,1.894806 2.174282,1.414157 z m -1.092061,-0.518507 c -0.921708,-0.493147 -0.581993,-1.842809 0.464055,-1.843658 0.575649,-4.65e-4 1.024474,0.48816 0.966246,1.051933 -0.07486,0.724779 -0.80256,1.12759 -1.430301,0.791725 z m 0.805484,-0.593924 c 0.15247,-0.180188 0.14654,-0.331141 -0.02139,-0.544635 -0.168182,-0.213809 -0.467578,-0.232955 -0.658427,-0.04211 -0.181088,0.181088 -0.166513,0.436434 0.0365,0.639446 0.19626,0.196259 0.450265,0.17545 0.643323,-0.0527 z m 3.740424,1.032586 c 0.593583,-0.366985 0.869155,-1.069266 0.687656,-1.752458 -0.111823,-0.420916 -0.653523,-0.942545 -1.093991,-1.053457 -1.160708,-0.292269 -2.201395,0.779571 -1.868434,1.924367 0.122242,0.420294 0.542475,0.875746 0.945775,1.025041 0.404381,0.149694 0.950074,0.09077 1.328994,-0.143493 z m -1.218738,-0.423094 c -0.403688,-0.183252 -0.562223,-0.467072 -0.531144,-0.950888 0.02172,-0.338155 0.05388,-0.413897 0.265583,-0.625603 0.211707,-0.211707 0.287449,-0.243861 0.625603,-0.265584 0.30436,-0.01955 0.430708,0.0041 0.6048,0.113361 0.292565,0.183562 0.501711,0.650281 0.444131,0.991097 -0.05741,0.339776 -0.377538,0.71383 -0.683702,0.798862 -0.331935,0.09219 -0.399917,0.08645 -0.725271,-0.06124 z m 0.601694,-0.473982 c 0.437716,-0.199437 0.301997,-0.854899 -0.177014,-0.854899 -0.437767,0 -0.613565,0.519156 -0.267876,0.791075 0.202146,0.159008 0.227881,0.1627 0.44489,0.06382 z m 8.400435,8.075591 c 0,-0.0128 0.02839,-0.109795 0.06308,-0.215554 0.03469,-0.105758 0.09567,-0.31961 0.135491,-0.475226 l 0.07241,-0.282939 1.800184,0.01764 1.800184,0.01764 0.07598,0.298459 c 0.04179,0.164152 0.09653,0.380534 0.121637,0.480849 l 0.04565,0.182392 h -2.05731 c -1.131522,0 -2.057311,-0.01047 -2.057311,-0.02326 z m 5.637549,-0.01933 c 0,-0.02343 0.06111,-0.247797 0.135806,-0.498603 l 0.135806,-0.45601 1.596131,0.01775 1.596131,0.01775 0.124162,0.397945 c 0.06829,0.218869 0.1246,0.435252 0.125138,0.48085 7.56e-4,0.06437 -0.414134,0.08291 -1.856099,0.08291 -1.021391,0 -1.857075,-0.01917 -1.857075,-0.04259 z m 16.983098,-0.106637 c -0.03264,-0.08208 -0.09523,-0.289747 -0.139068,-0.461492 -0.08887,-0.348115 -0.437325,-0.797958 -0.738933,-0.953926 -0.469242,-0.242654 -1.22706,-0.235742 -1.757637,0.01603 -0.45887,0.217748 -0.61349,-0.102381 -0.293304,-0.607263 0.231778,-0.365475 0.364778,-0.917923 0.301803,-1.253609 -0.07555,-0.402724 -0.381895,-0.802473 -0.803963,-1.049099 -0.325922,-0.190443 -0.386659,-0.255195 -0.386659,-0.412213 0,-0.170661 0.03712,-0.198782 0.442715,-0.335385 1.124415,-0.378698 1.280991,-0.676136 1.081579,-2.054607 -0.06111,-0.422449 -0.09425,-0.812034 -0.07364,-0.865744 0.07036,-0.183344 0.321182,-0.09794 0.682667,0.232434 0.647713,0.591973 1.722197,0.777677 2.476203,0.427964 0.398329,-0.184748 0.753323,-0.489366 0.902738,-0.774634 0.102172,-0.195073 0.334453,-0.245154 0.476804,-0.102803 0.04514,0.04514 0.08059,0.267618 0.0819,0.514012 0.0031,0.574429 0.154843,1.404354 0.302579,1.654452 0.154711,0.261904 0.608565,0.454253 1.19272,0.505488 0.708218,0.06212 0.757407,0.07925 0.757407,0.263872 0,0.115508 -0.162308,0.326724 -0.557505,0.725497 -0.669964,0.676025 -0.937613,1.153728 -0.870147,1.55305 0.04937,0.292199 0.379937,1.030662 0.492519,1.100241 0.10583,0.06541 0.08938,0.338959 -0.02616,0.434842 -0.07924,0.06576 -0.205672,0.06075 -0.631425,-0.02504 -0.292793,-0.059 -0.704941,-0.107266 -0.915883,-0.107266 -0.321756,0 -0.427086,0.03203 -0.653933,0.198855 -0.411821,0.302856 -0.816917,0.890936 -0.816917,1.18592 0,0.308932 -0.419046,0.460501 -0.526468,0.190422 z m 0.658153,-1.4695 c 0.263819,-0.274741 0.528494,-0.47673 0.748952,-0.571568 0.3068,-0.131982 0.392694,-0.140644 0.857665,-0.08649 0.284195,0.0331 0.516718,0.05796 0.516718,0.05526 0,-0.0027 -0.06268,-0.182965 -0.139284,-0.400571 -0.252367,-0.716866 -0.100939,-1.298995 0.532909,-2.048639 0.18187,-0.215095 0.317596,-0.41224 0.301614,-0.4381 -0.01598,-0.02586 -0.151841,-0.06665 -0.30191,-0.09065 -0.798046,-0.127613 -1.222461,-0.639638 -1.394703,-1.682605 l -0.07854,-0.47558 -0.173027,0.121583 c -0.291451,0.204799 -0.58011,0.33381 -0.979846,0.437929 -0.491593,0.128043 -1.34964,0.0352 -1.870741,-0.202413 -0.195919,-0.08934 -0.360071,-0.162324 -0.364782,-0.162194 -0.0047,1.32e-4 -0.0086,0.291127 -0.0086,0.64666 0,0.844196 -0.107529,1.066882 -0.709511,1.469345 l -0.437247,0.292327 0.223201,0.229823 c 0.366226,0.377092 0.525613,0.773696 0.525613,1.307893 0,0.255348 -0.02416,0.56873 -0.05368,0.696403 l -0.05368,0.232135 0.484783,0.0031 c 0.279879,0.0018 0.62973,0.05238 0.827713,0.119647 0.366904,0.124656 0.860245,0.513391 1.012436,0.797761 0.05116,0.09559 0.100416,0.173805 0.109459,0.173805 0.009,0 0.200045,-0.191203 0.424449,-0.424896 z m -1.173355,-1.109845 c -0.561687,-0.272489 -1.014378,-0.978714 -1.014378,-1.582493 0,-0.404858 0.206102,-0.875659 0.521334,-1.190891 0.865145,-0.865145 2.238344,-0.647496 2.76993,0.439027 0.579208,1.183859 -0.242536,2.480502 -1.566837,2.472338 -0.294151,-0.0018 -0.519722,-0.04565 -0.710049,-0.137981 z m 11.18926,-0.322334 v -3.05091 h 4.5432005 4.543202 v 3.05091 3.050909 h -4.543202 -4.5432005 z m 2.3876675,0.408553 c 0,-1.320502 -0.09471,-1.939302 -0.382761,-2.500767 l -0.125137,-0.243916 -0.143493,0.33356 c -0.276102,0.641816 -0.341455,1.103036 -0.342491,2.417095 l -9.8e-4,1.243577 h 0.497431 0.497431 z m 1.774656,-0.159838 c -0.02716,-1.307149 -0.04172,-1.444052 -0.200603,-1.887251 -0.09422,-0.262825 -0.201295,-0.531438 -0.23794,-0.596917 -0.05949,-0.106303 -0.07498,-0.09774 -0.144612,0.07992 -0.361492,0.922324 -0.352144,0.864009 -0.380083,2.371087 l -0.02674,1.442549 h 0.509634 0.509634 z m 1.79008,0.03316 c -0.03272,-1.415997 -0.07303,-1.666153 -0.378427,-2.348276 l -0.127411,-0.284581 -0.14161,0.329858 c -0.284431,0.662537 -0.330648,0.993347 -0.330648,2.366677 v 1.312547 h 0.504948 0.504949 z m 1.758134,0.02119 c -0.01482,-1.237724 -0.0306,-1.400058 -0.182154,-1.873705 -0.09126,-0.285216 -0.195885,-0.563344 -0.232494,-0.618061 -0.09266,-0.138488 -0.155584,-0.03309 -0.376189,0.630079 -0.162753,0.489258 -0.178058,0.630836 -0.196464,1.817339 -0.01098,0.70771 -0.0043,1.312089 0.01485,1.343063 0.01914,0.03097 0.249427,0.05634 0.511742,0.05637 l 0.476935,4.8e-5 z m -40.8741225,1.139486 c -8.42e-4,-0.0456 -0.0083,-1.209581 -0.01658,-2.586628 l -0.01505,-2.503723 1.973142,-1.2e-5 1.973142,-1.3e-5 v 2.586641 2.58664 h -1.956561 c -1.520218,0 -1.956902,-0.01849 -1.958089,-0.0829 z m 5.639077,-2.072629 v -2.155533 h 1.724427 1.724427 v 2.155533 2.155534 h -1.724427 -1.724427 z m 11.373486,-2.139968 c -0.03708,-0.0268 -0.105275,-0.194809 -0.151539,-0.373352 -0.04626,-0.178544 -0.142381,-0.406455 -0.213598,-0.506468 -0.170074,-0.238848 -0.611014,-0.411234 -0.982623,-0.384159 -0.227394,0.01657 -0.310725,-0.0057 -0.367933,-0.09852 -0.06123,-0.09929 -0.04319,-0.142598 0.104812,-0.251611 0.575191,-0.423663 0.58706,-1.050915 0.03097,-1.636779 -0.167109,-0.176056 -0.192711,-0.239335 -0.13417,-0.331621 0.05505,-0.08678 0.144442,-0.108773 0.373878,-0.09199 0.165842,0.01213 0.366393,-0.01266 0.445668,-0.05508 0.197137,-0.105505 0.330777,-0.455678 0.340862,-0.893157 0.01078,-0.467766 0.122638,-0.580117 0.375443,-0.37711 0.639892,0.513843 0.95017,0.614928 1.46335,0.476744 0.167579,-0.04512 0.408,-0.189066 0.578879,-0.346576 0.234648,-0.216291 0.310802,-0.25401 0.386312,-0.191341 0.07089,0.05883 0.0791,0.130182 0.03335,0.289715 -0.08936,0.311568 -0.07387,0.881679 0.03075,1.132067 0.117493,0.281202 0.38737,0.49149 0.746966,0.582037 0.430042,0.108286 0.483138,0.216622 0.214546,0.437751 -0.810116,0.666957 -1.029465,1.080019 -0.820091,1.544329 0.16663,0.369519 0.08376,0.446253 -0.369056,0.34173 -0.186012,-0.04294 -0.522463,-0.07802 -0.747669,-0.07796 -0.56058,1.33e-4 -0.832281,0.145263 -1.024243,0.547071 -0.152118,0.31841 -0.192761,0.352523 -0.31486,0.264281 z m 1.379788,-1.757889 c 0.320049,-0.244113 0.467833,-0.58569 0.428865,-0.99124 -0.03516,-0.365918 -0.185178,-0.607284 -0.520332,-0.837167 -0.18944,-0.129939 -0.290722,-0.151061 -0.625587,-0.130459 -0.41691,0.02565 -0.626295,0.133221 -0.858493,0.441053 -0.132529,0.175698 -0.209794,0.696614 -0.142874,0.963247 0.05746,0.228933 0.360582,0.572395 0.601741,0.681819 0.311923,0.141533 0.843739,0.08093 1.11668,-0.127253 z m -12.723037,0.830367 c 0.144191,-1.208009 0.710151,-2.339633 1.412804,-2.824867 l 0.272938,-0.188484 0.303217,0.208619 c 0.709312,0.48802 1.274931,1.596971 1.397287,2.739521 l 0.04782,0.446575 h -1.739795 -1.739796 z m 26.831029,-0.381363 v -0.431107 h 5.2396045 5.239605 v 0.431107 0.431106 h -5.239605 -5.2396045 z m -32.32215,-0.514012 c 0.05676,-0.191511 0.212384,-0.706352 0.345841,-1.144091 l 0.24265,-0.795889 1.161295,-0.01805 1.161296,-0.01805 0.322991,1.079237 c 0.177646,0.59358 0.336703,1.116544 0.35346,1.162142 0.02392,0.06508 -0.369617,0.08291 -1.830128,0.08291 h -1.860596 z m 34.2485785,-0.543524 c -0.04375,-0.05271 -0.06978,-0.164631 -0.05786,-0.248715 0.01856,-0.130895 0.06936,-0.157649 0.353293,-0.186042 l 0.331621,-0.03316 0.01982,-0.497353 c 0.0109,-0.273545 0.0441,-0.521639 0.07379,-0.551322 0.02968,-0.02968 1.197756,-0.05236 2.595719,-0.05038 1.967112,0.0028 2.553732,0.02245 2.594742,0.08705 0.02914,0.04591 0.05345,0.299852 0.05401,0.564319 l 10e-4,0.48085 h 0.290338 c 0.3606,0 0.493399,0.126808 0.384076,0.366747 -0.0695,0.152528 -0.108195,0.163846 -0.560241,0.163846 -0.289247,0 -0.517769,-0.03218 -0.565177,-0.07959 -0.04737,-0.04737 -0.07959,-0.275614 -0.07959,-0.563755 v -0.484166 h -2.122376 -2.122371 v 0.435467 c 0,0.647481 -0.0402,0.692043 -0.624292,0.692043 -0.343711,0 -0.510375,-0.02819 -0.566513,-0.09584 z m -47.8492325,-9.079657 c -0.719546,-0.531142 -0.722178,-0.534096 -0.563755,-0.632636 0.321107,-0.199731 0.839254,-0.803948 1.076351,-1.255145 0.276469,-0.526121 0.301573,-0.676094 0.113172,-0.676094 -0.07167,0 -0.16226,-0.05969 -0.201305,-0.132648 -0.04592,-0.08581 -0.138871,-0.132648 -0.263225,-0.132648 -0.160405,0 -0.195708,0.0302 -0.21322,0.182391 -0.01154,0.100315 -0.05083,0.1793 -0.08731,0.175521 -0.03648,-0.0038 -1.043705,-0.153008 -2.238282,-0.331621 l -2.171957,-0.32475 -1.57e-4,-0.348201 -1.58e-4,-0.348202 h -1.028024 -1.028023 v -0.260891 c 0,-0.235305 0.01789,-0.262949 0.182391,-0.281878 0.181783,-0.02092 0.182455,-0.02292 0.201554,-0.601322 0.01813,-0.549156 0.02704,-0.580283 0.165811,-0.579348 0.121831,8.23e-4 0.186584,0.09903 0.382652,0.580336 l 0.236005,0.579348 h 0.427236 c 0.416772,0 0.42775,-0.0045 0.448222,-0.182391 l 0.02099,-0.182392 h 2.250614 2.250615 v 0.165811 c 0,0.1523 0.02432,0.16581 0.298458,0.16581 0.20929,0 0.298459,-0.0273 0.298459,-0.09137 0,-0.05025 0.04477,-0.12852 0.09949,-0.173931 0.05472,-0.04541 0.09949,-0.155009 0.09949,-0.243549 0,-0.240565 0.177827,-0.538412 0.382487,-0.640637 0.0997,-0.0498 0.787599,-0.189397 1.52867,-0.310219 1.548491,-0.252461 1.736559,-0.24047 1.983154,0.126446 0.113886,0.169455 0.15146,0.319635 0.15146,0.605377 0,0.256879 0.03224,0.406769 0.09949,0.462582 0.05472,0.04541 0.09949,0.138603 0.09949,0.207093 0,0.100755 0.0499,0.124527 0.261382,0.124527 0.143761,0 0.279828,-0.02985 0.302373,-0.06632 0.06471,-0.104709 3.714367,-0.08875 3.792811,0.01658 0.03554,0.04772 0.05009,0.654879 0.03428,1.430737 -0.03109,1.526109 -0.02874,1.520291 -0.517923,1.28263 -0.290205,-0.140993 -0.29142,-0.143058 -0.29142,-0.495221 v -0.353637 l -1.508874,-0.397053 -1.508874,-0.397052 -0.02059,-0.245034 c -0.01995,-0.237548 -0.02857,-0.245034 -0.281877,-0.245034 h -0.261293 v 0.411998 c 0,0.39879 0.02035,0.447724 0.634762,1.526391 0.349119,0.612917 0.624861,1.165802 0.612761,1.228635 -0.01478,0.07676 -0.244318,0.199185 -0.699648,0.37316 -0.548967,0.209751 -0.696273,0.243461 -0.775729,0.177518 -0.08655,-0.07183 -0.08648,-0.110388 5.3e-4,-0.327887 l 0.09863,-0.246488 -0.43189,-0.821003 c -0.237539,-0.451552 -0.460752,-0.849865 -0.496028,-0.885141 -0.05782,-0.05782 -1.08059,0.03585 -1.409586,0.129097 -0.06854,0.01943 -0.167816,0.203393 -0.257002,0.476265 -0.295917,0.905373 -0.890145,1.851453 -1.375644,2.190184 l -0.179056,0.124937 z m 4.271261,-5.07607 c 0,-0.191464 -0.03673,-0.353981 -0.08999,-0.398181 -0.06767,-0.05616 -0.415322,-0.02191 -1.401596,0.138053 -1.272339,0.206367 -1.493003,0.278623 -1.493003,0.488879 0,0.07931 0.243189,0.09475 1.492293,0.09475 h 1.492292 z m 16.547866,5.566153 c -0.330504,-0.136705 -0.427641,-0.345631 -0.527747,-1.1351 -0.05288,-0.417002 -0.116512,-0.899954 -0.141413,-1.073225 l -0.04527,-0.31504 h -0.594249 c -0.437369,0 -0.64403,-0.0294 -0.78281,-0.111385 -0.229578,-0.135615 -0.506789,-0.626044 -0.567117,-1.003316 l -0.04447,-0.278105 h -0.957583 c -0.559215,0 -1.013298,-0.02982 -1.09151,-0.07167 -0.164749,-0.08817 -0.384202,-0.554784 -0.387394,-0.823701 -0.0013,-0.109435 -0.02022,-0.265611 -0.04206,-0.347059 -0.03954,-0.147527 -0.04587,-0.148154 -1.673778,-0.165811 l -1.634085,-0.01772 v -0.16581 -0.16581 l 1.575198,-0.01778 1.575197,-0.01778 v -0.230934 -0.230934 h -1.591778 -1.591779 v -0.762727 -0.762728 h 0.522162 c 0.375346,0 0.605216,0.03674 0.81755,0.130665 0.27487,0.121588 0.46781,0.131537 2.777463,0.143224 2.093508,0.01059 2.483472,-0.0021 2.491005,-0.08092 0.0049,-0.05141 0.01237,-0.130788 0.01658,-0.176386 0.0054,-0.05871 0.161184,-0.0829 0.533838,-0.0829 0.520657,0 0.526408,0.0019 0.547174,0.176971 0.01704,0.143684 0.05697,0.178477 0.212279,0.184972 0.134787,0.0056 0.254252,0.08299 0.404431,0.261871 0.195576,0.232953 0.226266,0.247123 0.372462,0.17197 0.08763,-0.04505 0.270698,-0.188356 0.406822,-0.318466 0.476134,-0.455101 0.411431,0.0203 -0.07368,0.541348 l -0.317459,0.340978 0.226225,0.696404 0.226225,0.696403 0.408592,0.198972 c 0.393917,0.191827 0.415106,0.215207 0.589983,0.651002 0.397507,0.990591 1.17977,3.310025 1.17977,3.498056 0,0.268301 -0.178932,0.525188 -0.442533,0.635327 -0.242824,0.101459 -2.144079,0.123191 -2.376242,0.02716 z m -0.855686,-3.203187 c -0.02377,-0.118554 -0.06116,-0.327475 -0.08309,-0.464269 l -0.03987,-0.248715 h -0.621602 c -0.693765,0 -0.70258,0.0076 -0.519518,0.449818 0.15835,0.382496 0.324325,0.47554 0.851325,0.477244 l 0.455978,0.0015 -0.04322,-0.215554 z m -0.536442,-1.272748 c 0.390927,-0.16334 0.496219,-0.425827 0.496505,-1.23776 1.99e-4,-0.622637 -0.01711,-0.728988 -0.151278,-0.928538 -0.224204,-0.333453 -0.45136,-0.38158 -1.741748,-0.369017 -1.268381,0.01235 -1.418399,0.05736 -1.594282,0.478305 -0.139831,0.334664 -0.125916,1.391691 0.02222,1.688236 0.200348,0.401052 0.425658,0.464048 1.66013,0.464166 0.790006,6.6e-5 1.14125,-0.02553 1.308449,-0.09539 z m -2.50994,-0.479314 c -0.02432,-0.02432 -0.04422,-0.157827 -0.04422,-0.296685 v -0.25247 l 0.97828,-0.01835 0.978281,-0.01835 v -0.16581 -0.165811 l -0.982007,-0.01837 -0.982006,-0.01837 0.02031,-0.280083 0.02031,-0.280084 1.193556,-0.01818 c 1.420626,-0.02163 1.359922,-0.05577 1.359922,0.76478 0,0.855863 0.07116,0.812015 -1.317762,0.812015 -0.649245,0 -1.200344,-0.0199 -1.224662,-0.04422 z m 19.602826,4.962939 c -0.04641,-0.02945 -0.202751,-0.588607 -0.347424,-1.242561 -0.144673,-0.653955 -0.278884,-1.256161 -0.298246,-1.338237 -0.03377,-0.143135 -0.06386,-0.149229 -0.7369,-0.149229 -1.107193,0 -1.308343,-0.154262 -1.520712,-1.166236 l -0.11714,-0.558191 h -1.654369 -1.654369 l -0.225502,-0.225502 c -0.124027,-0.124026 -0.225502,-0.288539 -0.225502,-0.365585 v -0.140083 l 4.805613,0.0025 c 2.944797,0.0015 4.82062,0.02675 4.84437,0.06518 0.08351,0.135114 -0.1768,0.467974 -0.490141,0.626756 -0.353525,0.179145 -0.647471,0.48625 -0.712177,0.744058 -0.04985,0.198615 0.141513,0.995966 0.582247,2.426057 0.35136,1.140093 0.373471,1.276344 0.216877,1.336434 -0.157123,0.06029 -2.369132,0.04655 -2.466625,-0.01533 z m -0.849884,-3.499961 c -0.0247,-0.131636 -0.07892,-0.392788 -0.120501,-0.580336 l -0.0756,-0.340995 -0.713388,-0.01884 -0.713387,-0.01884 0.04169,0.166097 c 0.02293,0.09135 0.07655,0.323077 0.119154,0.514941 0.09862,0.444125 0.230048,0.515052 0.956754,0.516343 l 0.55018,9.75e-4 -0.0449,-0.23934 z m 20.2677435,3.185858 c -0.956831,-0.229576 -1.289488,-0.338116 -1.510812,-0.492948 -0.27919,-0.195312 -0.297613,-0.198549 -1.130038,-0.198549 -1.119763,0 -1.332565,-0.09504 -1.670217,-0.745966 l -0.232134,-0.447507 -0.431107,-1.33e-4 -0.431107,-1.32e-4 0.02244,-0.323625 c 0.01457,-0.210123 -0.01605,-0.39806 -0.08731,-0.535859 -0.188205,-0.363963 -0.380221,-0.400771 -2.090663,-0.400771 -1.6977745,0 -1.9046905,0.03876 -2.1072935,0.39477 l -0.114564,0.201308 -0.64666,3.98e-4 -0.64666,3.98e-4 v -0.464268 -0.464269 l 4.1618375,0.0015 c 4.822428,0.0017 4.434547,-0.05235 5.114301,0.712495 0.609732,0.686099 0.781139,0.745219 2.160484,0.745219 h 1.09863401 v 1.160672 c 0,1.062894 -0.0098,1.160295 -0.116067,1.156189 -0.06384,-0.0025 -0.66821601,-0.136962 -1.34306401,-0.298881 z m -2.321343,-1.321385 c 0,-0.01813 -0.107934,-0.15244 -0.239852,-0.298459 l -0.239852,-0.265487 h -0.556038 c -0.30582,0 -0.556037,0.01688 -0.556037,0.03752 0,0.06525 0.145736,0.322724 0.250936,0.443327 0.0829,0.09504 0.213542,0.116068 0.721043,0.116068 0.340889,0 0.6198,-0.01484 0.6198,-0.03297 z m -6.9640315,-0.563946 c -0.160119,-0.160119 -0.174418,-0.507768 -0.0294,-0.714808 0.101962,-0.145571 0.123668,-0.147406 1.7443235,-0.147406 1.187962,0 1.663052,0.02197 1.720666,0.07959 0.04377,0.04377 0.07959,0.236722 0.07959,0.428774 0,0.277348 -0.02639,0.363308 -0.128288,0.417841 -0.07802,0.04176 -0.7407,0.06866 -1.691265,0.06866 -1.4745445,0 -1.5704815,-0.0075 -1.6956245,-0.132648 z m -16.912649,-3.952917 c 0,-0.635671 3.98e-4,-0.637081 0.225502,-0.862214 l 0.225502,-0.225502 h 4.320993 c 4.741025,0 4.600055,-0.0116 4.810714,0.395774 0.06691,0.129396 0.100609,0.38447 0.100609,0.761604 v 0.567049 h -4.84166 -4.84166 z m -25.136839,-5.000734 c 0,-0.132506 0.03875,-0.132753 20.830634,-0.132753 19.803,0 20.829532,0.0057 20.808283,0.116067 -0.02122,0.110204 -1.073544,0.116911 -20.830635,0.132753 -20.77508,0.01666 -20.808282,0.01647 -20.808282,-0.116067 z m 16.514704,-0.638293 c -0.05472,-0.02127 -0.211723,-0.09498 -0.348901,-0.163808 -0.245937,-0.123396 -0.251256,-0.123301 -0.381364,0.0068 -0.147498,0.147498 -0.189499,0.156453 -0.326684,0.06965 -0.08156,-0.05161 -0.07783,-0.09891 0.02599,-0.329135 0.11104,-0.246242 0.118462,-0.427739 0.08822,-2.157139 -0.02896,-1.655798 -0.0205,-1.893081 0.06869,-1.927306 0.217655,-0.08352 0.274333,0.113523 0.319674,1.111379 0.02441,0.53726 0.05126,0.976835 0.05967,0.976835 0.0084,0 0.100768,-0.04459 0.205253,-0.09908 0.107504,-0.05607 0.365393,-0.09925 0.594067,-0.09949 0.825937,-8.36e-4 1.287171,0.46714 1.287171,1.305985 0,0.775349 -0.418595,1.259947 -1.136892,1.316155 -0.19547,0.0153 -0.40017,0.01041 -0.454887,-0.01086 z m 0.687398,-0.448122 c 0.349902,-0.146199 0.506436,-0.398466 0.506436,-0.816165 0,-0.626954 -0.29265,-0.949461 -0.861562,-0.949461 -0.361059,0 -0.782332,0.21875 -0.836439,0.43433 -0.07734,0.308153 0.0056,0.943187 0.143437,1.0977 0.268407,0.300968 0.671744,0.390859 1.048128,0.233596 z m -16.183833,0.315095 c -0.151278,-0.05363 -0.386641,-0.205875 -0.523026,-0.338331 -0.85992,-0.835143 -0.660501,-2.37863 0.373918,-2.894103 0.466381,-0.232407 1.033719,-0.240931 1.466107,-0.02203 0.259629,0.131441 0.310343,0.13904 0.363675,0.05449 0.03662,-0.05806 0.107723,-0.08069 0.173809,-0.05534 0.161555,0.062 0.1551,0.549848 -0.0084,0.637369 -0.125404,0.06711 -0.172519,0.04858 -0.614632,-0.241842 -0.30517,-0.200462 -0.902581,-0.206831 -1.246932,-0.01329 -0.883654,0.496641 -0.843928,2.016991 0.06498,2.487008 0.102209,0.05285 0.364101,0.0961 0.581983,0.0961 0.328443,0 0.430694,-0.02907 0.598271,-0.170074 0.302104,-0.254204 0.455144,-0.891112 0.214122,-0.891112 -0.06849,0 -0.162925,-0.04627 -0.209856,-0.102815 -0.153805,-0.185324 0.04558,-0.285636 0.489018,-0.246029 0.410919,0.0367 0.557626,0.166796 0.3551,0.314887 -0.0598,0.04373 -0.141508,0.232321 -0.181563,0.419091 -0.09811,0.457489 -0.303,0.745527 -0.6578,0.924767 -0.34461,0.174091 -0.819407,0.189904 -1.238743,0.04125 z m 3.166543,0.02409 c -0.08768,-0.04506 -0.221985,-0.16611 -0.298458,-0.269 -0.12685,-0.170671 -0.139042,-0.275349 -0.139042,-1.193834 v -1.006761 h 0.16581 0.165811 l 0.03316,0.984287 c 0.03149,0.934795 0.04104,0.990655 0.189738,1.110929 0.208787,0.16887 0.380203,0.159647 0.570547,-0.0307 0.208291,-0.208291 0.289612,-0.528685 0.342731,-1.350323 0.04566,-0.706242 0.129176,-0.908178 0.312634,-0.755921 0.06388,0.05302 0.101922,0.369818 0.13415,1.117235 0.02474,0.573778 0.07415,1.072403 0.109804,1.108055 0.08448,0.08448 0.08324,0.284377 -0.0021,0.337118 -0.10996,0.06796 -0.321276,-0.03097 -0.3658,-0.171255 -0.03999,-0.125997 -0.04907,-0.124616 -0.240616,0.03655 -0.224216,0.188666 -0.695576,0.228948 -0.978375,0.08361 z m 2.403066,9.78e-4 c -0.0288,-0.0456 -0.06373,-0.51567 -0.07763,-1.044605 -0.01734,-0.659964 -0.05501,-1.019536 -0.120074,-1.146038 -0.05214,-0.101387 -0.0769,-0.213309 -0.05502,-0.248716 0.07109,-0.115031 0.356085,-0.06966 0.430003,0.06846 0.07048,0.131689 0.07283,0.131546 0.273365,-0.01658 0.153214,-0.113177 0.289184,-0.148568 0.560614,-0.145921 0.685519,0.0067 0.890348,0.409108 0.890348,1.749237 0,0.554737 -0.02245,0.736811 -0.09864,0.800045 -0.23489,0.194942 -0.285463,0.04624 -0.30942,-0.909779 -0.0278,-1.109499 -0.103859,-1.298992 -0.50789,-1.2654 -0.217979,0.01812 -0.261581,0.05433 -0.399022,0.331311 -0.119098,0.240019 -0.161634,0.459427 -0.186441,0.9617 -0.04202,0.8507 -0.06488,0.949193 -0.220361,0.949193 -0.07011,0 -0.151033,-0.03731 -0.179832,-0.0829 z m 12.436408,-0.01451 c -0.30594,-0.17271 -0.394467,-0.543154 -0.372967,-1.560684 0.01802,-0.852999 0.02553,-0.89632 0.158668,-0.915328 0.134698,-0.01923 0.141456,0.01433 0.18696,0.928538 0.05075,1.019611 0.111486,1.212907 0.404178,1.286368 0.430112,0.107951 0.65311,-0.363203 0.730693,-1.54382 0.03382,-0.51465 0.06843,-0.684577 0.145439,-0.714129 0.223699,-0.08584 0.2666,0.07795 0.29474,1.125291 0.01823,0.678447 0.05466,1.053303 0.107511,1.106152 0.110696,0.110696 0.100081,0.296785 -0.01955,0.342691 -0.137678,0.05283 -0.289292,-0.01558 -0.370398,-0.167125 -0.06626,-0.123808 -0.07173,-0.12324 -0.187265,0.01944 -0.153647,0.189745 -0.806582,0.245836 -1.078012,0.09261 z m 2.412902,-0.01865 c -0.02621,-0.06384 -0.04766,-1.026365 -0.04766,-2.138952 v -2.022886 h 0.16581 0.165811 l 0.03316,2.051409 c 0.02661,1.646199 0.01585,2.068701 -0.05448,2.138952 -0.119415,0.119281 -0.205799,0.1099 -0.26264,-0.02852 z m 1.252809,0.0252 c -0.05361,-0.0646 -0.07034,-0.68277 -0.05786,-2.138066 0.01666,-1.94346 0.02387,-2.048411 0.142253,-2.071188 0.06859,-0.0132 0.150205,0.01625 0.181376,0.06544 0.0932,0.147065 0.07353,4.060687 -0.02088,4.155099 -0.102611,0.102611 -0.152257,0.100324 -0.244881,-0.01128 z m 1.595788,-0.05144 c -0.378886,-0.187544 -0.605709,-0.537774 -0.65451,-1.010606 -0.09349,-0.905858 0.574085,-1.581711 1.45884,-1.476925 0.59123,0.07002 1.041585,0.510285 1.041585,1.018243 0,0.298434 -0.104304,0.351395 -0.693087,0.351915 -0.29365,2.58e-4 -0.734866,0.01945 -0.980479,0.04265 -0.439821,0.04154 -0.445967,0.04479 -0.406671,0.215082 0.02195,0.0951 0.123129,0.259096 0.224855,0.36444 0.352638,0.365182 1.088555,0.295248 1.367135,-0.129919 0.07088,-0.108172 0.159199,-0.160686 0.248663,-0.147849 0.34151,0.049 0.09952,0.545423 -0.378736,0.776944 -0.376304,0.182166 -0.854675,0.180617 -1.227595,-0.004 z m 1.447971,-1.540007 c 0,-0.0498 -0.05868,-0.165142 -0.130401,-0.256319 -0.319083,-0.405649 -0.951277,-0.416725 -1.312109,-0.02299 -0.118576,0.129389 -0.215593,0.265537 -0.215593,0.302551 0,0.04192 0.312567,0.0673 0.829051,0.0673 0.656319,0 0.829052,-0.01887 0.829052,-0.09054 z m 4.8597,1.60226 c -0.04596,-0.05692 -0.05506,-0.48716 -0.02706,-1.279584 l 0.04218,-1.193834 h 0.165811 0.16581 l 0.01824,0.998476 c 0.01003,0.549162 -0.0062,1.116075 -0.03606,1.259808 -0.05636,0.271253 -0.205062,0.368513 -0.328921,0.215134 z m 1.571746,-0.06917 c -0.635736,-0.321164 -0.828971,-1.106911 -0.45516,-1.850806 0.31243,-0.621744 1.189165,-0.841855 1.814309,-0.455495 0.235501,0.145548 0.46793,0.545963 0.407829,0.702584 -0.06494,0.16922 -0.289582,0.103668 -0.431465,-0.125903 -0.413286,-0.66871 -1.427775,-0.39639 -1.565753,0.420296 -0.09849,0.58299 0.269949,1.060799 0.817657,1.060361 0.398891,-3.19e-4 0.702982,-0.183496 0.813918,-0.490284 0.09767,-0.27011 0.240833,-0.351711 0.377416,-0.215127 0.207346,0.207346 -0.217669,0.86262 -0.670147,1.033211 -0.311654,0.117498 -0.786857,0.0837 -1.108604,-0.07884 z m 2.682906,0.02346 c -0.491555,-0.223254 -0.734331,-0.697225 -0.671073,-1.310136 0.07925,-0.767852 0.555151,-1.217056 1.289387,-1.217056 0.449618,0 0.727519,0.117415 0.992677,0.419414 0.608708,0.69328 0.392291,1.864573 -0.39968,2.163158 -0.292639,0.110329 -0.908444,0.08217 -1.211311,-0.05538 z m 1.130448,-0.366434 c 0.418195,-0.174732 0.551568,-0.733366 0.304835,-1.276793 -0.164756,-0.362872 -0.385694,-0.501326 -0.799991,-0.501326 -0.597966,0 -0.892549,0.323967 -0.894286,0.983491 -9.22e-4,0.350185 0.02433,0.440965 0.164721,0.592168 0.0912,0.09822 0.225502,0.20327 0.298459,0.233447 0.211056,0.0873 0.680774,0.07158 0.926262,-0.03099 z m 1.475258,0.450788 c -0.02586,-0.02586 -0.04855,-0.333037 -0.05042,-0.68262 -0.0019,-0.349583 -0.03052,-0.829604 -0.06366,-1.066713 -0.109771,-0.785414 -0.111148,-0.76096 0.04408,-0.783082 0.08784,-0.01252 0.181608,0.03502 0.243556,0.123458 l 0.100729,0.143813 0.145442,-0.135499 c 0.195326,-0.181973 0.570386,-0.237024 0.894295,-0.131262 0.209633,0.06845 0.294592,0.147026 0.413133,0.3821 0.133064,0.263874 0.149229,0.394223 0.149229,1.203319 0,0.776806 -0.01553,0.913347 -0.107893,0.948791 -0.241539,0.09269 -0.290052,-0.07257 -0.290052,-0.988087 0,-0.788135 -0.01411,-0.896252 -0.137462,-1.053065 -0.184607,-0.23469 -0.468908,-0.234815 -0.653388,-2.85e-4 -0.188592,0.239755 -0.26331,0.5567 -0.320746,1.360554 -0.04443,0.621871 -0.06188,0.688668 -0.184453,0.706214 -0.07446,0.01066 -0.156534,-0.0018 -0.182391,-0.02764 z m 2.746656,-0.07199 c -0.232928,-0.114749 -0.471649,-0.433532 -0.472078,-0.630404 -1.33e-4,-0.06255 0.05789,-0.144847 0.12894,-0.182874 0.106429,-0.05696 0.150246,-0.03873 0.248715,0.103471 0.240278,0.346988 0.348544,0.425271 0.588156,0.425271 0.321905,0 0.493071,-0.103888 0.493071,-0.299263 0,-0.189404 -0.149992,-0.300055 -0.66747,-0.492401 -0.202957,-0.07544 -0.433901,-0.197615 -0.513209,-0.271502 -0.290624,-0.270757 -0.269575,-0.680342 0.05146,-1.00138 0.164979,-0.164979 0.240833,-0.190474 0.566706,-0.190474 0.448023,0 0.716994,0.137072 0.859896,0.438216 0.124519,0.262404 0.12694,0.38586 0.0095,0.483345 -0.122871,0.101974 -0.306865,0.02237 -0.306865,-0.132768 0,-0.331753 -0.639656,-0.537607 -0.890638,-0.286625 -0.251652,0.251652 -0.08421,0.454161 0.542778,0.656433 0.744453,0.24017 0.97842,0.810744 0.520303,1.268861 -0.200867,0.200867 -0.264268,0.225337 -0.580336,0.223992 -0.195159,-8.3e-4 -0.455669,-0.05118 -0.578911,-0.111898 z m -29.465153,-0.115298 c -0.51793,-0.351943 -0.597888,-1.210799 -0.154043,-1.654644 0.09718,-0.09718 0.105122,-0.141581 0.04104,-0.229504 -0.343267,-0.470998 -0.334,-0.881273 0.02707,-1.198294 0.594844,-0.52228 1.527739,-0.0082 1.383204,0.762265 -0.04355,0.232149 -0.309201,0.57584 -0.492036,0.636586 -0.08485,0.02819 -0.08003,0.06884 0.0331,0.278914 0.18654,0.346383 0.596025,0.732059 0.72479,0.682648 0.08003,-0.03071 0.104165,-0.140829 0.104165,-0.475242 0,-0.342733 0.02319,-0.444169 0.109077,-0.477127 0.06678,-0.02563 0.143934,0.0058 0.198973,0.08108 0.105871,0.144789 0.121035,0.84401 0.0223,1.02849 -0.05802,0.108409 -0.02925,0.145855 0.203164,0.264423 0.182024,0.09286 0.263725,0.175023 0.249305,0.250709 -0.03165,0.166109 -0.291602,0.174748 -0.556435,0.01849 l -0.232505,-0.13718 -0.326357,0.165377 c -0.450921,0.2285 -1.00115,0.229738 -1.334818,0.003 z m 0.954308,-0.239059 c 0.136793,-0.03799 0.248715,-0.0835 0.248715,-0.101142 0,-0.01764 -0.101878,-0.121522 -0.226397,-0.23085 -0.124517,-0.109328 -0.324175,-0.354645 -0.443683,-0.545148 -0.119508,-0.190502 -0.22912,-0.361291 -0.243582,-0.379531 -0.01446,-0.01824 -0.08342,0.0373 -0.153233,0.123415 -0.157379,0.194124 -0.171145,0.712496 -0.02448,0.921887 0.08244,0.117698 0.319879,0.234063 0.560783,0.274829 0.01824,0.0031 0.145084,-0.02547 0.281877,-0.06346 z m -0.211848,-1.909576 c 0.170389,-0.137973 0.204506,-0.46945 0.06555,-0.636881 -0.05024,-0.06054 -0.190918,-0.10302 -0.341145,-0.10302 -0.196487,0 -0.279723,0.03674 -0.359688,0.158787 -0.128046,0.195423 -0.07246,0.468361 0.123319,0.605488 0.18603,0.1303 0.329377,0.123476 0.511963,-0.02437 z m 15.67023,2.161779 c -0.201091,-0.223401 -0.234908,-0.353415 -0.279288,-1.07378 l -0.04062,-0.659254 -0.219774,-0.05672 c -0.17581,-0.04537 -0.215613,-0.08597 -0.198972,-0.20296 0.01578,-0.110927 0.07685,-0.154246 0.252936,-0.179401 l 0.232135,-0.03316 0.04012,-0.587054 c 0.04048,-0.592249 0.104462,-0.727876 0.324664,-0.688153 0.08259,0.0149 0.09541,0.131677 0.07546,0.687541 l -0.02403,0.669595 0.243069,0.0456 c 0.441602,0.08284 0.373841,0.366798 -0.08803,0.368886 l -0.22464,0.001 0.04743,0.646104 c 0.02609,0.355356 0.0786,0.683661 0.116695,0.729565 0.111014,0.133764 0.246144,0.09671 0.290403,-0.07963 0.05244,-0.208943 0.180774,-0.314713 0.31797,-0.262066 0.154528,0.0593 0.137341,0.436153 -0.02957,0.648346 -0.185011,0.235202 -0.634854,0.248938 -0.835955,0.02553 z m 3.454538,-2.634548 c -0.07627,-0.03084 -0.177682,-0.150237 -0.22535,-0.265317 -0.07709,-0.186107 -0.07203,-0.22893 0.04575,-0.387403 0.172806,-0.232503 0.490593,-0.271149 0.679151,-0.08259 0.182895,0.182895 0.172372,0.438395 -0.02624,0.637004 -0.172414,0.172414 -0.250138,0.188557 -0.473316,0.09831 z"
       id="path47966"
       clip-path="url(#clipPath48214)"
       transform="matrix(1.1726027,0,0,1.1726027,14.279169,1.6465586)" />
  </g>
</svg>
