<?xml version="1.0" encoding="UTF-8" standalone="no"?>
<!-- Created with Inkscape (http://www.inkscape.org/) -->

<svg
   width="50"
   height="50"
   viewBox="0 0 13.229167 13.229167"
   version="1.1"
   id="svg25456"
   inkscape:version="1.1 (c68e22c387, 2021-05-23)"
   sodipodi:docname="MH.svg"
   xmlns:inkscape="http://www.inkscape.org/namespaces/inkscape"
   xmlns:sodipodi="http://sodipodi.sourceforge.net/DTD/sodipodi-0.dtd"
   xmlns="http://www.w3.org/2000/svg"
   xmlns:svg="http://www.w3.org/2000/svg">
  <sodipodi:namedview
     id="namedview25458"
     pagecolor="#ffffff"
     bordercolor="#666666"
     borderopacity="1.0"
     inkscape:pageshadow="2"
     inkscape:pageopacity="0.0"
     inkscape:pagecheckerboard="0"
     inkscape:document-units="mm"
     showgrid="false"
     units="px"
     inkscape:zoom="4.394379"
     inkscape:cx="55.411698"
     inkscape:cy="-20.708273"
     inkscape:window-width="1920"
     inkscape:window-height="1018"
     inkscape:window-x="-6"
     inkscape:window-y="-6"
     inkscape:window-maximized="1"
     inkscape:current-layer="layer1" />
  <defs
     id="defs25453">
    <marker
       style="overflow:visible;"
       id="marker39222"
       refX="0.0"
       refY="0.0"
       orient="auto"
       inkscape:stockid="Arrow1Lend"
       inkscape:isstock="true">
      <path
         transform="scale(0.8) rotate(180) translate(12.5,0)"
         style="fill-rule:evenodd;fill:context-stroke;stroke:context-stroke;stroke-width:1.0pt;"
         d="M 0.0,0.0 L 5.0,-5.0 L -12.5,0.0 L 5.0,5.0 L 0.0,0.0 z "
         id="path39220" />
    </marker>
    <marker
       style="overflow:visible"
       id="marker38741"
       refX="0.0"
       refY="0.0"
       orient="auto"
       inkscape:stockid="Arrow1Lstart"
       inkscape:isstock="true">
      <path
         transform="scale(0.8) translate(12.5,0)"
         style="fill-rule:evenodd;fill:context-stroke;stroke:context-stroke;stroke-width:1.0pt"
         d="M 0.0,0.0 L 5.0,-5.0 L -12.5,0.0 L 5.0,5.0 L 0.0,0.0 z "
         id="path38739" />
    </marker>
    <marker
       style="overflow:visible"
       id="Arrow1Lstart"
       refX="0.0"
       refY="0.0"
       orient="auto"
       inkscape:stockid="Arrow1Lstart"
       inkscape:isstock="true">
      <path
         transform="scale(0.8) translate(12.5,0)"
         style="fill-rule:evenodd;fill:context-stroke;stroke:context-stroke;stroke-width:1.0pt"
         d="M 0.0,0.0 L 5.0,-5.0 L -12.5,0.0 L 5.0,5.0 L 0.0,0.0 z "
         id="path30209" />
    </marker>
    <marker
       style="overflow:visible;"
       id="Arrow1Lend"
       refX="0.0"
       refY="0.0"
       orient="auto"
       inkscape:stockid="Arrow1Lend"
       inkscape:isstock="true">
      <path
         transform="scale(0.8) rotate(180) translate(12.5,0)"
         style="fill-rule:evenodd;fill:context-stroke;stroke:context-stroke;stroke-width:1.0pt;"
         d="M 0.0,0.0 L 5.0,-5.0 L -12.5,0.0 L 5.0,5.0 L 0.0,0.0 z "
         id="path30212" />
    </marker>
    <clipPath
       clipPathUnits="userSpaceOnUse"
       id="clipPath29247">
      <rect
         style="fill:#000000;fill-opacity:1;stroke:#000000;stroke-width:0.264583"
         id="rect29249"
         width="83.570778"
         height="76.827309"
         x="-571.02686"
         y="-185.92691" />
    </clipPath>
    <clipPath
       clipPathUnits="userSpaceOnUse"
       id="clipPath29355">
      <rect
         style="fill:#000000;fill-opacity:1;stroke:#000000;stroke-width:0.264583"
         id="rect29357"
         width="60.329914"
         height="49.130947"
         x="-548.62891"
         y="-187.7332" />
    </clipPath>
    <clipPath
       clipPathUnits="userSpaceOnUse"
       id="clipPath37500">
      <rect
         style="fill:#838383;fill-opacity:1;stroke:#000000;stroke-width:0.259049"
         id="rect37502"
         width="30.590088"
         height="26.0105"
         x="-636.65887"
         y="-198.69133" />
    </clipPath>
    <clipPath
       clipPathUnits="userSpaceOnUse"
       id="clipPath47772">
      <rect
         style="fill:#e3dedb;fill-opacity:1;stroke:#241f1c;stroke-width:0.0499999;stroke-miterlimit:4;stroke-dasharray:none"
         id="rect47774"
         width="46.000053"
         height="44.675442"
         x="-495.40372"
         y="-10.596871"
         rx="0.49999899"
         ry="0.49999899" />
    </clipPath>
    <clipPath
       clipPathUnits="userSpaceOnUse"
       id="clipPath47772-7">
      <rect
         style="fill:#e3dedb;fill-opacity:1;stroke:#241f1c;stroke-width:0.0499999;stroke-miterlimit:4;stroke-dasharray:none"
         id="rect47774-8"
         width="46.000053"
         height="44.675442"
         x="-495.40372"
         y="-10.596871"
         rx="0.49999899"
         ry="0.49999899" />
    </clipPath>
    <clipPath
       clipPathUnits="userSpaceOnUse"
       id="clipPath48214">
      <path
         style="fill:none;stroke:#000000;stroke-width:0.264583px;stroke-linecap:butt;stroke-linejoin:miter;stroke-opacity:1"
         d="m -10.71729,9.3324712 8.3691198,0.090314 1.71597052,-0.5719903 0.0301047,-9.72383324 -3.07068412,-0.69240916 -10.2356139,0.5418854 0.873038,7.2251391 1.475132,2.7696369 z"
         id="path48216" />
    </clipPath>
    <clipPath
       clipPathUnits="userSpaceOnUse"
       id="clipPath48549">
      <rect
         style="fill:#e3dedb;fill-opacity:1;stroke:#241f1c;stroke-width:0.0499999;stroke-miterlimit:4;stroke-dasharray:none"
         id="rect48551"
         width="56.198395"
         height="51.600342"
         x="161.78326"
         y="-37.97649"
         rx="0.49999899"
         ry="0.49999899" />
    </clipPath>
    <clipPath
       clipPathUnits="userSpaceOnUse"
       id="clipPath49093">
      <rect
         style="fill:#e3dedb;fill-opacity:1;stroke:#241f1c;stroke-width:0.0499999;stroke-miterlimit:4;stroke-dasharray:none"
         id="rect49095"
         width="44.107224"
         height="46.321102"
         x="15.156537"
         y="-61.477638"
         rx="0.49999899"
         ry="0.49999899" />
    </clipPath>
  </defs>
  <g
     inkscape:label="Layer 1"
     inkscape:groupmode="layer"
     id="layer1">
    <path
       style="fill:#000000;stroke-width:0.264583"
       d="m 8.2763038,-7.2650214 v -1.5875 H 37.115886 65.955469 v 1.5875 1.5875 H 37.115886 8.2763038 Z m 2.2968012,0.896355 c 0.70626,-0.189415 0.962503,-0.773617 0.620017,-1.41356 -0.609675,-1.139187 -2.1230682,-0.795303 -2.1230682,0.482418 0,1.089316 0.2759274,1.260252 1.5030512,0.931142 z m 2.15737,-1.144455 c -0.08043,-0.521147 -0.136118,-0.538686 -0.607726,-0.191439 -0.447626,0.329591 -0.469227,0.442465 -0.156734,0.818996 0.44667,0.538205 0.888415,0.17557 0.76446,-0.627557 z m 0.854549,0.540425 c 0.16006,0.259088 0.821258,0.376102 2.217906,0.392512 1.796115,0.02111 2.006968,-0.03042 2.165558,-0.529167 0.16217,-0.510005 0.188755,-0.515392 0.345315,-0.06994 0.233376,0.664001 0.643305,0.598305 0.850189,-0.136255 0.170473,-0.60528 0.172308,-0.604766 0.198438,0.05559 l 0.02637,0.66652 3.042708,0.02601 c 2.629979,0.02246 3.04523,-0.03205 3.061304,-0.401937 0.01417,-0.32598 0.07277,-0.30186 0.245987,0.10123 0.200727,0.467116 0.229571,0.442904 0.245987,-0.206468 0.01848,-0.731067 0.0086,-0.735335 -1.592678,-0.687287 -1.07087,0.03213 -1.657164,0.167934 -1.748099,0.404905 -0.172401,0.449268 -0.632291,0.471136 -0.54323,0.02582 0.04549,-0.227449 -0.326326,-0.330729 -1.190659,-0.330729 -0.691243,0 -1.25679,-0.08364 -1.256771,-0.185868 6.4e-5,-0.349429 -1.709378,0.02967 -2.014327,0.446715 -0.271065,0.370702 -0.321268,0.371962 -0.459585,0.01151 -0.174138,-0.453794 -1.230221,-0.560631 -1.230221,-0.124452 0,0.15897 -0.14309,0.18999 -0.330729,0.0717 -0.181901,-0.114676 -0.836744,-0.225893 -1.455208,-0.247152 -1.05428,-0.03624 -1.122563,0.0047 -1.093787,0.655907 0.02269,0.513413 0.06418,0.563785 0.159088,0.193133 0.102761,-0.401313 0.173926,-0.427726 0.35644,-0.132292 z m 42.845445,-0.021437 c 0,0.159404 0.144121,0.200435 0.320701,0.0913 0.176388,-0.109011 0.712169,-0.171839 1.190625,-0.139618 0.637376,0.04293 0.869924,-0.05194 0.869924,-0.354867 0,-0.350957 -0.419944,-0.407924 -2.778125,-0.376857 -2.122718,0.02796 -2.778125,0.119959 -2.778125,0.389954 0,0.411416 1.989159,0.639542 2.711979,0.311023 0.287084,-0.13048 0.463021,-0.100439 0.463021,0.07906 z m 8.46673,-0.204742 c -3.4e-5,-0.181901 -0.267954,-0.334373 -0.595376,-0.338823 -0.327422,-0.0044 -1.637223,-0.03422 -2.910668,-0.06615 -1.521762,-0.03815 -2.315271,0.04019 -2.315104,0.228579 5.29e-4,0.484378 0.135911,0.507119 3.021346,0.507119 2.063535,0 2.799847,-0.08698 2.799802,-0.330729 z M 41.727587,-17.613717 c -0.100116,-0.161991 -0.09854,-1.650272 0.0035,-3.307292 l 0.185534,-3.012763 H 40.984092 40.05156 l -0.07877,1.653646 -0.07877,1.653646 -10.649479,0.06915 -10.649479,0.06915 v -15.613425 -15.613418 h 1.574875 1.574875 l 0.07877,-1.653646 0.07877,-1.653646 1.64134,-0.07845 1.64134,-0.07845 0.07845,-1.64134 0.07845,-1.64134 7.705575,-0.07009 7.705576,-0.07009 2.952287,3.156052 2.952289,3.156051 -0.07453,7.153763 c -0.04099,3.93457 -0.0056,7.070261 0.0787,6.968204 0.08427,-0.102055 0.845744,-2.150089 1.692148,-4.551183 2.242609,-6.361851 2.472095,-6.856999 3.270936,-7.057496 0.672282,-0.168732 3.003139,0.486058 3.681084,1.034099 0.181901,0.147046 0.330729,0.622847 0.330729,1.057335 0,0.434488 -1.96056,6.20104 -4.356798,12.814559 l -4.356801,12.024583 -2.191637,2.761946 c -2.125882,2.679075 -2.622523,3.087521 -3.003896,2.470446 z m 3.010561,-4.208814 0.87539,-1.054225 -0.743098,-0.289073 c -0.408702,-0.158991 -1.010986,-0.393872 -1.338408,-0.521959 -0.572551,-0.223981 -0.595313,-0.178338 -0.595313,1.193725 0,1.283 0.162362,1.632705 0.79375,1.709635 0.07276,0.0089 0.526217,-0.458282 1.007679,-1.038103 z m -5.821111,-0.85447 -0.08136,-1.124479 -8.466667,-0.132292 -8.466666,-0.132291 -0.06859,-13.295314 -0.06859,-13.295313 h -1.055886 -1.055886 v 14.552084 14.552084 h 9.672504 9.672506 z m 10.609231,-10.496738 c 2.670164,-7.375747 3.212914,-9.110429 2.910416,-9.301938 -0.204512,-0.129475 -0.431371,-0.236657 -0.504132,-0.238182 -0.07276,-0.0015 -1.635162,4.134076 -3.472005,9.190222 -3.199453,8.806902 -3.459821,9.803712 -2.481119,9.498846 0.14552,-0.04533 1.741598,-4.162356 3.54684,-9.148948 z m -2.146459,-0.483716 c 1.776404,-4.911467 3.229827,-9.065915 3.229827,-9.232111 0,-0.351711 -0.724281,-0.689188 -0.887182,-0.41338 -0.495592,0.839089 -6.522524,18.094568 -6.39313,18.30393 0.09228,0.149323 0.314687,0.271494 0.494226,0.271494 0.188611,0 1.690092,-3.770291 3.556259,-8.929933 z m -5.104625,7.698684 c 0.222144,-0.531667 0.369232,-1.001334 0.326859,-1.043704 -0.04237,-0.04237 -1.800106,-0.09806 -3.906076,-0.123757 -2.105972,-0.02569 -3.977867,-0.165917 -4.159768,-0.311607 -0.226305,-0.181256 -0.330729,-0.169106 -0.330729,0.03848 0,0.218927 -1.233662,0.283187 -4.431771,0.230836 l -4.431771,-0.07254 -0.06857,-13.427605 -0.06857,-13.427605 h -1.1882 -1.1882 v 14.552084 14.552084 h 9.521449 9.521449 z m 2.042189,-5.647918 1.248365,-3.307291 0.0084,-8.26823 0.0084,-8.26823 h -2.35961 c -1.297787,0 -2.547943,-0.07227 -2.778125,-0.160599 -0.346189,-0.132844 -0.418515,-0.658677 -0.418515,-3.042708 v -2.882109 H 33.147136 26.26797 v 14.688092 14.688091 l 8.40052,-0.06986 8.400521,-0.06986 z M 28.171575,-32.14951 c -0.535656,-0.214895 -0.6001,-0.398132 -0.529167,-1.504583 l 0.08077,-1.259887 h 1.322917 1.322916 l 0.08069,1.257792 c 0.07358,1.147019 0.01963,1.281004 -0.612537,1.521354 -0.809511,0.307774 -0.863008,0.307303 -1.665584,-0.01468 z m 1.271395,-1.441554 c 0,-0.218281 -0.178594,-0.396875 -0.396875,-0.396875 -0.218281,0 -0.396875,0.178594 -0.396875,0.396875 0,0.218282 0.178594,0.396875 0.396875,0.396875 0.218281,0 0.396875,-0.178593 0.396875,-0.396875 z m 2.175879,1.408587 c -0.452535,-0.452533 0.09968,-1.011712 0.999121,-1.011712 0.899436,0 1.451655,0.559179 0.999121,1.011712 -0.171163,0.171164 -0.620767,0.311205 -0.999121,0.311205 -0.378354,0 -0.827959,-0.140041 -0.999121,-0.311205 z m 3.374949,0.04327 c -0.184949,-0.114305 -0.263127,-0.398439 -0.173728,-0.631407 0.140248,-0.365479 0.781741,-0.423577 4.677066,-0.423577 3.895325,0 4.536818,0.0581 4.677066,0.423577 0.08941,0.233008 -0.0036,0.527479 -0.20674,0.654513 -0.455652,0.284943 -8.50878,0.264208 -8.973664,-0.0231 z m -3.584735,-2.142897 c -0.424368,-0.686642 1.681891,-1.072597 2.232548,-0.409096 0.162076,0.195288 0.216342,0.433414 0.120591,0.529166 -0.290109,0.290108 -2.158557,0.194771 -2.353139,-0.12007 z m 3.375942,-0.168857 c 0.08087,-0.419905 0.519668,-0.463021 4.712131,-0.463021 4.192463,0 4.631264,0.04312 4.712131,0.463021 0.08228,0.427238 -0.281884,0.46302 -4.712131,0.46302 -4.430247,0 -4.794409,-0.03578 -4.712131,-0.46302 z m -6.876619,-2.764895 c -0.174625,-0.174625 -0.3175,-0.746125 -0.3175,-1.27 0,-1.168016 0.384527,-1.5875 1.455209,-1.5875 0.451114,0 0.963083,0.142875 1.137708,0.3175 0.410757,0.410758 0.410757,2.129242 0,2.54 -0.410127,0.410128 -1.86529,0.410128 -2.275417,0 z m 1.534584,-1.27 c 0,-0.293981 -0.176389,-0.529167 -0.396875,-0.529167 -0.220486,0 -0.396875,0.235186 -0.396875,0.529167 0,0.293981 0.176389,0.529167 0.396875,0.529167 0.220486,0 0.396875,-0.235186 0.396875,-0.529167 z m 1.984375,1.322917 c -0.299607,-0.484772 0.152772,-0.79375 1.162142,-0.79375 1.12413,0 1.378994,0.149394 1.17257,0.687326 -0.165174,0.430435 -2.080502,0.517745 -2.334712,0.106424 z m 3.483681,0.08819 c -0.09702,-0.09701 -0.17639,-0.335137 -0.17639,-0.529167 0,-0.280916 0.97014,-0.352777 4.7625,-0.352777 4.58611,0 4.7625,0.01961 4.7625,0.529167 0,0.508815 -0.17639,0.529167 -4.58611,0.529167 -2.522363,0 -4.665488,-0.07937 -4.7625,-0.17639 z m -3.483681,-1.940278 c -0.299607,-0.484772 0.152772,-0.79375 1.162142,-0.79375 1.12413,0 1.378994,0.149395 1.17257,0.687327 -0.165174,0.430435 -2.080502,0.517745 -2.334712,0.106423 z m 3.489714,0.09423 c -0.100333,-0.10033 -0.182423,-0.34117 -0.182423,-0.5352 0,-0.280969 0.973373,-0.352777 4.781899,-0.352777 4.411684,0 4.775015,0.03585 4.692968,0.463021 -0.07989,0.415946 -0.547518,0.470361 -4.59948,0.535199 -2.480799,0.0397 -4.592634,-0.0099 -4.692964,-0.110243 z m -6.995443,-3.179872 c -0.194857,-0.07863 -0.33073,-0.615865 -0.33073,-1.307701 0,-1.000741 0.09931,-1.219498 0.672119,-1.480486 0.454695,-0.207173 0.904042,-0.225177 1.389062,-0.05565 0.584532,0.204303 0.732314,0.436351 0.800163,1.256416 0.04577,0.553208 -0.05811,1.176118 -0.230835,1.384243 -0.302206,0.364137 -1.613732,0.480009 -2.299779,0.203182 z m 1.521354,-1.412271 c 0,-0.293982 -0.176389,-0.529167 -0.396875,-0.529167 -0.220486,0 -0.396875,0.235185 -0.396875,0.529167 0,0.293981 0.176389,0.529166 0.396875,0.529166 0.220486,0 0.396875,-0.235185 0.396875,-0.529166 z m 1.978795,1.313889 c -0.31256,-0.505733 0.277446,-0.825354 1.359776,-0.736627 0.699127,0.05731 1.027054,0.210914 1.027054,0.481071 0,0.489776 -2.102918,0.714934 -2.38683,0.255556 z m 3.36324,-0.18941 c 0.08087,-0.419904 0.519668,-0.463021 4.712131,-0.463021 4.192463,0 4.631264,0.04312 4.712131,0.463021 0.08228,0.427238 -0.281884,0.463021 -4.712131,0.463021 -4.430247,0 -4.794409,-0.03578 -4.712131,-0.463021 z m -3.36324,-1.662673 c -0.31256,-0.505733 0.277446,-0.825355 1.359776,-0.736627 0.699127,0.05731 1.027054,0.210913 1.027054,0.481071 0,0.489776 -2.102918,0.714934 -2.38683,0.255556 z m 3.312871,-0.255556 c 0,-0.509568 0.17639,-0.529167 4.7625,-0.529167 4.58611,0 4.7625,0.0196 4.7625,0.529167 0,0.509568 -0.17639,0.529166 -4.7625,0.529166 -4.58611,0 -4.7625,-0.0196 -4.7625,-0.529166 z m -6.714281,-2.721574 c -0.350464,-0.256266 -0.444643,-0.632033 -0.381299,-1.521355 0.08266,-1.160558 0.101641,-1.182472 1.094774,-1.264248 1.304107,-0.107382 1.767473,0.30199 1.767473,1.561514 0,0.734321 -0.142114,1.092685 -0.511773,1.29052 -0.689605,0.369066 -1.40668,0.344875 -1.969175,-0.06643 z m 1.422615,-1.247177 c 0,-0.293981 -0.176389,-0.529166 -0.396875,-0.529166 -0.220486,0 -0.396875,0.235185 -0.396875,0.529166 0,0.293982 0.176389,0.529167 0.396875,0.529167 0.220486,0 0.396875,-0.235185 0.396875,-0.529167 z m 2.151359,1.232427 c -0.411005,-0.49523 -0.108203,-0.70326 1.023641,-0.70326 0.533576,0 1.04848,0.07834 1.144232,0.174094 0.321069,0.321069 -0.407691,0.88424 -1.144232,0.88424 -0.400926,0 -0.861565,-0.159783 -1.023641,-0.355074 z m 3.32273,0.184717 c -0.100333,-0.100332 -0.182423,-0.341171 -0.182423,-0.535199 0,-0.280969 0.973373,-0.352778 4.781899,-0.352778 4.411684,0 4.775015,0.03585 4.692968,0.463021 -0.07989,0.415946 -0.547518,0.470359 -4.59948,0.535199 -2.480799,0.0397 -4.592634,-0.0099 -4.692964,-0.110243 z M 31.473738,-48.9787 c -0.32107,-0.321069 0.40769,-0.88424 1.144232,-0.88424 0.736541,0 1.465301,0.563171 1.144232,0.88424 -0.09575,0.09575 -0.610656,0.174094 -1.144232,0.174094 -0.533577,0 -1.048481,-0.07834 -1.144232,-0.174094 z m 3.311124,-0.288927 c 0.08074,-0.419904 0.519422,-0.463021 4.710991,-0.463021 4.191082,0 4.630385,0.04317 4.712277,0.463021 0.08334,0.42728 -0.280313,0.463021 -4.710994,0.463021 -4.430194,0 -4.794419,-0.03579 -4.712274,-0.463021 z m -7.017587,-3.417535 c -0.09701,-0.09701 -0.176389,-0.335139 -0.176389,-0.529167 0,-0.282692 1.095081,-0.352777 5.512153,-0.352777 3.031685,0 5.590494,0.07834 5.686247,0.174093 0.09575,0.09575 0.04148,0.333877 -0.120592,0.529167 -0.228285,0.275066 -1.4698,0.355073 -5.509857,0.355073 -2.868345,0 -5.294548,-0.07937 -5.391562,-0.176389 z m -0.160396,-2.053299 c -0.630136,-0.759268 0.345107,-0.919166 5.551026,-0.910128 5.172464,0.009 6.144887,0.168617 5.531233,0.908026 -0.41348,0.498213 -10.668908,0.500158 -11.082259,0.0021 z m 25.855709,10.667057 c 0.05639,-0.292802 -0.343551,-0.583975 -1.31988,-0.960929 -0.770429,-0.297458 -1.481574,-0.464235 -1.580319,-0.370615 -0.513969,0.487284 -0.250851,0.916214 0.840997,1.370976 1.366914,0.569329 1.944092,0.558277 2.059202,-0.03943 z m 0.808743,-2.23211 c 0.667727,-1.465496 0.268844,-1.990388 -1.833464,-2.412666 -0.566695,-0.113829 -0.736859,-0.0075 -0.983157,0.614564 -0.52563,1.327472 -0.481534,1.44328 0.742426,1.949759 1.571209,0.650172 1.713603,0.639761 2.074195,-0.151657 z m -9.747112,-6.415951 c 0,-0.115881 -0.768244,-1.038615 -1.70721,-2.050521 l -1.707208,-1.839828 -0.0126,1.874131 c -0.0069,1.030773 0.06679,1.953507 0.163809,2.050521 0.251159,0.251148 3.263204,0.219484 3.263204,-0.0343 z"
       id="path48889"
       clip-path="url(#clipPath49093)"
       transform="matrix(0.28508672,0,0,0.28508672,-3.9935358,17.128384)" />
  </g>
</svg>
